{"glyphs":{"0":{"ha":553,"x_min":44,"x_max":509,"o":"m 291 500 q 378 485 338 500 q 447 438 418 469 q 493 363 476 408 q 509 261 509 319 q 500 181 509 218 q 476 113 492 144 q 438 58 460 82 q 388 16 415 33 q 330 -9 361 -1 q 264 -18 298 -18 q 178 -3 218 -18 q 108 43 137 13 q 61 118 78 73 q 44 222 44 163 q 53 301 44 264 q 78 369 62 338 q 116 424 94 399 q 166 465 139 448 q 225 491 194 482 q 291 500 257 500 m 288 26 q 346 41 320 26 q 389 82 372 56 q 417 145 407 109 q 426 225 426 181 q 421 285 426 256 q 406 340 415 314 q 382 386 396 365 q 350 422 368 407 q 310 446 332 438 q 264 455 289 455 q 210 441 235 455 q 166 402 185 428 q 137 340 148 377 q 127 256 127 303 q 138 170 127 211 q 170 96 149 128 q 221 45 191 64 q 288 26 251 26 z "},"1":{"ha":318,"x_min":-3,"x_max":233,"o":"m -3 439 q 75 464 39 454 q 139 482 112 475 q 185 493 167 489 q 209 496 202 496 q 227 489 221 496 q 233 470 233 482 q 232 456 233 467 q 231 427 232 444 q 229 387 230 409 q 226 341 228 365 q 224 294 225 317 q 221 250 222 270 q 218 186 220 218 q 215 122 217 154 q 213 59 214 90 q 212 0 212 28 l 138 -9 l 133 -8 q 136 40 135 14 q 140 92 138 66 q 142 139 141 117 q 144 176 143 161 q 148 277 145 220 q 150 401 150 333 q 144 429 150 420 q 125 438 138 438 q 80 432 111 438 q 3 414 49 427 l -3 439 z "},"2":{"ha":456,"x_min":29,"x_max":424,"o":"m 29 27 q 129 103 85 68 q 204 169 172 138 q 258 225 236 199 q 293 274 280 252 q 312 316 306 297 q 317 353 317 336 q 307 403 317 383 q 280 436 296 424 q 243 455 263 449 q 204 460 223 460 q 162 455 179 460 q 134 440 145 449 q 119 418 124 431 q 114 392 114 406 q 122 353 114 373 q 146 320 130 334 l 145 316 q 106 306 126 306 q 82 310 93 306 q 61 322 70 314 q 47 340 53 329 q 42 366 42 352 q 52 404 42 386 q 78 438 62 422 q 116 465 95 453 q 162 485 138 476 q 209 497 185 493 q 255 502 233 502 q 312 493 286 502 q 359 470 339 485 q 390 432 379 454 q 402 381 402 410 q 396 339 402 360 q 378 293 391 317 q 343 242 365 269 q 288 185 321 216 q 209 120 255 155 q 103 46 164 86 l 104 44 q 169 59 136 53 q 234 71 202 66 q 293 78 265 76 q 343 81 321 81 q 377 78 362 81 q 402 71 392 76 q 418 56 413 65 q 424 36 424 48 q 414 -2 424 20 q 319 5 365 3 q 225 7 273 7 q 133 4 180 7 q 32 -2 86 2 l 29 27 z "},"3":{"ha":459,"x_min":-15,"x_max":427,"o":"m 126 151 q 196 182 162 164 q 257 225 231 200 q 299 280 283 249 q 315 351 315 312 q 306 396 315 376 q 280 431 296 417 q 243 452 264 445 q 197 460 222 460 q 155 454 172 460 q 126 439 137 449 q 111 418 116 430 q 106 392 106 405 q 113 354 106 372 q 137 322 121 335 l 136 318 q 96 308 115 308 q 72 312 83 308 q 53 323 61 315 q 41 341 45 330 q 36 367 36 352 q 46 405 36 387 q 72 438 55 423 q 110 464 88 453 q 155 484 132 476 q 203 497 179 492 q 249 501 227 501 q 306 493 279 501 q 355 469 334 485 q 388 430 376 453 q 400 376 400 407 q 392 326 400 350 q 371 281 385 302 q 339 242 357 260 q 300 209 321 224 q 257 182 279 194 q 214 160 235 169 l 215 158 q 218 158 216 158 q 222 158 220 158 l 230 158 q 303 147 268 158 q 366 114 339 135 q 410 62 394 93 q 427 -9 427 31 q 415 -77 427 -45 q 384 -135 404 -109 q 337 -183 364 -162 q 278 -218 310 -203 q 212 -240 247 -232 q 143 -247 178 -247 q 111 -245 129 -247 q 76 -239 93 -243 q 42 -228 58 -235 q 13 -210 25 -220 q -8 -186 0 -200 q -15 -154 -15 -172 q -11 -136 -15 -145 q 0 -119 -7 -126 q 17 -107 7 -112 q 38 -102 27 -102 q 65 -147 50 -128 q 100 -177 81 -165 q 139 -195 118 -189 q 181 -201 160 -201 q 239 -190 210 -201 q 289 -157 267 -178 q 324 -106 311 -136 q 338 -38 338 -76 q 323 33 338 2 q 285 85 309 64 q 230 117 261 106 q 163 129 198 129 l 153 129 q 141 128 146 129 q 129 127 136 128 l 126 151 z "},"4":{"ha":550,"x_min":8,"x_max":531,"o":"m 8 13 q 112 166 69 99 q 185 285 156 233 q 233 377 215 337 q 263 449 252 417 q 279 508 274 481 q 290 559 285 534 q 320 555 308 559 q 340 545 333 552 q 352 529 348 539 q 355 509 355 520 q 344 459 355 489 q 313 394 332 430 q 266 316 293 358 q 209 230 239 275 q 145 139 178 185 q 78 46 111 93 l 79 45 q 205 61 144 54 q 324 71 266 67 q 326 110 325 90 q 328 154 327 130 q 330 209 329 178 q 333 280 332 240 q 338 301 333 292 q 349 315 342 310 q 364 323 356 321 q 381 326 373 326 q 398 324 389 326 q 413 317 406 322 q 409 256 411 284 q 405 201 407 229 q 401 143 403 173 q 398 74 400 113 q 452 75 427 75 q 486 73 471 75 q 510 68 500 72 q 526 56 520 63 q 531 36 531 48 q 522 -2 531 20 q 458 2 489 1 q 395 5 427 4 q 393 -51 394 -25 q 391 -105 392 -77 q 389 -164 390 -133 q 386 -235 388 -195 l 314 -244 l 309 -244 q 313 -161 312 -196 q 317 -97 315 -125 q 319 -44 318 -68 q 321 6 320 -19 q 310 7 315 7 q 299 7 304 7 l 277 7 q 152 5 219 7 q 12 -4 84 2 l 8 13 z "},"5":{"ha":474,"x_min":-7,"x_max":432,"o":"m 408 491 q 419 455 419 472 q 390 415 419 429 q 307 400 360 400 q 222 406 270 400 q 117 424 175 412 q 113 372 115 400 q 107 316 110 344 q 99 261 103 288 q 90 212 95 234 l 92 212 q 164 237 129 229 q 232 245 199 245 q 312 231 275 245 q 375 191 349 217 q 417 129 402 165 q 432 47 432 92 q 423 -23 432 12 q 398 -91 414 -59 q 357 -153 381 -124 q 300 -203 332 -182 q 229 -237 268 -224 q 144 -249 190 -249 q 114 -247 130 -249 q 80 -240 97 -245 q 48 -228 63 -236 q 20 -211 32 -221 q 1 -186 8 -200 q -7 -154 -7 -172 q -3 -136 -7 -145 q 8 -119 1 -126 q 25 -107 16 -112 q 47 -102 35 -102 q 72 -147 57 -128 q 104 -177 86 -165 q 141 -195 121 -189 q 180 -201 160 -201 q 227 -192 205 -201 q 268 -169 250 -184 q 300 -134 286 -154 q 324 -90 314 -114 q 338 -40 333 -66 q 343 12 343 -14 q 332 85 343 52 q 299 144 320 119 q 247 184 277 170 q 180 198 217 198 q 125 191 154 198 q 63 167 96 183 l 48 190 q 68 330 60 255 q 79 485 76 406 q 115 483 98 484 q 148 482 132 483 q 180 481 164 481 q 213 481 196 481 q 309 483 261 481 q 408 491 356 485 z "},"6":{"ha":557,"x_min":53,"x_max":513,"o":"m 186 355 q 182 363 183 359 q 180 371 180 368 q 196 391 180 383 q 259 415 228 407 q 323 423 291 423 q 396 411 361 423 q 456 374 430 398 q 497 314 482 350 q 513 231 513 278 q 504 158 513 191 q 478 96 494 124 q 440 47 462 68 q 392 11 417 26 q 338 -11 366 -3 q 280 -18 309 -18 q 224 -11 252 -18 q 171 12 196 -3 q 124 52 145 28 q 86 110 102 77 q 62 186 71 143 q 53 282 53 229 q 64 393 53 338 q 97 497 76 448 q 149 590 119 547 q 217 664 180 633 q 299 714 255 696 q 392 731 343 731 q 443 727 421 731 q 479 714 465 722 q 500 696 493 706 q 508 675 508 686 q 506 662 508 669 q 499 648 504 655 q 485 636 494 642 q 465 627 477 630 q 436 652 451 643 q 407 667 422 662 q 378 675 393 673 q 349 676 363 676 q 266 652 303 676 q 200 582 228 628 q 157 470 173 536 q 142 319 142 403 q 155 183 142 239 q 190 93 168 127 q 239 42 212 58 q 296 26 267 26 q 350 38 326 26 q 392 72 375 50 q 418 126 409 95 q 427 197 427 158 q 423 240 427 218 q 411 282 419 262 q 391 320 403 302 q 363 351 379 337 q 326 371 347 364 q 280 379 305 379 q 234 373 257 379 q 186 355 211 368 z "},"7":{"ha":530,"x_min":32,"x_max":513,"o":"m 513 472 q 348 142 429 320 q 190 -242 267 -36 l 115 -248 l 109 -244 q 265 81 186 -81 q 427 405 344 243 q 376 405 399 405 q 330 405 352 405 q 289 406 309 406 q 251 406 270 406 l 203 406 q 156 405 176 406 q 122 399 137 403 q 99 386 108 394 q 83 364 89 378 q 73 329 77 350 q 67 280 70 309 l 32 281 l 34 319 q 37 378 36 352 q 42 422 39 404 q 49 453 45 440 q 62 473 54 465 q 81 483 70 480 q 110 486 93 486 q 135 485 119 486 q 173 482 152 484 q 222 480 195 481 q 278 479 249 479 q 335 479 308 479 q 388 480 361 479 q 444 482 415 480 q 504 486 472 484 l 513 472 z "},"8":{"ha":529,"x_min":37,"x_max":489,"o":"m 469 590 q 457 527 469 556 q 424 471 444 497 q 376 424 403 445 q 322 385 350 402 q 364 362 343 373 q 403 338 384 351 q 437 311 421 325 q 464 278 453 296 q 482 240 476 261 q 489 193 489 219 q 470 112 489 151 q 419 45 452 74 q 339 -1 386 16 q 237 -18 293 -18 q 162 -8 198 -18 q 98 23 125 2 q 54 75 70 43 q 37 151 37 107 q 49 218 37 188 q 81 273 61 248 q 129 320 102 298 q 189 361 157 341 q 144 393 165 376 q 107 431 123 410 q 82 479 92 452 q 73 538 73 505 q 92 620 73 584 q 143 681 111 655 q 216 719 175 706 q 301 732 257 732 q 363 723 333 732 q 417 696 394 714 q 455 652 441 679 q 469 590 469 625 m 218 345 q 179 312 197 330 q 147 274 161 295 q 126 230 134 254 q 119 178 119 206 q 128 120 119 147 q 154 71 136 92 q 198 38 172 51 q 259 26 224 26 q 313 34 287 26 q 361 57 340 42 q 396 97 383 73 q 409 152 409 121 q 395 213 409 187 q 359 259 382 239 q 308 296 337 279 q 249 328 279 312 l 218 345 m 148 575 q 160 516 148 542 q 191 470 171 490 q 236 433 210 450 q 289 402 261 417 q 334 437 315 419 q 367 474 354 455 q 386 517 379 494 q 392 566 392 539 q 385 614 392 592 q 362 653 377 637 q 325 679 348 670 q 274 689 303 689 q 225 681 248 689 q 185 659 202 673 q 158 623 168 644 q 148 575 148 602 z "},"9":{"ha":552,"x_min":31,"x_max":502,"o":"m 375 128 q 379 119 377 123 q 381 111 381 115 q 365 92 381 101 q 302 67 334 74 q 238 60 270 60 q 165 73 200 60 q 103 113 130 87 q 61 176 77 139 q 45 261 45 214 q 54 334 45 301 q 80 394 64 367 q 119 440 96 420 q 167 474 141 460 q 221 494 193 487 q 278 501 250 501 q 334 493 307 501 q 386 470 361 486 q 432 430 411 454 q 468 373 453 406 q 493 297 484 339 q 502 201 502 254 q 497 125 502 164 q 483 48 492 87 q 458 -27 473 10 q 424 -97 444 -64 q 379 -158 404 -130 q 322 -206 353 -186 q 254 -238 291 -226 q 175 -249 218 -249 q 114 -242 140 -249 q 69 -223 87 -235 q 41 -199 51 -212 q 31 -172 31 -185 q 34 -158 31 -165 q 41 -144 36 -150 q 55 -133 46 -138 q 76 -125 64 -127 q 108 -159 91 -146 q 143 -180 125 -172 q 178 -190 160 -188 q 213 -193 196 -193 q 302 -168 264 -193 q 365 -96 340 -142 q 401 17 389 -49 q 413 164 413 82 q 400 299 413 243 q 367 390 388 355 q 319 441 346 425 q 263 456 292 456 q 208 446 233 456 q 167 415 184 435 q 141 365 150 395 q 132 295 132 334 q 136 252 132 274 q 148 208 140 230 q 168 168 156 187 q 197 135 181 149 q 235 112 214 120 q 281 104 256 104 q 327 109 304 104 q 375 128 350 115 z "},"\u0000":{"ha":0,"x_min":0,"x_max":0,"o":""},"\r":{"ha":0,"x_min":0,"x_max":0,"o":""}," ":{"ha":242,"x_min":0,"x_max":0,"o":""},"A":{"ha":688,"x_min":-22,"x_max":722,"o":"m 135 184 q 113 124 122 150 q 98 80 104 99 q 86 47 91 61 q 76 22 81 33 q 64 2 71 9 q 50 -8 57 -5 q 33 -12 42 -12 q 13 -13 23 -13 q -1 -12 7 -13 q -17 -12 -10 -12 l -22 -8 q 55 160 19 80 q 126 314 92 240 q 119 333 119 325 q 140 347 119 346 q 251 587 202 483 q 336 761 299 691 q 345 771 340 767 q 357 778 351 775 q 371 781 363 780 q 385 782 378 782 q 404 781 394 782 q 424 774 413 779 q 463 562 446 656 q 496 395 481 468 q 525 266 512 321 q 551 172 539 212 q 576 108 564 133 q 602 68 589 82 q 631 47 616 53 q 663 42 646 42 q 687 44 675 42 q 713 52 699 47 l 722 24 q 648 -5 683 5 q 585 -15 612 -15 q 555 -9 569 -15 q 529 10 542 -4 q 504 48 516 24 q 480 108 492 72 q 455 193 468 144 q 428 309 442 243 q 304 306 365 308 q 177 300 242 304 q 153 236 164 265 q 135 184 142 207 m 419 351 q 404 425 412 384 q 387 512 395 466 q 370 607 378 557 q 352 707 361 656 l 350 707 q 263 515 301 606 q 195 347 225 424 q 308 349 253 348 q 419 351 362 350 z "},"B":{"ha":611,"x_min":12,"x_max":577,"o":"m 190 42 q 238 34 215 36 q 284 31 261 31 q 363 42 327 31 q 427 74 400 52 q 469 131 454 96 q 485 214 485 166 q 469 293 485 259 q 424 350 453 328 q 351 384 394 373 q 252 396 307 396 q 229 395 241 396 q 207 394 218 395 q 205 346 206 373 q 202 287 204 318 q 200 221 201 255 q 196 156 198 188 q 193 94 195 123 q 190 42 191 65 m 215 743 q 214 689 215 721 q 212 617 213 657 q 210 530 211 577 q 208 432 209 484 q 266 437 237 432 q 321 449 295 441 q 370 471 348 458 q 409 505 392 485 q 435 550 425 524 q 444 609 444 576 q 431 675 444 648 q 397 718 419 702 q 346 741 375 734 q 283 748 316 748 q 249 747 267 748 q 215 743 232 746 m 126 674 q 124 698 126 688 q 116 715 122 708 q 99 724 110 721 q 73 727 89 727 q 15 722 50 727 l 12 752 q 79 764 43 758 q 154 775 115 770 q 231 784 192 781 q 306 787 270 787 q 364 784 336 787 q 418 774 393 781 q 465 755 444 767 q 502 726 486 744 q 526 685 517 709 q 535 631 535 662 q 519 554 535 588 q 477 494 504 519 q 415 452 450 469 q 341 425 380 435 l 341 421 q 435 405 392 418 q 510 367 478 391 q 559 307 542 342 q 577 221 577 271 q 566 147 577 180 q 534 88 554 114 q 487 44 514 62 q 428 14 460 25 q 361 -4 396 2 q 290 -9 326 -9 q 232 -6 260 -9 q 174 2 205 -3 l 109 -5 l 102 -5 q 110 92 107 40 q 116 200 114 144 q 121 317 119 257 q 124 437 123 376 q 126 557 125 497 q 126 674 126 617 z "},"C":{"ha":672,"x_min":44,"x_max":641,"o":"m 429 798 q 511 789 473 798 q 576 769 549 781 q 620 744 604 758 q 635 719 635 730 q 633 659 635 696 q 629 568 632 621 l 600 569 q 600 578 600 574 q 600 587 600 583 q 595 632 600 611 q 577 672 590 653 q 545 707 564 692 q 504 732 526 722 q 456 747 481 742 q 404 752 430 752 q 321 738 358 752 q 255 699 284 724 q 204 640 226 674 q 169 566 183 606 q 148 482 155 526 q 141 393 141 438 q 150 293 141 340 q 175 206 158 245 q 214 135 191 166 q 266 81 237 103 q 328 48 294 59 q 398 36 361 36 q 451 42 424 36 q 507 60 478 47 q 563 90 535 72 q 621 134 592 109 q 627 131 623 133 q 633 126 630 129 q 639 121 636 124 q 641 115 641 118 q 638 109 641 113 q 571 47 605 72 q 503 7 537 23 q 434 -14 469 -8 q 365 -21 399 -21 q 277 -8 319 -21 q 200 28 236 4 q 136 86 164 52 q 86 161 107 119 q 55 253 66 203 q 44 357 44 302 q 55 463 44 410 q 87 566 65 517 q 140 657 108 614 q 215 731 172 699 q 311 780 257 762 q 429 798 365 798 z "},"D":{"ha":754,"x_min":11,"x_max":710,"o":"m 215 741 q 214 691 215 724 q 212 613 213 657 q 210 515 211 568 q 207 407 208 463 q 203 298 205 352 q 199 195 201 243 q 194 107 197 146 q 190 42 192 67 q 252 31 224 34 q 308 28 280 28 q 410 42 365 28 q 489 82 455 56 q 547 143 523 107 q 586 220 571 178 q 608 310 601 262 q 615 407 615 357 q 598 544 615 481 q 545 650 582 606 q 448 720 508 695 q 302 745 388 745 q 259 744 281 745 q 215 741 237 743 m 11 752 q 84 765 46 759 q 161 777 122 772 q 239 784 200 781 q 315 787 277 787 q 418 780 368 787 q 512 758 468 774 q 592 716 555 742 q 655 651 629 690 q 696 558 681 611 q 710 434 710 504 q 698 313 710 371 q 661 205 685 255 q 602 115 637 156 q 523 45 568 74 q 425 1 478 16 q 309 -15 371 -15 q 244 -11 277 -15 q 176 3 212 -6 l 109 -5 l 103 -5 q 108 53 105 17 q 113 136 111 89 q 118 242 116 183 q 122 367 120 300 q 125 508 124 434 q 126 662 126 582 q 125 691 126 679 q 118 711 123 703 q 101 723 112 719 q 71 727 90 727 q 14 722 49 727 l 11 752 z "},"E":{"ha":584,"x_min":13,"x_max":560,"o":"m 126 674 q 124 698 126 688 q 116 715 122 708 q 99 724 110 721 q 72 727 89 727 q 48 725 61 727 q 17 722 34 724 l 13 754 q 75 763 46 759 q 128 770 103 767 q 175 774 153 772 q 216 775 197 775 q 318 776 270 775 q 403 778 366 777 q 464 779 440 779 q 493 780 488 780 q 517 773 509 780 q 525 750 525 766 q 524 727 525 744 q 521 686 523 709 q 517 638 519 663 q 512 590 514 612 l 479 591 q 480 615 480 604 q 480 636 480 627 q 477 683 480 665 q 465 711 474 701 q 440 725 456 721 q 400 729 425 728 q 341 729 367 729 q 293 729 316 729 l 275 729 q 248 729 262 729 q 216 728 235 729 q 214 665 215 700 q 213 591 214 631 q 210 507 212 551 q 208 416 209 463 q 286 414 252 414 q 348 413 319 413 q 410 415 383 413 q 461 422 437 417 q 467 395 467 407 q 460 378 467 385 q 443 367 454 372 q 416 361 432 363 q 380 359 400 359 q 301 363 346 359 q 207 373 257 367 q 205 326 206 353 q 202 267 204 298 q 199 203 201 236 q 195 140 197 170 q 191 85 194 110 q 187 44 189 60 q 251 51 220 49 q 308 54 282 54 q 374 52 343 54 q 436 50 405 50 q 471 55 456 50 q 498 75 487 61 q 518 114 510 90 q 530 176 525 139 l 560 175 q 552 81 559 118 q 532 22 545 44 q 501 -7 519 1 q 460 -16 483 -16 q 419 -12 441 -16 q 371 -5 397 -9 q 315 3 345 0 q 250 6 284 6 q 182 3 219 6 q 105 -11 144 -1 l 99 -10 q 108 72 104 24 q 115 178 112 120 q 120 298 118 235 q 124 426 122 361 q 126 554 125 491 q 126 674 126 617 z "},"F":{"ha":541,"x_min":14,"x_max":531,"o":"m 126 673 q 124 698 126 688 q 116 714 122 708 q 99 724 110 721 q 72 727 89 727 q 48 725 61 727 q 17 722 34 724 l 14 754 q 75 763 47 759 q 129 770 104 767 q 175 774 154 772 q 216 775 197 775 q 321 776 272 775 q 407 778 370 777 q 469 779 445 779 q 499 780 493 780 q 523 773 514 780 q 531 750 531 766 q 530 727 531 744 q 527 686 529 709 q 523 638 525 663 q 517 590 520 612 l 485 591 q 486 615 486 604 q 486 636 486 627 q 483 683 486 665 q 470 711 479 701 q 446 725 461 721 q 406 729 430 728 q 374 729 389 729 q 344 729 358 729 l 275 729 q 262 729 269 729 q 249 729 256 729 q 234 729 242 729 q 216 728 226 729 q 213 590 215 671 q 208 410 211 509 q 287 407 252 408 q 351 406 322 406 q 413 408 386 406 q 465 415 440 410 q 470 388 470 400 q 464 372 470 378 q 447 361 458 365 q 419 355 435 357 q 383 353 403 353 q 303 357 348 353 q 207 367 258 361 q 204 280 205 325 q 201 188 202 235 q 198 94 200 142 q 195 0 197 47 l 115 -10 l 109 -9 q 116 175 113 88 q 122 345 119 262 q 125 508 124 427 q 126 673 126 589 z "},"G":{"ha":696,"x_min":44,"x_max":651,"o":"m 441 798 q 526 790 487 798 q 592 770 564 782 q 635 745 620 759 q 651 721 651 732 q 649 660 651 697 q 645 570 647 623 l 615 571 q 616 580 615 575 q 616 589 616 584 q 611 634 615 612 q 593 674 606 655 q 560 708 579 693 q 518 733 541 723 q 469 748 495 743 q 415 752 443 752 q 329 738 368 752 q 260 698 290 724 q 207 638 229 672 q 170 562 184 603 q 148 476 155 521 q 141 385 141 431 q 151 270 141 322 q 181 179 162 219 q 226 110 200 139 q 284 62 252 81 q 352 34 316 43 q 426 25 388 25 q 478 30 457 25 q 512 41 499 34 q 532 58 525 48 q 540 80 538 68 q 543 125 543 100 q 544 173 544 149 l 544 203 q 541 243 544 229 q 528 264 537 257 q 502 272 518 271 q 459 274 485 274 l 443 274 q 432 273 438 274 q 418 273 427 273 l 416 307 q 426 306 421 306 q 433 306 430 306 l 448 306 q 495 307 470 306 q 542 307 520 307 q 580 308 564 308 q 600 309 596 309 q 626 299 618 309 q 634 268 634 290 q 634 233 634 254 q 632 186 633 212 q 629 130 631 160 q 627 69 628 100 q 625 49 627 57 q 621 35 624 40 q 612 25 617 29 q 598 16 607 20 q 570 5 588 11 q 528 -6 552 -1 q 476 -15 505 -11 q 417 -18 448 -18 q 331 -11 375 -18 q 245 13 287 -4 q 167 58 204 30 q 103 128 131 86 q 60 227 76 170 q 44 358 44 283 q 55 464 44 411 q 88 566 66 517 q 143 657 110 615 q 220 731 176 700 q 320 780 264 762 q 441 798 375 798 z "},"H":{"ha":769,"x_min":11,"x_max":792,"o":"m 216 689 q 215 652 216 674 q 213 598 214 630 q 211 523 212 566 q 208 425 210 480 q 302 427 257 426 q 391 429 347 429 q 479 431 435 430 q 570 432 523 431 q 572 501 571 466 q 575 574 573 535 q 579 656 577 612 q 586 754 582 700 q 590 766 586 761 q 601 775 594 772 q 616 781 608 779 q 632 782 624 782 q 653 780 642 782 q 675 772 665 777 q 666 666 670 717 q 660 567 663 615 q 655 472 657 519 q 652 377 653 425 q 651 279 651 329 q 650 175 650 230 q 653 114 650 139 q 664 72 656 89 q 684 49 671 56 q 716 41 697 41 q 745 44 730 41 q 782 54 760 46 l 792 26 q 746 8 767 16 q 707 -5 725 0 q 673 -13 689 -10 q 644 -15 658 -15 q 610 -8 624 -15 q 585 16 595 -1 q 571 60 576 33 q 566 127 566 87 l 566 204 q 566 255 566 231 q 567 302 567 279 q 568 346 567 325 q 569 388 568 367 q 478 388 522 388 q 390 387 434 388 q 301 384 346 386 q 207 380 256 382 l 195 0 l 115 -10 l 109 -9 q 116 175 113 88 q 122 346 119 263 q 125 509 124 429 q 126 672 126 589 q 124 699 126 688 q 116 718 122 711 q 99 728 110 725 q 72 731 89 731 q 15 726 50 731 l 11 754 q 95 773 60 767 q 152 780 129 780 q 188 774 175 780 q 207 756 200 768 q 214 727 213 744 q 216 689 216 710 z "},"I":{"ha":304,"x_min":11,"x_max":216,"o":"m 126 672 q 125 699 126 688 q 118 718 123 711 q 103 728 113 725 q 76 731 93 731 q 48 730 65 731 q 15 726 32 729 l 11 754 q 97 773 61 767 q 156 780 133 780 q 190 774 178 780 q 208 756 202 768 q 215 727 214 744 q 216 689 216 710 q 215 649 216 681 q 212 566 214 616 q 209 449 211 515 q 205 309 207 384 q 200 156 202 235 q 195 0 198 77 l 115 -10 l 109 -9 q 116 175 113 88 q 122 344 119 262 q 125 507 124 426 q 126 672 126 587 z "},"J":{"ha":304,"x_min":-200,"x_max":215,"o":"m 215 689 q 215 660 215 680 q 213 616 214 641 q 212 562 213 591 q 210 503 211 532 q 205 343 208 425 q 197 184 203 262 q 180 32 191 105 q 152 -105 170 -42 q 124 -177 140 -145 q 90 -231 109 -208 q 51 -270 72 -254 q 9 -295 31 -286 q -33 -309 -12 -304 q -75 -313 -55 -313 q -125 -306 -102 -313 q -164 -290 -148 -300 q -190 -265 -181 -279 q -200 -236 -200 -251 q -195 -218 -200 -227 q -184 -202 -191 -209 q -167 -190 -176 -195 q -146 -185 -157 -185 q -97 -238 -125 -222 q -38 -254 -70 -254 q 19 -238 -5 -254 q 60 -190 43 -221 q 87 -116 76 -160 q 103 -19 97 -73 q 113 97 110 34 q 118 229 116 159 q 122 342 120 287 q 124 451 123 397 q 126 560 125 506 q 126 672 126 615 q 125 699 126 688 q 118 718 123 711 q 102 728 112 725 q 76 731 92 731 q 62 731 70 731 q 46 730 55 731 q 28 728 37 729 q 9 726 18 727 l 6 754 q 94 773 56 767 q 156 780 132 780 q 190 774 178 780 q 208 756 202 768 q 214 727 213 744 q 215 689 215 710 z "},"K":{"ha":658,"x_min":11,"x_max":694,"o":"m 292 429 q 370 302 335 356 q 433 208 404 248 q 484 140 461 168 q 527 93 507 113 q 554 69 541 79 q 577 53 566 59 q 600 44 589 46 q 622 41 611 41 q 651 44 636 41 q 684 54 666 48 l 694 26 q 649 8 669 16 q 612 -5 629 0 q 582 -13 595 -10 q 556 -15 568 -15 q 534 -13 544 -15 q 514 -5 524 -10 q 493 9 504 1 q 472 27 483 17 q 429 74 453 44 q 373 147 404 103 q 304 252 342 192 q 221 392 266 313 l 221 396 l 246 432 q 349 576 301 511 q 437 687 396 641 q 516 759 479 733 q 590 784 554 784 q 617 780 606 784 q 636 768 629 775 q 647 752 644 761 q 651 732 651 742 q 643 699 651 715 q 621 672 635 683 l 618 672 q 591 691 605 686 q 563 696 577 696 q 505 675 536 696 q 439 617 473 653 q 368 532 405 580 q 292 429 331 483 m 126 672 q 124 699 126 688 q 116 718 122 711 q 99 728 110 725 q 72 731 89 731 q 15 726 50 731 l 11 754 q 95 773 60 767 q 152 780 129 780 q 188 774 175 780 q 207 756 200 768 q 214 727 213 744 q 216 689 216 710 q 215 663 216 683 q 214 612 215 643 q 212 539 213 580 q 209 449 210 497 q 206 346 208 400 q 202 234 204 291 q 199 117 201 176 q 195 0 197 58 l 115 -10 l 109 -9 q 116 176 113 88 q 122 347 119 264 q 125 510 124 430 q 126 672 126 590 z "},"L":{"ha":561,"x_min":11,"x_max":554,"o":"m 126 672 q 125 699 126 688 q 118 718 123 711 q 102 728 112 725 q 76 731 92 731 q 48 730 64 731 q 14 726 32 729 l 11 754 q 96 773 61 767 q 156 780 132 780 q 190 774 178 780 q 208 756 202 768 q 214 727 213 744 q 215 689 215 710 q 215 666 215 687 q 214 611 215 645 q 212 530 213 576 q 209 433 211 484 q 205 327 208 381 q 201 221 203 273 q 195 124 198 170 q 189 44 193 79 q 251 51 222 49 q 304 54 279 54 q 369 52 339 54 q 429 50 400 50 q 466 56 450 50 q 494 77 482 62 q 513 119 505 93 q 525 185 520 145 l 554 183 q 547 85 554 123 q 527 24 540 46 q 496 -7 514 2 q 453 -16 477 -16 q 414 -12 435 -16 q 366 -5 392 -9 q 311 3 341 0 q 247 6 281 6 q 180 3 216 6 q 105 -11 143 -1 l 99 -10 q 109 90 105 37 q 116 201 114 143 q 121 319 119 259 q 124 440 123 379 q 126 559 125 500 q 126 672 126 617 z "},"M":{"ha":894,"x_min":14,"x_max":915,"o":"m 915 25 q 870 7 890 15 q 831 -6 849 -1 q 799 -13 814 -11 q 769 -15 783 -15 q 735 -8 750 -15 q 711 16 721 -1 q 696 60 701 33 q 692 127 692 87 l 692 157 q 692 205 692 178 q 692 264 692 233 q 693 327 693 295 q 694 389 694 359 q 696 446 695 419 q 697 490 696 472 q 701 569 699 530 q 707 647 703 609 l 704 648 q 690 613 699 632 q 670 566 682 593 q 609 430 640 500 q 546 286 578 359 q 482 137 514 212 q 418 -14 450 61 l 401 -13 q 384 41 394 10 q 362 109 374 73 q 336 186 350 145 q 308 268 322 227 q 279 351 294 310 q 251 431 265 392 q 226 503 238 469 q 204 563 214 536 q 186 617 194 594 q 172 660 178 641 l 170 659 q 170 638 170 648 q 170 617 170 628 l 170 561 q 168 451 170 507 q 164 340 166 395 q 157 235 161 286 q 150 141 154 184 q 143 81 146 105 q 137 39 140 56 q 128 12 133 22 q 115 -3 123 2 q 97 -9 108 -8 q 71 -11 86 -11 l 60 -11 q 53 -10 57 -11 q 42 -10 48 -10 l 37 -6 q 66 67 53 26 q 87 153 78 107 q 103 247 97 198 q 115 344 110 296 q 122 440 119 393 q 126 529 125 487 q 128 608 128 572 q 129 670 129 644 q 126 699 129 688 q 118 717 124 710 q 102 726 112 723 q 75 728 92 728 q 50 727 64 728 q 17 723 35 725 l 14 752 q 116 774 76 767 q 179 781 156 781 q 200 778 192 781 q 216 771 209 776 q 228 757 222 766 q 237 735 233 748 q 275 629 255 685 q 316 513 295 572 q 358 395 337 454 q 398 280 379 336 q 412 240 406 258 q 423 206 418 222 q 433 177 429 191 q 442 149 438 163 l 444 149 q 455 178 450 163 q 468 207 461 192 q 482 239 474 222 q 499 278 489 256 q 548 391 523 332 q 601 510 574 449 q 655 634 628 571 q 711 760 683 696 q 720 771 714 766 q 731 778 725 775 q 744 781 738 780 q 757 782 751 782 q 778 780 767 782 q 801 772 790 777 q 792 666 796 717 q 785 567 788 615 q 781 472 783 519 q 778 377 779 425 q 776 279 777 329 q 775 175 775 230 q 779 114 775 139 q 789 72 782 89 q 810 49 797 56 q 842 41 823 41 q 856 42 849 41 q 869 43 862 42 q 885 47 877 44 q 905 53 894 49 l 915 25 z "},"N":{"ha":734,"x_min":10,"x_max":708,"o":"m 236 722 q 271 660 251 694 q 313 588 291 626 q 360 510 336 550 q 409 429 384 469 q 458 348 434 388 q 506 272 483 309 q 549 204 529 236 q 586 147 570 172 q 587 312 586 238 q 588 447 587 387 q 590 554 589 507 q 594 635 592 600 q 599 695 596 670 q 606 735 602 720 q 614 758 609 749 q 627 772 620 767 q 643 780 634 778 q 661 782 652 782 q 708 772 684 782 l 708 769 q 680 708 692 746 q 659 624 668 670 q 645 528 651 578 q 637 427 640 477 q 633 331 634 377 q 630 248 631 284 q 629 186 629 216 q 627 125 628 156 q 627 64 627 95 q 626 0 626 33 l 585 -5 l 579 -5 q 553 33 569 9 q 517 88 537 57 q 475 156 498 119 q 427 232 452 192 q 377 313 403 272 q 327 395 352 354 q 279 474 302 436 q 234 547 255 513 q 197 609 214 581 q 168 657 180 637 q 166 511 167 582 q 162 375 164 440 q 156 250 159 309 q 150 141 154 192 q 145 80 148 105 q 139 38 143 55 q 130 12 136 22 q 117 -3 125 2 q 99 -9 110 -8 q 73 -11 88 -11 l 64 -11 q 57 -10 61 -11 q 46 -10 53 -10 l 42 -6 q 68 67 56 26 q 87 153 79 108 q 102 248 96 199 q 113 345 109 296 q 119 441 117 394 q 123 531 122 489 q 125 611 124 574 q 125 674 125 647 q 123 699 125 689 q 115 716 121 710 q 99 726 109 723 q 72 729 89 729 q 46 728 61 729 q 14 724 32 726 l 10 753 q 61 765 38 760 q 103 773 84 770 q 137 779 122 777 q 164 781 152 781 q 186 778 177 781 q 203 768 195 774 q 219 750 211 761 q 236 722 227 738 z "},"O":{"ha":736,"x_min":44,"x_max":692,"o":"m 354 -19 q 229 5 286 -19 q 131 76 172 29 q 67 192 90 122 q 44 354 44 262 q 54 468 44 412 q 82 573 63 524 q 129 663 101 622 q 195 734 157 705 q 279 781 233 764 q 382 798 326 798 q 507 774 450 798 q 605 703 564 750 q 670 587 647 656 q 692 425 692 517 q 683 311 692 367 q 654 206 673 255 q 607 115 635 157 q 542 44 579 74 q 457 -2 504 15 q 354 -19 410 -19 m 370 25 q 441 38 409 25 q 499 75 473 51 q 543 131 524 98 q 573 205 561 164 q 591 293 585 246 q 597 392 597 340 q 579 553 597 485 q 530 665 561 621 q 457 732 498 710 q 369 753 415 753 q 297 741 329 753 q 240 704 265 728 q 196 648 214 681 q 165 574 177 614 q 147 485 153 533 q 141 387 141 438 q 159 226 141 294 q 209 114 177 158 q 281 47 240 69 q 370 25 323 25 z "},"P":{"ha":575,"x_min":11,"x_max":552,"o":"m 126 674 q 124 698 126 688 q 116 715 122 708 q 99 724 110 721 q 73 727 89 727 q 15 722 50 727 l 11 752 q 81 764 43 758 q 159 775 119 770 q 239 784 198 781 q 316 787 279 787 q 407 778 365 787 q 482 748 450 769 q 533 691 514 727 q 552 603 552 656 q 531 491 552 541 q 472 408 510 442 q 382 355 435 373 q 266 337 329 337 q 245 341 251 337 q 240 360 240 346 l 240 365 q 240 370 240 368 q 326 380 290 370 q 386 408 361 391 q 425 447 410 425 q 447 492 439 469 q 457 538 455 515 q 460 579 460 561 q 446 661 460 628 q 409 713 432 693 q 354 740 385 732 q 287 748 322 748 q 252 747 269 748 q 216 743 236 745 q 214 673 216 717 q 212 573 213 629 q 208 448 210 516 q 204 307 206 380 q 200 155 202 233 q 195 0 197 77 l 115 -10 l 109 -9 q 116 175 113 88 q 122 345 119 262 q 125 508 124 427 q 126 674 126 589 z "},"Q":{"ha":736,"x_min":44,"x_max":1307,"o":"m 1307 -153 q 1239 -232 1274 -199 q 1171 -284 1205 -264 q 1101 -313 1136 -304 q 1031 -322 1066 -322 q 951 -313 991 -322 q 871 -286 911 -303 q 791 -248 831 -270 q 713 -203 752 -227 q 635 -154 674 -179 q 560 -107 597 -130 q 487 -67 523 -85 q 417 -38 451 -49 q 380 -28 398 -32 q 346 -21 363 -24 q 314 -16 330 -18 q 284 -11 299 -14 q 186 29 230 0 q 110 103 142 57 q 61 211 79 149 q 44 354 44 274 q 54 468 44 412 q 82 573 63 524 q 129 663 101 622 q 195 734 157 705 q 279 781 233 764 q 382 798 326 798 q 507 774 450 798 q 605 703 564 750 q 670 587 647 656 q 692 425 692 517 q 685 323 692 373 q 663 229 677 274 q 625 146 648 185 q 573 77 603 107 q 506 25 543 46 q 425 -6 469 4 l 425 -8 q 501 -31 462 -16 q 580 -63 540 -45 q 660 -101 620 -81 q 741 -142 701 -121 q 823 -180 782 -162 q 905 -213 864 -199 q 986 -235 945 -227 q 1065 -244 1026 -244 q 1124 -238 1095 -244 q 1182 -220 1153 -233 q 1237 -188 1210 -208 q 1290 -139 1264 -168 l 1307 -153 m 370 25 q 441 38 409 25 q 499 75 473 51 q 543 131 524 98 q 573 205 561 164 q 591 293 585 246 q 597 392 597 340 q 579 553 597 485 q 530 665 561 621 q 457 732 498 710 q 369 753 415 753 q 297 741 329 753 q 240 704 265 728 q 196 648 214 681 q 165 574 177 614 q 147 485 153 533 q 141 387 141 438 q 159 226 141 294 q 209 114 177 158 q 281 47 240 69 q 370 25 323 25 z "},"R":{"ha":656,"x_min":11,"x_max":693,"o":"m 126 674 q 124 698 126 688 q 116 715 122 708 q 99 724 110 721 q 73 727 89 727 q 15 722 50 727 l 11 752 q 80 764 43 758 q 157 775 118 770 q 237 784 197 781 q 313 787 276 787 q 404 778 362 787 q 477 750 446 770 q 526 696 508 729 q 543 615 543 664 q 528 532 543 570 q 487 465 514 495 q 421 415 460 436 q 336 381 383 394 q 400 275 371 321 q 453 195 429 230 q 497 136 477 161 q 535 94 517 112 q 561 69 549 79 q 584 53 573 59 q 607 44 596 47 q 631 41 619 41 q 657 44 645 41 q 684 52 669 47 l 693 24 q 617 -5 650 5 q 562 -15 584 -15 q 540 -12 550 -15 q 520 -4 530 -9 q 500 9 510 1 q 479 27 491 17 q 437 74 461 45 q 383 149 413 104 q 315 254 352 193 q 234 395 278 315 l 235 400 q 336 416 295 402 q 403 455 377 431 q 440 513 429 479 q 452 589 452 547 q 410 708 452 669 q 285 748 368 748 q 252 747 268 748 q 216 743 236 745 q 214 673 216 717 q 212 573 213 629 q 208 448 210 516 q 204 307 206 380 q 200 155 202 233 q 195 0 197 77 l 115 -10 l 109 -9 q 116 175 113 88 q 122 345 119 262 q 125 508 124 427 q 126 674 126 589 z "},"S":{"ha":488,"x_min":29,"x_max":459,"o":"m 70 199 q 68 184 68 191 q 68 169 68 176 q 78 103 68 130 q 108 59 89 76 q 154 35 127 42 q 214 27 181 27 q 278 36 248 27 q 331 64 308 46 q 368 111 354 83 q 381 175 381 138 q 375 217 381 198 q 358 252 369 236 q 331 282 347 268 q 299 307 316 295 q 261 330 281 319 q 221 353 241 341 q 179 376 200 364 q 138 402 157 389 q 102 433 119 416 q 73 468 85 449 q 54 512 61 488 q 47 564 47 535 q 57 631 47 600 q 82 688 66 662 q 122 734 99 714 q 172 769 144 755 q 230 790 199 783 q 294 798 261 798 q 326 796 309 798 q 359 790 342 794 q 392 781 376 786 q 419 769 407 776 q 438 754 431 762 q 445 737 445 746 q 445 712 445 727 q 444 679 445 697 q 443 638 444 660 q 440 591 441 615 l 406 592 q 407 616 407 605 q 397 675 407 649 q 369 718 387 701 q 325 743 351 735 q 268 752 299 752 q 210 742 237 752 q 163 713 183 731 q 133 669 144 694 q 121 613 121 644 q 128 568 121 588 q 146 531 134 548 q 173 500 157 514 q 207 474 188 486 q 245 450 225 461 q 286 428 266 439 q 329 405 308 417 q 369 380 350 393 q 405 350 389 366 q 434 316 421 335 q 453 273 446 296 q 459 222 459 250 q 447 140 459 176 q 413 77 434 104 q 364 32 391 51 q 306 3 336 14 q 247 -13 276 -8 q 191 -18 217 -18 q 128 -14 158 -18 q 76 -2 99 -9 q 42 15 54 6 q 29 35 29 25 q 30 100 29 58 q 35 201 32 143 l 70 199 z "},"T":{"ha":570,"x_min":4,"x_max":606,"o":"m 39 579 l 5 581 q 4 653 4 622 q 7 710 4 686 q 20 749 10 733 q 48 771 30 764 q 97 778 66 778 q 141 777 116 778 q 194 775 166 776 q 251 773 222 774 q 308 772 281 772 q 390 772 354 772 q 452 773 425 772 q 500 774 480 773 q 538 776 521 774 q 570 779 555 777 q 600 784 585 781 q 606 757 606 767 q 587 723 606 734 q 531 711 568 711 q 449 715 496 711 q 342 723 402 719 q 340 616 341 673 q 337 498 338 559 q 333 374 335 437 q 329 247 331 310 q 325 121 327 183 q 322 0 323 58 l 241 -10 l 235 -9 q 240 115 238 55 q 245 232 243 174 q 249 346 247 289 q 251 464 250 403 q 253 589 252 524 q 254 728 254 654 q 214 729 234 729 q 174 730 194 730 q 135 729 153 730 q 102 724 117 728 q 75 712 87 720 q 55 687 63 703 q 43 647 47 671 q 39 587 39 623 l 39 579 z "},"U":{"ha":779,"x_min":26,"x_max":803,"o":"m 686 772 q 674 629 679 697 q 666 496 669 561 q 661 367 663 431 q 660 238 660 303 q 661 150 660 187 q 669 88 662 113 q 687 52 675 64 q 723 40 700 40 q 753 43 736 40 q 794 55 770 45 l 803 28 q 765 11 784 18 q 727 -3 746 3 q 692 -12 709 -9 q 661 -15 675 -15 q 620 -5 636 -15 q 595 23 604 5 q 583 67 586 42 q 579 123 579 93 q 581 194 579 157 q 586 271 583 231 l 582 272 q 556 205 571 239 q 521 138 541 170 q 478 77 502 106 q 425 28 454 49 q 364 -6 397 6 q 294 -18 332 -18 q 226 -7 255 -18 q 176 23 197 4 q 141 68 155 42 q 120 126 127 95 q 109 193 112 158 q 106 264 106 228 q 109 346 106 303 q 115 433 111 389 q 124 517 119 476 q 132 591 129 557 q 139 650 136 625 q 142 685 142 674 q 140 705 142 696 q 132 720 138 714 q 116 729 126 726 q 89 731 105 731 q 63 730 78 731 q 30 726 48 729 l 26 755 q 113 773 78 767 q 172 780 149 780 q 200 776 189 780 q 218 765 211 773 q 227 746 224 758 q 230 720 230 735 q 227 686 230 710 q 220 627 224 662 q 211 550 216 592 q 202 461 207 507 q 196 369 198 415 q 193 279 193 322 q 194 224 193 252 q 201 172 196 197 q 214 125 205 147 q 237 86 223 103 q 272 61 252 70 q 322 52 293 52 q 388 67 356 52 q 448 110 420 82 q 500 176 476 138 q 541 260 523 214 q 568 358 558 306 q 582 464 579 409 q 583 504 583 484 q 585 544 584 524 q 587 587 586 565 q 589 634 588 609 q 593 688 591 659 q 597 752 594 718 q 601 765 597 760 q 612 775 605 771 q 626 780 618 779 q 642 782 633 782 q 663 780 651 782 q 686 772 675 777 z "},"V":{"ha":634,"x_min":-42,"x_max":633,"o":"m 180 697 q 208 601 193 657 q 240 470 222 546 q 276 296 257 394 q 316 75 295 199 l 318 75 q 380 197 350 136 q 436 314 410 257 q 485 424 463 371 q 523 523 507 477 q 547 607 538 569 q 556 673 556 645 q 509 786 556 745 l 512 792 q 525 793 518 793 q 539 794 532 794 q 573 790 556 794 q 603 776 590 786 q 624 749 616 766 q 633 708 633 733 q 622 647 633 686 q 592 557 612 609 q 544 441 572 505 q 480 305 516 377 q 403 153 445 233 q 315 -10 361 74 l 259 -14 l 252 -13 q 162 424 199 256 q 99 663 125 592 q 85 693 92 681 q 68 714 78 706 q 47 726 59 723 q 17 730 35 730 q -8 729 6 730 q -39 724 -21 727 l -42 754 q 45 775 10 768 q 105 782 81 782 q 133 777 122 782 q 152 762 144 772 q 167 735 160 751 q 180 697 173 719 z "},"W":{"ha":987,"x_min":-41,"x_max":980,"o":"m 644 -13 l 637 -12 q 618 104 627 51 q 598 206 608 158 q 579 297 589 254 q 561 380 570 340 q 539 484 549 437 q 518 576 529 532 l 516 576 q 488 481 502 527 q 460 391 474 435 q 429 301 445 346 q 396 207 413 256 q 358 105 378 159 q 316 -8 338 52 l 258 -13 l 251 -12 q 159 428 197 259 q 97 664 120 596 q 84 695 91 682 q 68 715 78 707 q 47 727 59 724 q 17 731 35 731 q -7 730 6 731 q -37 725 -21 728 l -41 755 q 47 775 12 768 q 104 782 81 782 q 134 777 122 782 q 154 762 145 772 q 168 733 162 751 q 181 691 174 716 q 204 602 191 656 q 235 474 218 548 q 271 308 251 401 q 311 100 290 214 l 313 100 q 348 198 330 146 q 385 304 367 250 q 422 415 404 359 q 459 528 441 472 q 494 640 477 585 q 526 747 511 695 q 534 756 527 753 q 548 759 540 759 q 561 757 555 759 q 581 676 570 723 q 605 575 592 630 q 630 461 617 521 q 656 339 643 400 q 680 216 668 277 q 702 99 692 155 l 704 99 q 753 205 728 150 q 799 314 777 260 q 840 422 821 369 q 874 522 860 475 q 896 609 888 569 q 904 677 904 648 q 901 710 904 693 q 892 742 898 727 q 877 769 886 757 q 856 789 868 782 l 858 795 q 871 797 864 796 q 885 798 878 798 q 921 793 904 798 q 951 778 938 788 q 972 751 965 768 q 980 712 980 735 q 974 667 980 695 q 957 602 968 638 q 929 520 945 565 q 894 427 913 476 q 852 323 874 377 q 805 214 829 270 q 754 103 780 159 q 702 -8 728 46 l 644 -13 z "},"X":{"ha":663,"x_min":10,"x_max":668,"o":"m 233 724 q 292 593 263 659 q 352 458 321 527 q 390 522 371 489 q 430 590 409 554 q 472 666 450 626 q 521 752 495 706 q 532 767 526 761 q 544 777 538 773 q 558 781 551 780 q 575 782 566 782 q 604 778 588 782 q 635 763 620 774 q 565 679 600 724 q 497 588 530 635 q 433 496 464 542 q 375 407 402 450 q 448 246 413 325 q 519 93 483 166 q 536 67 527 77 q 554 51 545 57 q 574 43 564 45 q 595 41 584 41 q 626 45 610 41 q 659 54 642 48 l 668 26 q 589 -4 625 8 q 526 -15 553 -15 q 504 -13 514 -15 q 485 -5 494 -11 q 467 11 475 1 q 452 38 459 22 q 385 187 418 111 q 316 339 351 262 q 253 234 283 284 q 200 140 224 183 q 156 60 175 96 q 123 0 137 24 l 14 -13 l 10 -9 q 103 116 61 59 q 179 221 144 172 q 241 310 213 269 q 294 390 269 352 q 259 466 276 428 q 226 541 242 504 q 193 612 209 577 q 162 679 177 647 q 148 704 155 694 q 131 720 140 714 q 112 728 123 725 q 89 730 102 730 q 33 725 65 730 l 30 754 q 114 775 81 767 q 169 782 148 782 q 191 779 182 782 q 207 768 200 775 q 220 750 214 761 q 233 724 226 739 z "},"Y":{"ha":569,"x_min":-40,"x_max":589,"o":"m 156 747 q 171 717 162 736 q 189 674 179 698 q 211 622 199 650 q 234 565 222 594 q 256 506 245 536 q 277 449 268 476 q 292 404 286 424 q 304 363 299 384 l 306 363 q 338 439 322 401 q 371 515 355 478 q 403 587 388 552 q 433 652 419 621 q 459 707 447 682 q 481 749 472 732 q 494 767 487 761 q 507 777 500 774 q 523 781 515 781 q 540 782 531 782 q 552 781 545 782 q 565 778 558 780 q 578 774 571 777 q 589 767 584 771 q 501 641 539 701 q 434 530 463 581 q 387 440 406 480 q 355 374 367 401 q 341 340 347 356 q 332 304 336 323 q 325 261 328 285 q 321 204 323 237 q 320 161 320 183 q 318 113 319 138 q 316 61 317 89 q 314 0 315 33 l 234 -10 l 228 -9 q 232 79 230 36 q 235 159 234 123 q 237 223 236 196 q 237 262 237 250 q 234 307 237 284 q 223 356 231 330 q 204 415 215 384 q 180 479 193 447 q 155 542 168 511 q 129 600 141 573 q 106 650 117 628 q 89 686 96 672 q 76 707 83 699 q 61 721 69 715 q 42 728 52 726 q 18 730 32 730 q -7 729 6 730 q -36 725 -21 727 l -40 755 q 45 775 12 768 q 100 782 79 782 q 134 774 122 782 q 156 747 147 765 z "},"Z":{"ha":613,"x_min":12,"x_max":592,"o":"m 68 597 q 71 663 70 634 q 75 711 72 691 q 82 745 77 732 q 94 767 86 759 q 113 779 101 775 q 142 782 125 782 q 171 781 153 782 q 218 779 190 780 q 283 776 246 778 q 369 775 321 775 q 418 775 395 775 q 467 776 442 775 q 519 778 491 777 q 582 783 547 780 l 591 768 q 543 695 569 735 q 488 610 517 655 q 428 515 459 565 q 367 416 398 466 q 305 315 336 365 q 246 216 274 264 q 191 123 217 168 q 142 41 164 79 q 261 52 211 50 q 347 54 311 54 q 385 53 368 54 q 417 52 402 53 q 443 50 431 51 q 468 50 456 50 q 504 56 488 50 q 532 77 520 62 q 551 119 544 93 q 563 185 559 145 l 592 183 q 585 85 592 123 q 565 24 578 46 q 534 -7 552 2 q 492 -16 515 -16 q 464 -14 478 -16 q 435 -10 450 -12 q 402 -4 420 -7 q 363 1 385 -1 q 314 5 341 3 q 253 7 287 7 q 206 6 231 7 q 153 3 181 5 q 92 -2 125 1 q 21 -10 59 -5 l 12 3 q 62 79 35 37 q 119 167 90 121 q 179 263 149 214 q 241 363 210 313 q 302 464 272 414 q 361 561 333 514 q 414 650 389 607 q 459 728 439 692 q 408 729 432 728 q 362 729 384 729 q 321 730 341 729 q 283 730 302 730 l 235 730 q 189 728 209 730 q 156 722 170 727 q 132 709 142 718 q 117 685 123 700 q 107 648 111 670 q 101 596 104 627 l 68 597 z "},"À":{"ha":688,"x_min":-22,"x_max":722,"o":"m 135 184 q 113 124 122 150 q 98 80 104 99 q 86 47 91 61 q 76 22 81 33 q 64 2 71 9 q 50 -8 57 -5 q 33 -12 42 -12 q 13 -13 23 -13 q -1 -12 7 -13 q -17 -12 -10 -12 l -22 -8 q 55 160 19 80 q 126 314 92 240 q 119 333 119 325 q 140 347 119 346 q 251 587 202 483 q 336 761 299 691 q 345 771 340 767 q 357 778 351 775 q 371 781 363 780 q 385 782 378 782 q 404 781 394 782 q 424 774 413 779 q 463 562 446 656 q 496 395 481 468 q 525 266 512 321 q 551 172 539 212 q 576 108 564 133 q 602 68 589 82 q 631 47 616 53 q 663 42 646 42 q 687 44 675 42 q 713 52 699 47 l 722 24 q 648 -5 683 5 q 585 -15 612 -15 q 555 -9 569 -15 q 529 10 542 -4 q 504 48 516 24 q 480 108 492 72 q 455 193 468 144 q 428 309 442 243 q 304 306 365 308 q 177 300 242 304 q 153 236 164 265 q 135 184 142 207 m 419 351 q 404 425 412 384 q 387 512 395 466 q 370 607 378 557 q 352 707 361 656 l 350 707 q 263 515 301 606 q 195 347 225 424 q 308 349 253 348 q 419 351 362 350 m 500 819 q 452 832 478 825 q 402 848 427 840 q 353 865 376 856 q 311 881 330 873 q 279 896 292 889 q 262 907 266 903 q 258 917 259 911 q 257 928 257 922 q 260 951 257 939 q 270 973 264 964 l 280 976 q 329 939 303 957 q 382 905 354 922 q 442 873 410 888 q 510 842 473 857 l 500 819 z "},"Á":{"ha":688,"x_min":-22,"x_max":722,"o":"m 135 184 q 113 124 122 150 q 98 80 104 99 q 86 47 91 61 q 76 22 81 33 q 64 2 71 9 q 50 -8 57 -5 q 33 -12 42 -12 q 13 -13 23 -13 q -1 -12 7 -13 q -17 -12 -10 -12 l -22 -8 q 55 160 19 80 q 126 314 92 240 q 119 333 119 325 q 140 347 119 346 q 251 587 202 483 q 336 761 299 691 q 345 771 340 767 q 357 778 351 775 q 371 781 363 780 q 385 782 378 782 q 404 781 394 782 q 424 774 413 779 q 463 562 446 656 q 496 395 481 468 q 525 266 512 321 q 551 172 539 212 q 576 108 564 133 q 602 68 589 82 q 631 47 616 53 q 663 42 646 42 q 687 44 675 42 q 713 52 699 47 l 722 24 q 648 -5 683 5 q 585 -15 612 -15 q 555 -9 569 -15 q 529 10 542 -4 q 504 48 516 24 q 480 108 492 72 q 455 193 468 144 q 428 309 442 243 q 304 306 365 308 q 177 300 242 304 q 153 236 164 265 q 135 184 142 207 m 419 351 q 404 425 412 384 q 387 512 395 466 q 370 607 378 557 q 352 707 361 656 l 350 707 q 263 515 301 606 q 195 347 225 424 q 308 349 253 348 q 419 351 362 350 m 275 842 q 401 903 343 870 q 504 976 459 937 l 513 973 q 523 954 519 965 q 527 931 527 942 q 524 914 527 922 q 514 901 521 907 q 494 890 508 897 q 462 877 481 884 q 422 861 444 869 q 376 846 399 853 q 329 831 352 838 q 283 819 305 824 l 275 842 z "},"Â":{"ha":688,"x_min":-22,"x_max":722,"o":"m 135 184 q 113 124 122 150 q 98 80 104 99 q 86 47 91 61 q 76 22 81 33 q 64 2 71 9 q 50 -8 57 -5 q 33 -12 42 -12 q 13 -13 23 -13 q -1 -12 7 -13 q -17 -12 -10 -12 l -22 -8 q 55 160 19 80 q 126 314 92 240 q 119 333 119 325 q 140 347 119 346 q 251 587 202 483 q 336 761 299 691 q 345 771 340 767 q 357 778 351 775 q 371 781 363 780 q 385 782 378 782 q 404 781 394 782 q 424 774 413 779 q 463 562 446 656 q 496 395 481 468 q 525 266 512 321 q 551 172 539 212 q 576 108 564 133 q 602 68 589 82 q 631 47 616 53 q 663 42 646 42 q 687 44 675 42 q 713 52 699 47 l 722 24 q 648 -5 683 5 q 585 -15 612 -15 q 555 -9 569 -15 q 529 10 542 -4 q 504 48 516 24 q 480 108 492 72 q 455 193 468 144 q 428 309 442 243 q 304 306 365 308 q 177 300 242 304 q 153 236 164 265 q 135 184 142 207 m 419 351 q 404 425 412 384 q 387 512 395 466 q 370 607 378 557 q 352 707 361 656 l 350 707 q 263 515 301 606 q 195 347 225 424 q 308 349 253 348 q 419 351 362 350 m 232 840 q 303 901 269 869 q 367 963 337 932 q 396 975 378 975 q 409 974 402 975 q 425 970 416 972 q 449 938 435 954 q 479 906 463 922 q 514 874 495 890 q 551 842 532 858 l 536 824 q 493 843 514 832 q 455 865 473 853 q 421 887 436 876 q 394 906 406 898 l 391 906 q 362 886 379 898 q 325 863 345 874 q 285 840 305 851 q 246 822 264 829 l 232 840 z "},"Ã":{"ha":688,"x_min":-22,"x_max":722,"o":"m 135 184 q 113 124 122 150 q 98 80 104 99 q 86 47 91 61 q 76 22 81 33 q 64 2 71 9 q 50 -8 57 -5 q 33 -12 42 -12 q 13 -13 23 -13 q -1 -12 7 -13 q -17 -12 -10 -12 l -22 -8 q 55 160 19 80 q 126 314 92 240 q 119 333 119 325 q 140 347 119 346 q 251 587 202 483 q 336 761 299 691 q 345 771 340 767 q 357 778 351 775 q 371 781 363 780 q 385 782 378 782 q 404 781 394 782 q 424 774 413 779 q 463 562 446 656 q 496 395 481 468 q 525 266 512 321 q 551 172 539 212 q 576 108 564 133 q 602 68 589 82 q 631 47 616 53 q 663 42 646 42 q 687 44 675 42 q 713 52 699 47 l 722 24 q 648 -5 683 5 q 585 -15 612 -15 q 555 -9 569 -15 q 529 10 542 -4 q 504 48 516 24 q 480 108 492 72 q 455 193 468 144 q 428 309 442 243 q 304 306 365 308 q 177 300 242 304 q 153 236 164 265 q 135 184 142 207 m 419 351 q 404 425 412 384 q 387 512 395 466 q 370 607 378 557 q 352 707 361 656 l 350 707 q 263 515 301 606 q 195 347 225 424 q 308 349 253 348 q 419 351 362 350 m 557 961 q 544 920 553 941 q 524 881 536 899 q 494 852 511 863 q 455 840 477 840 q 419 847 437 840 q 383 862 401 854 q 347 876 365 870 q 314 883 330 883 q 293 878 302 883 q 277 865 284 873 q 266 847 271 857 q 259 825 262 837 l 237 829 q 246 870 239 849 q 263 909 252 891 q 291 937 275 926 q 330 948 308 948 q 363 942 346 948 q 405 926 380 936 q 439 913 422 919 q 470 907 455 907 q 494 912 484 907 q 512 925 504 917 q 526 944 519 933 q 537 966 532 954 l 557 961 z "},"Ä":{"ha":688,"x_min":-22,"x_max":722,"o":"m 135 184 q 113 124 122 150 q 98 80 104 99 q 86 47 91 61 q 76 22 81 33 q 64 2 71 9 q 50 -8 57 -5 q 33 -12 42 -12 q 13 -13 23 -13 q -1 -12 7 -13 q -17 -12 -10 -12 l -22 -8 q 55 160 19 80 q 126 314 92 240 q 119 333 119 325 q 140 347 119 346 q 251 587 202 483 q 336 761 299 691 q 345 771 340 767 q 357 778 351 775 q 371 781 363 780 q 385 782 378 782 q 404 781 394 782 q 424 774 413 779 q 463 562 446 656 q 496 395 481 468 q 525 266 512 321 q 551 172 539 212 q 576 108 564 133 q 602 68 589 82 q 631 47 616 53 q 663 42 646 42 q 687 44 675 42 q 713 52 699 47 l 722 24 q 648 -5 683 5 q 585 -15 612 -15 q 555 -9 569 -15 q 529 10 542 -4 q 504 48 516 24 q 480 108 492 72 q 455 193 468 144 q 428 309 442 243 q 304 306 365 308 q 177 300 242 304 q 153 236 164 265 q 135 184 142 207 m 419 351 q 404 425 412 384 q 387 512 395 466 q 370 607 378 557 q 352 707 361 656 l 350 707 q 263 515 301 606 q 195 347 225 424 q 308 349 253 348 q 419 351 362 350 m 290 843 q 270 847 278 843 q 254 859 261 851 q 245 875 248 866 q 242 894 242 884 q 247 917 242 907 q 259 935 252 928 q 277 945 267 941 q 295 948 286 948 q 315 945 306 948 q 330 934 324 941 q 340 919 336 928 q 343 901 343 910 q 339 880 343 890 q 328 861 335 870 q 311 848 321 853 q 290 843 301 843 m 488 843 q 468 847 477 843 q 453 859 459 851 q 444 875 447 866 q 440 894 440 884 q 445 917 440 907 q 458 935 450 928 q 475 945 465 941 q 493 948 484 948 q 513 945 505 948 q 528 934 522 941 q 538 919 535 928 q 542 901 542 910 q 538 880 542 890 q 527 861 534 870 q 510 848 520 853 q 488 843 500 843 z "},"Ā":{"ha":688,"x_min":-22,"x_max":722,"o":"m 135 184 q 113 124 122 150 q 98 80 104 99 q 86 47 91 61 q 76 22 81 33 q 64 2 71 9 q 50 -8 57 -5 q 33 -12 42 -12 q 13 -13 23 -13 q -1 -12 7 -13 q -17 -12 -10 -12 l -22 -8 q 55 160 19 80 q 126 314 92 240 q 119 333 119 325 q 140 347 119 346 q 251 587 202 483 q 336 761 299 691 q 345 771 340 767 q 357 778 351 775 q 371 781 363 780 q 385 782 378 782 q 404 781 394 782 q 424 774 413 779 q 463 562 446 656 q 496 395 481 468 q 525 266 512 321 q 551 172 539 212 q 576 108 564 133 q 602 68 589 82 q 631 47 616 53 q 663 42 646 42 q 687 44 675 42 q 713 52 699 47 l 722 24 q 648 -5 683 5 q 585 -15 612 -15 q 555 -9 569 -15 q 529 10 542 -4 q 504 48 516 24 q 480 108 492 72 q 455 193 468 144 q 428 309 442 243 q 304 306 365 308 q 177 300 242 304 q 153 236 164 265 q 135 184 142 207 m 419 351 q 404 425 412 384 q 387 512 395 466 q 370 607 378 557 q 352 707 361 656 l 350 707 q 263 515 301 606 q 195 347 225 424 q 308 349 253 348 q 419 351 362 350 m 535 911 q 539 897 538 903 q 541 885 541 891 q 537 870 541 876 q 527 862 534 865 q 509 858 520 859 q 483 857 498 857 q 455 857 471 857 q 419 858 439 858 q 377 858 399 858 q 331 859 354 859 q 286 857 308 859 q 241 849 264 856 q 249 879 241 868 q 271 897 257 891 q 305 905 285 903 q 348 907 325 907 q 374 907 359 907 q 403 907 388 907 l 433 906 l 462 906 q 501 907 482 906 q 535 911 519 908 z "},"Ă":{"ha":688,"x_min":-22,"x_max":722,"o":"m 135 184 q 113 124 122 150 q 98 80 104 99 q 86 47 91 61 q 76 22 81 33 q 64 2 71 9 q 50 -8 57 -5 q 33 -12 42 -12 q 13 -13 23 -13 q -1 -12 7 -13 q -17 -12 -10 -12 l -22 -8 q 55 160 19 80 q 126 314 92 240 q 119 333 119 325 q 140 347 119 346 q 251 587 202 483 q 336 761 299 691 q 345 771 340 767 q 357 778 351 775 q 371 781 363 780 q 385 782 378 782 q 404 781 394 782 q 424 774 413 779 q 463 562 446 656 q 496 395 481 468 q 525 266 512 321 q 551 172 539 212 q 576 108 564 133 q 602 68 589 82 q 631 47 616 53 q 663 42 646 42 q 687 44 675 42 q 713 52 699 47 l 722 24 q 648 -5 683 5 q 585 -15 612 -15 q 555 -9 569 -15 q 529 10 542 -4 q 504 48 516 24 q 480 108 492 72 q 455 193 468 144 q 428 309 442 243 q 304 306 365 308 q 177 300 242 304 q 153 236 164 265 q 135 184 142 207 m 419 351 q 404 425 412 384 q 387 512 395 466 q 370 607 378 557 q 352 707 361 656 l 350 707 q 263 515 301 606 q 195 347 225 424 q 308 349 253 348 q 419 351 362 350 m 544 966 q 522 910 536 936 q 489 867 509 885 q 445 838 470 848 q 388 828 419 828 q 329 838 355 828 q 285 865 303 849 q 257 901 267 882 q 248 938 248 920 q 257 962 248 952 q 281 971 266 971 q 292 970 287 971 q 305 966 298 969 q 338 900 314 923 q 404 878 362 878 q 446 885 428 878 q 478 905 464 892 q 502 936 492 918 q 520 973 512 953 l 544 966 z "},"Å":{"ha":688,"x_min":-22,"x_max":722,"o":"m 135 184 q 113 124 122 150 q 98 80 104 99 q 86 47 91 61 q 76 22 81 33 q 64 2 71 9 q 50 -8 57 -5 q 33 -12 42 -12 q 13 -13 23 -13 q -1 -12 7 -13 q -17 -12 -10 -12 l -22 -8 q 55 160 19 80 q 126 314 92 240 q 119 333 119 325 q 140 347 119 346 q 251 587 202 483 q 336 761 299 691 q 345 771 340 767 q 357 778 351 775 q 371 781 363 780 q 385 782 378 782 q 404 781 394 782 q 424 774 413 779 q 463 562 446 656 q 496 395 481 468 q 525 266 512 321 q 551 172 539 212 q 576 108 564 133 q 602 68 589 82 q 631 47 616 53 q 663 42 646 42 q 687 44 675 42 q 713 52 699 47 l 722 24 q 648 -5 683 5 q 585 -15 612 -15 q 555 -9 569 -15 q 529 10 542 -4 q 504 48 516 24 q 480 108 492 72 q 455 193 468 144 q 428 309 442 243 q 304 306 365 308 q 177 300 242 304 q 153 236 164 265 q 135 184 142 207 m 419 351 q 404 425 412 384 q 387 512 395 466 q 370 607 378 557 q 352 707 361 656 l 350 707 q 263 515 301 606 q 195 347 225 424 q 308 349 253 348 q 419 351 362 350 m 397 983 q 439 977 421 983 q 468 960 457 970 q 485 936 480 949 q 491 908 491 923 q 484 876 491 892 q 464 846 477 859 q 430 825 450 833 q 386 817 411 817 q 347 824 363 817 q 320 841 331 830 q 304 865 310 851 q 299 893 299 879 q 305 926 299 910 q 324 955 312 942 q 355 975 336 967 q 397 983 373 983 m 390 964 q 364 958 375 964 q 346 942 353 952 q 335 920 338 933 q 331 896 331 908 q 334 874 331 884 q 344 855 337 863 q 361 842 351 847 q 385 837 371 837 q 409 843 398 837 q 426 858 419 848 q 437 879 433 867 q 440 904 440 891 q 437 926 440 915 q 428 945 434 937 q 412 959 421 954 q 390 964 402 964 z "},"Ǻ":{"ha":688,"x_min":-22,"x_max":722,"o":"m 135 184 q 113 124 122 150 q 98 80 104 99 q 86 47 91 61 q 76 22 81 33 q 64 2 71 9 q 50 -8 57 -5 q 33 -12 42 -12 q 13 -13 23 -13 q -1 -12 7 -13 q -17 -12 -10 -12 l -22 -8 q 55 160 19 80 q 126 314 92 240 q 119 333 119 325 q 140 347 119 346 q 251 587 202 483 q 336 761 299 691 q 345 771 340 767 q 357 778 351 775 q 371 781 363 780 q 385 782 378 782 q 404 781 394 782 q 424 774 413 779 q 463 562 446 656 q 496 395 481 468 q 525 266 512 321 q 551 172 539 212 q 576 108 564 133 q 602 68 589 82 q 631 47 616 53 q 663 42 646 42 q 687 44 675 42 q 713 52 699 47 l 722 24 q 648 -5 683 5 q 585 -15 612 -15 q 555 -9 569 -15 q 529 10 542 -4 q 504 48 516 24 q 480 108 492 72 q 455 193 468 144 q 428 309 442 243 q 304 306 365 308 q 177 300 242 304 q 153 236 164 265 q 135 184 142 207 m 419 351 q 404 425 412 384 q 387 512 395 466 q 370 607 378 557 q 352 707 361 656 l 350 707 q 263 515 301 606 q 195 347 225 424 q 308 349 253 348 q 419 351 362 350 m 397 981 q 439 975 421 981 q 468 958 456 968 q 485 934 479 947 q 491 906 491 921 q 484 873 491 890 q 463 844 477 857 q 430 823 450 831 q 386 815 411 815 q 347 822 363 815 q 320 839 331 828 q 304 863 309 849 q 299 891 299 877 q 305 924 299 908 q 324 953 311 940 q 354 973 336 965 q 397 981 373 981 m 389 962 q 364 956 375 962 q 346 940 353 950 q 334 918 338 931 q 330 893 330 906 q 333 872 330 882 q 343 853 337 861 q 360 840 350 845 q 384 835 370 835 q 409 841 398 835 q 426 856 419 846 q 437 877 433 865 q 440 902 440 889 q 437 924 440 913 q 427 943 434 935 q 411 957 421 952 q 389 962 402 962 m 280 1008 q 407 1069 349 1036 q 510 1142 465 1103 l 519 1139 q 528 1120 524 1132 q 532 1097 532 1108 q 529 1080 532 1088 q 519 1067 526 1073 q 500 1056 513 1063 q 468 1043 486 1050 q 427 1028 449 1036 q 381 1012 405 1020 q 334 997 358 1004 q 289 985 310 990 l 280 1008 z "},"Ą":{"ha":688,"x_min":-22,"x_max":722,"o":"m 722 24 q 661 -1 690 8 q 605 -15 633 -9 q 558 -36 579 -21 q 522 -72 537 -52 q 499 -115 507 -92 q 491 -158 491 -138 q 495 -185 491 -173 q 506 -206 498 -197 q 524 -220 513 -215 q 549 -225 535 -225 q 599 -210 573 -225 q 647 -165 625 -195 l 664 -179 q 628 -227 647 -207 q 589 -261 609 -247 q 549 -280 569 -274 q 511 -287 529 -287 q 473 -280 491 -287 q 442 -261 455 -273 q 422 -230 429 -248 q 414 -190 414 -212 q 422 -146 414 -169 q 446 -100 429 -123 q 489 -53 462 -77 q 553 -9 515 -30 l 553 -8 q 521 20 536 0 q 491 77 506 40 q 461 171 476 114 q 428 309 445 228 q 304 306 365 308 q 177 300 242 304 q 153 236 164 265 q 135 184 142 207 q 113 124 122 150 q 98 80 104 99 q 86 47 91 61 q 76 22 81 33 q 64 2 71 9 q 50 -8 57 -5 q 33 -12 42 -12 q 13 -13 23 -13 q -1 -12 7 -13 q -17 -12 -10 -12 l -22 -8 q 55 160 19 80 q 126 314 92 240 q 119 333 119 325 q 140 347 119 346 q 251 587 202 483 q 336 761 299 691 q 345 771 340 767 q 357 778 351 775 q 371 781 363 780 q 385 782 378 782 q 404 781 394 782 q 424 774 413 779 q 463 562 446 656 q 496 395 481 468 q 525 266 512 321 q 551 172 539 212 q 576 108 564 133 q 602 68 589 82 q 631 47 616 53 q 663 42 646 42 q 687 44 675 42 q 713 52 699 47 l 722 24 m 419 351 q 404 425 412 384 q 387 512 395 466 q 370 607 378 557 q 352 707 361 656 l 350 707 q 263 515 301 606 q 195 347 225 424 q 308 349 253 348 q 419 351 362 350 z "},"Æ":{"ha":878,"x_min":-55,"x_max":854,"o":"m 515 728 q 513 662 514 701 q 511 579 512 624 q 509 486 510 534 q 506 392 508 438 q 558 394 533 393 q 605 396 583 395 q 644 397 626 396 q 676 397 663 397 q 733 390 714 397 q 751 364 751 384 q 746 337 751 352 q 663 344 711 342 q 557 346 615 346 l 535 346 q 522 345 529 346 q 505 345 515 345 q 502 263 504 304 q 498 183 500 222 q 492 109 495 144 q 486 44 489 74 q 549 51 518 49 q 604 54 579 54 q 669 52 638 54 q 729 50 700 50 q 765 55 750 50 q 792 75 781 61 q 811 114 804 90 q 823 176 819 139 l 854 175 q 846 81 853 118 q 826 22 839 44 q 795 -7 813 1 q 753 -16 777 -16 q 714 -12 735 -16 q 666 -5 692 -9 q 611 3 641 0 q 546 6 581 6 q 479 3 515 6 q 405 -11 443 -1 l 398 -10 q 408 72 404 28 q 414 163 411 116 q 418 255 416 209 q 421 344 420 301 q 360 342 390 343 q 302 340 330 341 q 251 337 275 339 q 208 335 227 336 q 169 258 188 296 q 131 183 150 221 q 93 105 113 144 q 53 22 74 65 q 39 2 47 9 q 23 -8 32 -5 q 4 -12 14 -12 q -17 -13 -5 -13 q -32 -12 -23 -13 q -50 -12 -42 -12 l -55 -8 q 4 90 -24 43 q 58 181 32 137 q 107 264 83 224 q 154 342 131 304 q 150 353 152 349 q 149 362 149 358 q 156 373 149 371 q 175 376 163 376 q 227 464 201 420 q 282 552 254 507 q 341 647 310 598 q 407 751 372 696 q 419 764 413 759 q 431 771 425 768 q 444 774 437 773 q 457 775 450 775 q 592 776 533 775 q 692 778 650 777 q 758 779 734 779 q 787 780 781 780 q 811 773 802 780 q 819 750 819 766 q 818 727 819 744 q 815 686 817 709 q 810 638 813 663 q 805 590 808 612 l 773 591 q 774 615 773 604 q 774 636 774 627 q 771 683 774 665 q 758 711 767 701 q 734 725 749 721 q 694 729 718 728 q 637 729 662 729 q 589 729 612 729 l 572 729 q 546 729 559 729 q 515 728 533 729 m 424 708 q 364 613 392 657 q 313 527 337 568 q 269 450 290 487 q 231 378 249 413 q 323 383 275 381 q 422 388 372 386 q 425 549 425 470 q 427 708 426 628 l 424 708 z "},"Ǽ":{"ha":878,"x_min":-55,"x_max":854,"o":"m 515 728 q 513 662 514 701 q 511 579 512 624 q 509 486 510 534 q 506 392 508 438 q 558 394 533 393 q 605 396 583 395 q 644 397 626 396 q 676 397 663 397 q 733 390 714 397 q 751 364 751 384 q 746 337 751 352 q 663 344 711 342 q 557 346 615 346 l 535 346 q 522 345 529 346 q 505 345 515 345 q 502 263 504 304 q 498 183 500 222 q 492 109 495 144 q 486 44 489 74 q 549 51 518 49 q 604 54 579 54 q 669 52 638 54 q 729 50 700 50 q 765 55 750 50 q 792 75 781 61 q 811 114 804 90 q 823 176 819 139 l 854 175 q 846 81 853 118 q 826 22 839 44 q 795 -7 813 1 q 753 -16 777 -16 q 714 -12 735 -16 q 666 -5 692 -9 q 611 3 641 0 q 546 6 581 6 q 479 3 515 6 q 405 -11 443 -1 l 398 -10 q 408 72 404 28 q 414 163 411 116 q 418 255 416 209 q 421 344 420 301 q 360 342 390 343 q 302 340 330 341 q 251 337 275 339 q 208 335 227 336 q 169 258 188 296 q 131 183 150 221 q 93 105 113 144 q 53 22 74 65 q 39 2 47 9 q 23 -8 32 -5 q 4 -12 14 -12 q -17 -13 -5 -13 q -32 -12 -23 -13 q -50 -12 -42 -12 l -55 -8 q 4 90 -24 43 q 58 181 32 137 q 107 264 83 224 q 154 342 131 304 q 150 353 152 349 q 149 362 149 358 q 156 373 149 371 q 175 376 163 376 q 227 464 201 420 q 282 552 254 507 q 341 647 310 598 q 407 751 372 696 q 419 764 413 759 q 431 771 425 768 q 444 774 437 773 q 457 775 450 775 q 592 776 533 775 q 692 778 650 777 q 758 779 734 779 q 787 780 781 780 q 811 773 802 780 q 819 750 819 766 q 818 727 819 744 q 815 686 817 709 q 810 638 813 663 q 805 590 808 612 l 773 591 q 774 615 773 604 q 774 636 774 627 q 771 683 774 665 q 758 711 767 701 q 734 725 749 721 q 694 729 718 728 q 637 729 662 729 q 589 729 612 729 l 572 729 q 546 729 559 729 q 515 728 533 729 m 424 708 q 364 613 392 657 q 313 527 337 568 q 269 450 290 487 q 231 378 249 413 q 323 383 275 381 q 422 388 372 386 q 425 549 425 470 q 427 708 426 628 l 424 708 m 477 842 q 604 903 546 870 q 706 976 662 937 l 715 973 q 725 954 721 965 q 729 931 729 942 q 726 914 729 922 q 716 901 723 907 q 696 890 710 897 q 664 877 683 884 q 624 861 646 869 q 578 846 602 853 q 531 831 554 838 q 486 819 507 824 l 477 842 z "},"Ć":{"ha":672,"x_min":44,"x_max":641,"o":"m 429 798 q 511 789 473 798 q 576 769 549 781 q 620 744 604 758 q 635 719 635 730 q 633 659 635 696 q 629 568 632 621 l 600 569 q 600 578 600 574 q 600 587 600 583 q 595 632 600 611 q 577 672 590 653 q 545 707 564 692 q 504 732 526 722 q 456 747 481 742 q 404 752 430 752 q 321 738 358 752 q 255 699 284 724 q 204 640 226 674 q 169 566 183 606 q 148 482 155 526 q 141 393 141 438 q 150 293 141 340 q 175 206 158 245 q 214 135 191 166 q 266 81 237 103 q 328 48 294 59 q 398 36 361 36 q 451 42 424 36 q 507 60 478 47 q 563 90 535 72 q 621 134 592 109 q 627 131 623 133 q 633 126 630 129 q 639 121 636 124 q 641 115 641 118 q 638 109 641 113 q 571 47 605 72 q 503 7 537 23 q 434 -14 469 -8 q 365 -21 399 -21 q 277 -8 319 -21 q 200 28 236 4 q 136 86 164 52 q 86 161 107 119 q 55 253 66 203 q 44 357 44 302 q 55 463 44 410 q 87 566 65 517 q 140 657 108 614 q 215 731 172 699 q 311 780 257 762 q 429 798 365 798 m 316 842 q 443 903 385 870 q 545 976 500 937 l 554 973 q 564 954 560 965 q 568 931 568 942 q 565 914 568 922 q 555 901 562 907 q 535 890 549 897 q 503 877 522 884 q 463 861 485 869 q 417 846 440 853 q 370 831 393 838 q 325 819 346 824 l 316 842 z "},"Ĉ":{"ha":672,"x_min":44,"x_max":641,"o":"m 429 798 q 511 789 473 798 q 576 769 549 781 q 620 744 604 758 q 635 719 635 730 q 633 659 635 696 q 629 568 632 621 l 600 569 q 600 578 600 574 q 600 587 600 583 q 595 632 600 611 q 577 672 590 653 q 545 707 564 692 q 504 732 526 722 q 456 747 481 742 q 404 752 430 752 q 321 738 358 752 q 255 699 284 724 q 204 640 226 674 q 169 566 183 606 q 148 482 155 526 q 141 393 141 438 q 150 293 141 340 q 175 206 158 245 q 214 135 191 166 q 266 81 237 103 q 328 48 294 59 q 398 36 361 36 q 451 42 424 36 q 507 60 478 47 q 563 90 535 72 q 621 134 592 109 q 627 131 623 133 q 633 126 630 129 q 639 121 636 124 q 641 115 641 118 q 638 109 641 113 q 571 47 605 72 q 503 7 537 23 q 434 -14 469 -8 q 365 -21 399 -21 q 277 -8 319 -21 q 200 28 236 4 q 136 86 164 52 q 86 161 107 119 q 55 253 66 203 q 44 357 44 302 q 55 463 44 410 q 87 566 65 517 q 140 657 108 614 q 215 731 172 699 q 311 780 257 762 q 429 798 365 798 m 273 840 q 344 901 310 869 q 408 963 378 932 q 437 975 419 975 q 450 974 444 975 q 466 970 457 972 q 490 938 476 954 q 520 906 504 922 q 555 874 536 890 q 592 842 573 858 l 577 824 q 534 843 555 832 q 496 865 514 853 q 462 887 477 876 q 435 906 447 898 l 432 906 q 403 886 420 898 q 366 863 386 874 q 326 840 346 851 q 287 822 305 829 l 273 840 z "},"Č":{"ha":672,"x_min":44,"x_max":641,"o":"m 429 798 q 511 789 473 798 q 576 769 549 781 q 620 744 604 758 q 635 719 635 730 q 633 659 635 696 q 629 568 632 621 l 600 569 q 600 578 600 574 q 600 587 600 583 q 595 632 600 611 q 577 672 590 653 q 545 707 564 692 q 504 732 526 722 q 456 747 481 742 q 404 752 430 752 q 321 738 358 752 q 255 699 284 724 q 204 640 226 674 q 169 566 183 606 q 148 482 155 526 q 141 393 141 438 q 150 293 141 340 q 175 206 158 245 q 214 135 191 166 q 266 81 237 103 q 328 48 294 59 q 398 36 361 36 q 451 42 424 36 q 507 60 478 47 q 563 90 535 72 q 621 134 592 109 q 627 131 623 133 q 633 126 630 129 q 639 121 636 124 q 641 115 641 118 q 638 109 641 113 q 571 47 605 72 q 503 7 537 23 q 434 -14 469 -8 q 365 -21 399 -21 q 277 -8 319 -21 q 200 28 236 4 q 136 86 164 52 q 86 161 107 119 q 55 253 66 203 q 44 357 44 302 q 55 463 44 410 q 87 566 65 517 q 140 657 108 614 q 215 731 172 699 q 311 780 257 762 q 429 798 365 798 m 593 956 q 521 896 556 927 q 457 831 486 864 l 405 826 l 400 826 q 376 858 390 842 q 346 891 362 875 q 311 924 330 908 q 274 956 293 940 l 289 975 q 331 955 311 966 q 370 933 352 944 q 404 911 388 922 q 431 891 419 900 l 435 891 q 463 910 447 900 q 497 932 478 921 q 537 954 516 943 q 579 975 558 965 l 593 956 z "},"Ċ":{"ha":672,"x_min":44,"x_max":641,"o":"m 429 798 q 511 789 473 798 q 576 769 549 781 q 620 744 604 758 q 635 719 635 730 q 633 659 635 696 q 629 568 632 621 l 600 569 q 600 578 600 574 q 600 587 600 583 q 595 632 600 611 q 577 672 590 653 q 545 707 564 692 q 504 732 526 722 q 456 747 481 742 q 404 752 430 752 q 321 738 358 752 q 255 699 284 724 q 204 640 226 674 q 169 566 183 606 q 148 482 155 526 q 141 393 141 438 q 150 293 141 340 q 175 206 158 245 q 214 135 191 166 q 266 81 237 103 q 328 48 294 59 q 398 36 361 36 q 451 42 424 36 q 507 60 478 47 q 563 90 535 72 q 621 134 592 109 q 627 131 623 133 q 633 126 630 129 q 639 121 636 124 q 641 115 641 118 q 638 109 641 113 q 571 47 605 72 q 503 7 537 23 q 434 -14 469 -8 q 365 -21 399 -21 q 277 -8 319 -21 q 200 28 236 4 q 136 86 164 52 q 86 161 107 119 q 55 253 66 203 q 44 357 44 302 q 55 463 44 410 q 87 566 65 517 q 140 657 108 614 q 215 731 172 699 q 311 780 257 762 q 429 798 365 798 m 431 842 q 410 847 419 842 q 395 858 401 851 q 385 875 389 866 q 382 894 382 884 q 387 918 382 908 q 400 936 392 928 q 417 946 408 943 q 436 950 427 950 q 456 946 447 950 q 472 935 466 942 q 482 920 478 929 q 485 901 485 911 q 481 880 485 891 q 470 861 477 870 q 453 848 463 853 q 431 842 443 842 z "},"Ç":{"ha":672,"x_min":44,"x_max":641,"o":"m 429 798 q 511 789 473 798 q 576 769 549 781 q 620 744 604 758 q 635 719 635 730 q 633 659 635 696 q 629 568 632 621 l 600 569 q 600 578 600 574 q 600 587 600 583 q 595 632 600 611 q 577 672 590 653 q 545 707 564 692 q 504 732 526 722 q 456 747 481 742 q 404 752 430 752 q 321 738 358 752 q 255 700 284 724 q 204 641 226 675 q 169 567 183 607 q 148 483 155 527 q 141 395 141 439 q 150 295 141 342 q 175 208 158 248 q 214 137 191 169 q 266 84 237 106 q 328 51 294 63 q 398 40 361 40 q 451 45 424 40 q 507 63 478 51 q 563 93 535 75 q 621 138 592 112 q 627 134 623 136 q 633 130 630 132 q 639 124 636 127 q 641 118 641 121 q 638 112 641 116 q 573 52 606 77 q 507 13 540 28 q 440 -10 473 -3 q 373 -18 406 -17 q 355 -44 359 -34 q 350 -61 350 -54 q 356 -74 350 -68 q 371 -88 361 -81 q 390 -102 380 -95 q 410 -117 400 -109 q 425 -135 419 -125 q 431 -156 431 -144 q 426 -180 431 -166 q 408 -213 421 -194 q 371 -257 394 -232 q 312 -315 348 -282 l 295 -300 q 329 -262 316 -278 q 349 -232 341 -245 q 358 -210 356 -219 q 360 -193 360 -200 q 355 -176 360 -184 q 341 -162 350 -169 q 323 -149 333 -155 q 305 -136 314 -142 q 292 -122 297 -129 q 286 -105 286 -114 q 289 -90 286 -98 q 298 -72 292 -82 q 315 -47 304 -61 q 341 -17 326 -34 q 260 1 298 -14 q 188 40 221 15 q 128 97 155 64 q 83 171 102 131 q 54 259 64 212 q 44 359 44 307 q 55 465 44 412 q 87 567 65 518 q 140 657 108 615 q 215 731 172 700 q 311 780 257 762 q 429 798 365 798 z "},"Ď":{"ha":754,"x_min":11,"x_max":710,"o":"m 215 741 q 214 691 215 724 q 212 613 213 657 q 210 515 211 568 q 207 407 208 463 q 203 298 205 352 q 199 195 201 243 q 194 107 197 146 q 190 42 192 67 q 252 31 224 34 q 308 28 280 28 q 410 42 365 28 q 489 82 455 56 q 547 143 523 107 q 586 220 571 178 q 608 310 601 262 q 615 407 615 357 q 598 544 615 481 q 545 650 582 606 q 448 720 508 695 q 302 745 388 745 q 259 744 281 745 q 215 741 237 743 m 11 752 q 84 765 46 759 q 161 777 122 772 q 239 784 200 781 q 315 787 277 787 q 418 780 368 787 q 512 758 468 774 q 592 716 555 742 q 655 651 629 690 q 696 558 681 611 q 710 434 710 504 q 698 313 710 371 q 661 205 685 255 q 602 115 637 156 q 523 45 568 74 q 425 1 478 16 q 309 -15 371 -15 q 244 -11 277 -15 q 176 3 212 -6 l 109 -5 l 103 -5 q 108 53 105 17 q 113 136 111 89 q 118 242 116 183 q 122 367 120 300 q 125 508 124 434 q 126 662 126 582 q 125 691 126 679 q 118 711 123 703 q 101 723 112 719 q 71 727 90 727 q 14 722 49 727 l 11 752 m 516 956 q 444 896 479 927 q 380 831 409 864 l 328 826 l 323 826 q 299 858 313 842 q 269 891 285 875 q 234 924 253 908 q 197 956 216 940 l 212 975 q 254 955 234 966 q 293 933 275 944 q 327 911 311 922 q 354 891 342 900 l 358 891 q 386 910 370 900 q 420 932 401 921 q 460 954 439 943 q 502 975 481 965 l 516 956 z "},"Đ":{"ha":754,"x_min":7,"x_max":710,"o":"m 11 752 q 84 765 46 759 q 161 777 122 772 q 239 784 200 781 q 315 787 277 787 q 418 780 368 787 q 512 758 468 774 q 592 716 555 742 q 655 651 629 690 q 696 558 681 611 q 710 434 710 504 q 698 313 710 371 q 661 205 685 255 q 602 115 637 156 q 523 45 568 74 q 425 1 478 16 q 309 -15 371 -15 q 244 -11 277 -15 q 176 3 212 -6 l 109 -5 l 103 -5 q 108 53 105 17 q 113 138 111 90 q 118 245 116 186 q 122 372 121 304 q 57 369 87 372 q 8 359 28 366 q 7 367 7 363 q 35 398 7 385 q 123 415 63 410 q 125 534 125 473 q 126 662 126 596 q 125 691 126 679 q 118 711 123 703 q 101 723 112 719 q 71 727 90 727 q 14 722 49 727 l 11 752 m 215 741 q 214 692 215 725 q 212 616 213 659 q 210 521 211 572 q 207 416 209 470 q 250 415 227 415 q 293 413 272 414 q 330 412 314 413 q 355 412 347 412 q 392 413 375 412 q 421 417 409 415 q 425 404 424 410 q 426 394 426 398 q 409 370 426 375 q 355 364 391 364 q 328 365 345 364 q 291 368 312 366 q 249 370 271 369 q 205 372 226 372 q 202 272 203 321 q 198 180 200 223 q 194 101 196 136 q 190 42 192 65 q 252 31 224 34 q 308 28 280 28 q 410 42 365 28 q 489 82 455 56 q 547 143 523 107 q 586 220 571 178 q 608 310 601 262 q 615 407 615 357 q 598 544 615 481 q 545 650 582 606 q 448 720 508 695 q 302 745 388 745 q 259 744 281 745 q 215 741 237 743 z "},"È":{"ha":584,"x_min":13,"x_max":560,"o":"m 126 674 q 124 698 126 688 q 116 715 122 708 q 99 724 110 721 q 72 727 89 727 q 48 725 61 727 q 17 722 34 724 l 13 754 q 75 763 46 759 q 128 770 103 767 q 175 774 153 772 q 216 775 197 775 q 318 776 270 775 q 403 778 366 777 q 464 779 440 779 q 493 780 488 780 q 517 773 509 780 q 525 750 525 766 q 524 727 525 744 q 521 686 523 709 q 517 638 519 663 q 512 590 514 612 l 479 591 q 480 615 480 604 q 480 636 480 627 q 477 683 480 665 q 465 711 474 701 q 440 725 456 721 q 400 729 425 728 q 341 729 367 729 q 293 729 316 729 l 275 729 q 248 729 262 729 q 216 728 235 729 q 214 665 215 700 q 213 591 214 631 q 210 507 212 551 q 208 416 209 463 q 286 414 252 414 q 348 413 319 413 q 410 415 383 413 q 461 422 437 417 q 467 395 467 407 q 460 378 467 385 q 443 367 454 372 q 416 361 432 363 q 380 359 400 359 q 301 363 346 359 q 207 373 257 367 q 205 326 206 353 q 202 267 204 298 q 199 203 201 236 q 195 140 197 170 q 191 85 194 110 q 187 44 189 60 q 251 51 220 49 q 308 54 282 54 q 374 52 343 54 q 436 50 405 50 q 471 55 456 50 q 498 75 487 61 q 518 114 510 90 q 530 176 525 139 l 560 175 q 552 81 559 118 q 532 22 545 44 q 501 -7 519 1 q 460 -16 483 -16 q 419 -12 441 -16 q 371 -5 397 -9 q 315 3 345 0 q 250 6 284 6 q 182 3 219 6 q 105 -11 144 -1 l 99 -10 q 108 72 104 24 q 115 178 112 120 q 120 298 118 235 q 124 426 122 361 q 126 554 125 491 q 126 674 126 617 m 432 819 q 384 832 409 825 q 333 848 358 840 q 284 865 308 856 q 242 881 261 873 q 210 896 223 889 q 194 907 197 903 q 189 917 191 911 q 188 928 188 922 q 192 951 188 939 q 201 973 195 964 l 211 976 q 260 939 235 957 q 313 905 285 922 q 373 873 341 888 q 441 842 405 857 l 432 819 z "},"É":{"ha":584,"x_min":13,"x_max":560,"o":"m 126 674 q 124 698 126 688 q 116 715 122 708 q 99 724 110 721 q 72 727 89 727 q 48 725 61 727 q 17 722 34 724 l 13 754 q 75 763 46 759 q 128 770 103 767 q 175 774 153 772 q 216 775 197 775 q 318 776 270 775 q 403 778 366 777 q 464 779 440 779 q 493 780 488 780 q 517 773 509 780 q 525 750 525 766 q 524 727 525 744 q 521 686 523 709 q 517 638 519 663 q 512 590 514 612 l 479 591 q 480 615 480 604 q 480 636 480 627 q 477 683 480 665 q 465 711 474 701 q 440 725 456 721 q 400 729 425 728 q 341 729 367 729 q 293 729 316 729 l 275 729 q 248 729 262 729 q 216 728 235 729 q 214 665 215 700 q 213 591 214 631 q 210 507 212 551 q 208 416 209 463 q 286 414 252 414 q 348 413 319 413 q 410 415 383 413 q 461 422 437 417 q 467 395 467 407 q 460 378 467 385 q 443 367 454 372 q 416 361 432 363 q 380 359 400 359 q 301 363 346 359 q 207 373 257 367 q 205 326 206 353 q 202 267 204 298 q 199 203 201 236 q 195 140 197 170 q 191 85 194 110 q 187 44 189 60 q 251 51 220 49 q 308 54 282 54 q 374 52 343 54 q 436 50 405 50 q 471 55 456 50 q 498 75 487 61 q 518 114 510 90 q 530 176 525 139 l 560 175 q 552 81 559 118 q 532 22 545 44 q 501 -7 519 1 q 460 -16 483 -16 q 419 -12 441 -16 q 371 -5 397 -9 q 315 3 345 0 q 250 6 284 6 q 182 3 219 6 q 105 -11 144 -1 l 99 -10 q 108 72 104 24 q 115 178 112 120 q 120 298 118 235 q 124 426 122 361 q 126 554 125 491 q 126 674 126 617 m 206 842 q 333 903 275 870 q 435 976 391 937 l 445 973 q 454 954 450 965 q 458 931 458 942 q 455 914 458 922 q 445 901 452 907 q 425 890 439 897 q 394 877 412 884 q 353 861 375 869 q 307 846 331 853 q 260 831 283 838 q 215 819 236 824 l 206 842 z "},"Ê":{"ha":584,"x_min":13,"x_max":560,"o":"m 126 674 q 124 698 126 688 q 116 715 122 708 q 99 724 110 721 q 72 727 89 727 q 48 725 61 727 q 17 722 34 724 l 13 754 q 75 763 46 759 q 128 770 103 767 q 175 774 153 772 q 216 775 197 775 q 318 776 270 775 q 403 778 366 777 q 464 779 440 779 q 493 780 488 780 q 517 773 509 780 q 525 750 525 766 q 524 727 525 744 q 521 686 523 709 q 517 638 519 663 q 512 590 514 612 l 479 591 q 480 615 480 604 q 480 636 480 627 q 477 683 480 665 q 465 711 474 701 q 440 725 456 721 q 400 729 425 728 q 341 729 367 729 q 293 729 316 729 l 275 729 q 248 729 262 729 q 216 728 235 729 q 214 665 215 700 q 213 591 214 631 q 210 507 212 551 q 208 416 209 463 q 286 414 252 414 q 348 413 319 413 q 410 415 383 413 q 461 422 437 417 q 467 395 467 407 q 460 378 467 385 q 443 367 454 372 q 416 361 432 363 q 380 359 400 359 q 301 363 346 359 q 207 373 257 367 q 205 326 206 353 q 202 267 204 298 q 199 203 201 236 q 195 140 197 170 q 191 85 194 110 q 187 44 189 60 q 251 51 220 49 q 308 54 282 54 q 374 52 343 54 q 436 50 405 50 q 471 55 456 50 q 498 75 487 61 q 518 114 510 90 q 530 176 525 139 l 560 175 q 552 81 559 118 q 532 22 545 44 q 501 -7 519 1 q 460 -16 483 -16 q 419 -12 441 -16 q 371 -5 397 -9 q 315 3 345 0 q 250 6 284 6 q 182 3 219 6 q 105 -11 144 -1 l 99 -10 q 108 72 104 24 q 115 178 112 120 q 120 298 118 235 q 124 426 122 361 q 126 554 125 491 q 126 674 126 617 m 163 840 q 234 901 200 869 q 298 963 268 932 q 328 975 309 975 q 341 974 334 975 q 356 970 348 972 q 380 938 367 954 q 410 906 394 922 q 445 874 427 890 q 483 842 463 858 l 468 824 q 425 843 445 832 q 386 865 404 853 q 352 887 368 876 q 325 906 337 898 l 322 906 q 293 886 310 898 q 256 863 276 874 q 216 840 236 851 q 177 822 195 829 l 163 840 z "},"Ě":{"ha":584,"x_min":13,"x_max":560,"o":"m 126 674 q 124 698 126 688 q 116 715 122 708 q 99 724 110 721 q 72 727 89 727 q 48 725 61 727 q 17 722 34 724 l 13 754 q 75 763 46 759 q 128 770 103 767 q 175 774 153 772 q 216 775 197 775 q 318 776 270 775 q 403 778 366 777 q 464 779 440 779 q 493 780 488 780 q 517 773 509 780 q 525 750 525 766 q 524 727 525 744 q 521 686 523 709 q 517 638 519 663 q 512 590 514 612 l 479 591 q 480 615 480 604 q 480 636 480 627 q 477 683 480 665 q 465 711 474 701 q 440 725 456 721 q 400 729 425 728 q 341 729 367 729 q 293 729 316 729 l 275 729 q 248 729 262 729 q 216 728 235 729 q 214 665 215 700 q 213 591 214 631 q 210 507 212 551 q 208 416 209 463 q 286 414 252 414 q 348 413 319 413 q 410 415 383 413 q 461 422 437 417 q 467 395 467 407 q 460 378 467 385 q 443 367 454 372 q 416 361 432 363 q 380 359 400 359 q 301 363 346 359 q 207 373 257 367 q 205 326 206 353 q 202 267 204 298 q 199 203 201 236 q 195 140 197 170 q 191 85 194 110 q 187 44 189 60 q 251 51 220 49 q 308 54 282 54 q 374 52 343 54 q 436 50 405 50 q 471 55 456 50 q 498 75 487 61 q 518 114 510 90 q 530 176 525 139 l 560 175 q 552 81 559 118 q 532 22 545 44 q 501 -7 519 1 q 460 -16 483 -16 q 419 -12 441 -16 q 371 -5 397 -9 q 315 3 345 0 q 250 6 284 6 q 182 3 219 6 q 105 -11 144 -1 l 99 -10 q 108 72 104 24 q 115 178 112 120 q 120 298 118 235 q 124 426 122 361 q 126 554 125 491 q 126 674 126 617 m 483 956 q 411 896 446 927 q 347 831 376 864 l 295 826 l 290 826 q 266 858 280 842 q 236 891 252 875 q 201 924 220 908 q 164 956 183 940 l 179 975 q 222 955 201 966 q 260 933 242 944 q 294 911 278 922 q 321 891 309 900 l 325 891 q 353 910 337 900 q 387 932 369 921 q 427 954 406 943 q 469 975 448 965 l 483 956 z "},"Ë":{"ha":584,"x_min":13,"x_max":560,"o":"m 126 674 q 124 698 126 688 q 116 715 122 708 q 99 724 110 721 q 72 727 89 727 q 48 725 61 727 q 17 722 34 724 l 13 754 q 75 763 46 759 q 128 770 103 767 q 175 774 153 772 q 216 775 197 775 q 318 776 270 775 q 403 778 366 777 q 464 779 440 779 q 493 780 488 780 q 517 773 509 780 q 525 750 525 766 q 524 727 525 744 q 521 686 523 709 q 517 638 519 663 q 512 590 514 612 l 479 591 q 480 615 480 604 q 480 636 480 627 q 477 683 480 665 q 465 711 474 701 q 440 725 456 721 q 400 729 425 728 q 341 729 367 729 q 293 729 316 729 l 275 729 q 248 729 262 729 q 216 728 235 729 q 214 665 215 700 q 213 591 214 631 q 210 507 212 551 q 208 416 209 463 q 286 414 252 414 q 348 413 319 413 q 410 415 383 413 q 461 422 437 417 q 467 395 467 407 q 460 378 467 385 q 443 367 454 372 q 416 361 432 363 q 380 359 400 359 q 301 363 346 359 q 207 373 257 367 q 205 326 206 353 q 202 267 204 298 q 199 203 201 236 q 195 140 197 170 q 191 85 194 110 q 187 44 189 60 q 251 51 220 49 q 308 54 282 54 q 374 52 343 54 q 436 50 405 50 q 471 55 456 50 q 498 75 487 61 q 518 114 510 90 q 530 176 525 139 l 560 175 q 552 81 559 118 q 532 22 545 44 q 501 -7 519 1 q 460 -16 483 -16 q 419 -12 441 -16 q 371 -5 397 -9 q 315 3 345 0 q 250 6 284 6 q 182 3 219 6 q 105 -11 144 -1 l 99 -10 q 108 72 104 24 q 115 178 112 120 q 120 298 118 235 q 124 426 122 361 q 126 554 125 491 q 126 674 126 617 m 221 843 q 201 847 210 843 q 186 859 192 851 q 176 875 179 866 q 173 894 173 884 q 178 917 173 907 q 191 935 183 928 q 208 945 198 941 q 226 948 217 948 q 246 945 237 948 q 261 934 255 941 q 271 919 268 928 q 274 901 274 910 q 270 880 274 890 q 259 861 267 870 q 242 848 252 853 q 221 843 233 843 m 419 843 q 399 847 408 843 q 384 859 390 851 q 375 875 378 866 q 371 894 371 884 q 376 917 371 907 q 389 935 381 928 q 406 945 396 941 q 425 948 415 948 q 445 945 436 948 q 460 934 453 941 q 469 919 466 928 q 473 901 473 910 q 469 880 473 890 q 458 861 465 870 q 441 848 451 853 q 419 843 431 843 z "},"Ē":{"ha":584,"x_min":13,"x_max":560,"o":"m 126 674 q 124 698 126 688 q 116 715 122 708 q 99 724 110 721 q 72 727 89 727 q 48 725 61 727 q 17 722 34 724 l 13 754 q 75 763 46 759 q 128 770 103 767 q 175 774 153 772 q 216 775 197 775 q 318 776 270 775 q 403 778 366 777 q 464 779 440 779 q 493 780 488 780 q 517 773 509 780 q 525 750 525 766 q 524 727 525 744 q 521 686 523 709 q 517 638 519 663 q 512 590 514 612 l 479 591 q 480 615 480 604 q 480 636 480 627 q 477 683 480 665 q 465 711 474 701 q 440 725 456 721 q 400 729 425 728 q 341 729 367 729 q 293 729 316 729 l 275 729 q 248 729 262 729 q 216 728 235 729 q 214 665 215 700 q 213 591 214 631 q 210 507 212 551 q 208 416 209 463 q 286 414 252 414 q 348 413 319 413 q 410 415 383 413 q 461 422 437 417 q 467 395 467 407 q 460 378 467 385 q 443 367 454 372 q 416 361 432 363 q 380 359 400 359 q 301 363 346 359 q 207 373 257 367 q 205 326 206 353 q 202 267 204 298 q 199 203 201 236 q 195 140 197 170 q 191 85 194 110 q 187 44 189 60 q 251 51 220 49 q 308 54 282 54 q 374 52 343 54 q 436 50 405 50 q 471 55 456 50 q 498 75 487 61 q 518 114 510 90 q 530 176 525 139 l 560 175 q 552 81 559 118 q 532 22 545 44 q 501 -7 519 1 q 460 -16 483 -16 q 419 -12 441 -16 q 371 -5 397 -9 q 315 3 345 0 q 250 6 284 6 q 182 3 219 6 q 105 -11 144 -1 l 99 -10 q 108 72 104 24 q 115 178 112 120 q 120 298 118 235 q 124 426 122 361 q 126 554 125 491 q 126 674 126 617 m 466 911 q 470 897 469 903 q 472 885 472 891 q 468 870 472 876 q 458 862 465 865 q 440 858 451 859 q 414 857 429 857 q 386 857 402 857 q 350 858 370 858 q 308 858 330 858 q 262 859 286 859 q 217 857 239 859 q 173 849 195 856 q 180 879 173 868 q 202 897 188 891 q 236 905 216 903 q 279 907 256 907 q 305 907 291 907 q 334 907 319 907 l 365 906 l 393 906 q 432 907 413 906 q 466 911 450 908 z "},"Ĕ":{"ha":584,"x_min":13,"x_max":560,"o":"m 126 674 q 124 698 126 688 q 116 715 122 708 q 99 724 110 721 q 72 727 89 727 q 48 725 61 727 q 17 722 34 724 l 13 754 q 75 763 46 759 q 128 770 103 767 q 175 774 153 772 q 216 775 197 775 q 318 776 270 775 q 403 778 366 777 q 464 779 440 779 q 493 780 488 780 q 517 773 509 780 q 525 750 525 766 q 524 727 525 744 q 521 686 523 709 q 517 638 519 663 q 512 590 514 612 l 479 591 q 480 615 480 604 q 480 636 480 627 q 477 683 480 665 q 465 711 474 701 q 440 725 456 721 q 400 729 425 728 q 341 729 367 729 q 293 729 316 729 l 275 729 q 248 729 262 729 q 216 728 235 729 q 214 665 215 700 q 213 591 214 631 q 210 507 212 551 q 208 416 209 463 q 286 414 252 414 q 348 413 319 413 q 410 415 383 413 q 461 422 437 417 q 467 395 467 407 q 460 378 467 385 q 443 367 454 372 q 416 361 432 363 q 380 359 400 359 q 301 363 346 359 q 207 373 257 367 q 205 326 206 353 q 202 267 204 298 q 199 203 201 236 q 195 140 197 170 q 191 85 194 110 q 187 44 189 60 q 251 51 220 49 q 308 54 282 54 q 374 52 343 54 q 436 50 405 50 q 471 55 456 50 q 498 75 487 61 q 518 114 510 90 q 530 176 525 139 l 560 175 q 552 81 559 118 q 532 22 545 44 q 501 -7 519 1 q 460 -16 483 -16 q 419 -12 441 -16 q 371 -5 397 -9 q 315 3 345 0 q 250 6 284 6 q 182 3 219 6 q 105 -11 144 -1 l 99 -10 q 108 72 104 24 q 115 178 112 120 q 120 298 118 235 q 124 426 122 361 q 126 554 125 491 q 126 674 126 617 m 475 966 q 453 910 467 936 q 420 867 440 885 q 376 838 401 848 q 319 828 351 828 q 260 838 286 828 q 216 865 234 849 q 188 901 198 882 q 179 938 179 920 q 188 962 179 952 q 213 971 197 971 q 224 970 218 971 q 236 966 229 969 q 269 900 245 923 q 335 878 294 878 q 377 885 359 878 q 409 905 395 892 q 433 936 423 918 q 452 973 444 953 l 475 966 z "},"Ė":{"ha":584,"x_min":13,"x_max":560,"o":"m 126 674 q 124 698 126 688 q 116 715 122 708 q 99 724 110 721 q 72 727 89 727 q 48 725 61 727 q 17 722 34 724 l 13 754 q 75 763 46 759 q 128 770 103 767 q 175 774 153 772 q 216 775 197 775 q 318 776 270 775 q 403 778 366 777 q 464 779 440 779 q 493 780 488 780 q 517 773 509 780 q 525 750 525 766 q 524 727 525 744 q 521 686 523 709 q 517 638 519 663 q 512 590 514 612 l 479 591 q 480 615 480 604 q 480 636 480 627 q 477 683 480 665 q 465 711 474 701 q 440 725 456 721 q 400 729 425 728 q 341 729 367 729 q 293 729 316 729 l 275 729 q 248 729 262 729 q 216 728 235 729 q 214 665 215 700 q 213 591 214 631 q 210 507 212 551 q 208 416 209 463 q 286 414 252 414 q 348 413 319 413 q 410 415 383 413 q 461 422 437 417 q 467 395 467 407 q 460 378 467 385 q 443 367 454 372 q 416 361 432 363 q 380 359 400 359 q 301 363 346 359 q 207 373 257 367 q 205 326 206 353 q 202 267 204 298 q 199 203 201 236 q 195 140 197 170 q 191 85 194 110 q 187 44 189 60 q 251 51 220 49 q 308 54 282 54 q 374 52 343 54 q 436 50 405 50 q 471 55 456 50 q 498 75 487 61 q 518 114 510 90 q 530 176 525 139 l 560 175 q 552 81 559 118 q 532 22 545 44 q 501 -7 519 1 q 460 -16 483 -16 q 419 -12 441 -16 q 371 -5 397 -9 q 315 3 345 0 q 250 6 284 6 q 182 3 219 6 q 105 -11 144 -1 l 99 -10 q 108 72 104 24 q 115 178 112 120 q 120 298 118 235 q 124 426 122 361 q 126 554 125 491 q 126 674 126 617 m 328 842 q 307 847 316 842 q 292 858 298 851 q 282 875 286 866 q 279 894 279 884 q 284 918 279 908 q 297 936 289 928 q 314 946 304 943 q 333 950 324 950 q 353 946 344 950 q 369 935 362 942 q 379 920 375 929 q 382 901 382 911 q 378 880 382 891 q 367 861 374 870 q 350 848 360 853 q 328 842 340 842 z "},"Ę":{"ha":584,"x_min":13,"x_max":560,"o":"m 126 674 q 124 698 126 688 q 115 715 121 708 q 99 724 110 721 q 72 727 89 727 q 47 725 61 727 q 17 722 34 724 l 13 754 q 75 763 46 759 q 128 770 103 767 q 175 774 153 772 q 216 775 196 775 q 317 776 269 775 q 402 778 365 777 q 463 779 439 779 q 493 780 487 780 q 517 773 508 780 q 525 750 525 766 q 524 727 525 744 q 521 686 523 709 q 516 638 519 663 q 511 590 514 612 l 479 591 q 480 615 479 604 q 480 636 480 627 q 477 683 480 665 q 464 711 473 701 q 440 725 455 721 q 400 729 424 728 q 341 729 367 729 q 292 729 316 729 l 274 729 q 248 729 261 729 q 216 728 235 729 q 214 665 215 700 q 212 591 213 631 q 210 507 211 551 q 208 416 209 463 q 285 414 251 414 q 348 413 319 413 q 410 415 383 413 q 461 422 437 417 q 466 395 466 407 q 460 378 466 385 q 443 367 454 372 q 416 361 432 363 q 380 359 400 359 q 301 363 345 359 q 206 373 257 367 q 204 326 205 353 q 202 267 203 298 q 199 203 201 236 q 195 140 197 170 q 191 85 193 110 q 186 44 189 60 q 251 51 219 49 q 307 54 282 54 q 374 52 343 54 q 435 50 405 50 q 471 55 456 50 q 498 75 487 61 q 517 114 510 90 q 529 176 525 139 l 560 175 q 552 82 559 118 q 533 24 545 45 q 503 -6 520 2 q 461 -17 485 -15 q 415 -32 437 -18 q 378 -67 394 -46 q 352 -112 362 -87 q 343 -158 343 -136 q 347 -185 343 -173 q 358 -206 350 -197 q 376 -220 365 -215 q 401 -225 387 -225 q 451 -210 425 -225 q 499 -165 477 -195 l 515 -179 q 480 -227 499 -207 q 441 -261 461 -247 q 401 -280 421 -274 q 363 -287 381 -287 q 325 -280 342 -287 q 294 -261 307 -273 q 274 -230 281 -248 q 266 -189 266 -212 q 273 -147 266 -170 q 297 -101 280 -125 q 339 -54 313 -78 q 402 -9 365 -31 l 402 -8 q 372 -3 390 -6 q 335 1 355 -1 q 293 5 315 3 q 249 6 271 6 q 181 3 218 6 q 105 -11 144 -1 l 99 -10 q 108 72 104 24 q 115 178 112 120 q 120 298 118 235 q 123 426 122 361 q 125 554 125 491 q 126 674 126 617 z "},"Ĝ":{"ha":696,"x_min":44,"x_max":651,"o":"m 441 798 q 526 790 487 798 q 592 770 564 782 q 635 745 620 759 q 651 721 651 732 q 649 660 651 697 q 645 570 647 623 l 615 571 q 616 580 615 575 q 616 589 616 584 q 611 634 615 612 q 593 674 606 655 q 560 708 579 693 q 518 733 541 723 q 469 748 495 743 q 415 752 443 752 q 329 738 368 752 q 260 698 290 724 q 207 638 229 672 q 170 562 184 603 q 148 476 155 521 q 141 385 141 431 q 151 270 141 322 q 181 179 162 219 q 226 110 200 139 q 284 62 252 81 q 352 34 316 43 q 426 25 388 25 q 478 30 457 25 q 512 41 499 34 q 532 58 525 48 q 540 80 538 68 q 543 125 543 100 q 544 173 544 149 l 544 203 q 541 243 544 229 q 528 264 537 257 q 502 272 518 271 q 459 274 485 274 l 443 274 q 432 273 438 274 q 418 273 427 273 l 416 307 q 426 306 421 306 q 433 306 430 306 l 448 306 q 495 307 470 306 q 542 307 520 307 q 580 308 564 308 q 600 309 596 309 q 626 299 618 309 q 634 268 634 290 q 634 233 634 254 q 632 186 633 212 q 629 130 631 160 q 627 69 628 100 q 625 49 627 57 q 621 35 624 40 q 612 25 617 29 q 598 16 607 20 q 570 5 588 11 q 528 -6 552 -1 q 476 -15 505 -11 q 417 -18 448 -18 q 331 -11 375 -18 q 245 13 287 -4 q 167 58 204 30 q 103 128 131 86 q 60 227 76 170 q 44 358 44 283 q 55 464 44 411 q 88 566 66 517 q 143 657 110 615 q 220 731 176 700 q 320 780 264 762 q 441 798 375 798 m 278 840 q 349 901 315 869 q 413 963 383 932 q 443 975 424 975 q 456 974 449 975 q 471 970 463 972 q 495 938 481 954 q 525 906 509 922 q 560 874 542 890 q 597 842 578 858 l 583 824 q 539 843 560 832 q 501 865 519 853 q 467 887 483 876 q 440 906 452 898 l 437 906 q 408 886 425 898 q 371 863 391 874 q 331 840 351 851 q 292 822 310 829 l 278 840 z "},"Ğ":{"ha":696,"x_min":44,"x_max":651,"o":"m 441 798 q 526 790 487 798 q 592 770 564 782 q 635 745 620 759 q 651 721 651 732 q 649 660 651 697 q 645 570 647 623 l 615 571 q 616 580 615 575 q 616 589 616 584 q 611 634 615 612 q 593 674 606 655 q 560 708 579 693 q 518 733 541 723 q 469 748 495 743 q 415 752 443 752 q 329 738 368 752 q 260 698 290 724 q 207 638 229 672 q 170 562 184 603 q 148 476 155 521 q 141 385 141 431 q 151 270 141 322 q 181 179 162 219 q 226 110 200 139 q 284 62 252 81 q 352 34 316 43 q 426 25 388 25 q 478 30 457 25 q 512 41 499 34 q 532 58 525 48 q 540 80 538 68 q 543 125 543 100 q 544 173 544 149 l 544 203 q 541 243 544 229 q 528 264 537 257 q 502 272 518 271 q 459 274 485 274 l 443 274 q 432 273 438 274 q 418 273 427 273 l 416 307 q 426 306 421 306 q 433 306 430 306 l 448 306 q 495 307 470 306 q 542 307 520 307 q 580 308 564 308 q 600 309 596 309 q 626 299 618 309 q 634 268 634 290 q 634 233 634 254 q 632 186 633 212 q 629 130 631 160 q 627 69 628 100 q 625 49 627 57 q 621 35 624 40 q 612 25 617 29 q 598 16 607 20 q 570 5 588 11 q 528 -6 552 -1 q 476 -15 505 -11 q 417 -18 448 -18 q 331 -11 375 -18 q 245 13 287 -4 q 167 58 204 30 q 103 128 131 86 q 60 227 76 170 q 44 358 44 283 q 55 464 44 411 q 88 566 66 517 q 143 657 110 615 q 220 731 176 700 q 320 780 264 762 q 441 798 375 798 m 590 966 q 568 910 582 936 q 535 867 555 885 q 491 838 516 848 q 434 828 466 828 q 375 838 401 828 q 331 865 349 849 q 303 901 313 882 q 294 938 294 920 q 303 962 294 952 q 328 971 312 971 q 339 970 333 971 q 351 966 344 969 q 384 900 360 923 q 450 878 409 878 q 492 885 474 878 q 524 905 510 892 q 548 936 538 918 q 567 973 558 953 l 590 966 z "},"Ġ":{"ha":696,"x_min":44,"x_max":651,"o":"m 441 798 q 526 790 487 798 q 592 770 564 782 q 635 745 620 759 q 651 721 651 732 q 649 660 651 697 q 645 570 647 623 l 615 571 q 616 580 615 575 q 616 589 616 584 q 611 634 615 612 q 593 674 606 655 q 560 708 579 693 q 518 733 541 723 q 469 748 495 743 q 415 752 443 752 q 329 738 368 752 q 260 698 290 724 q 207 638 229 672 q 170 562 184 603 q 148 476 155 521 q 141 385 141 431 q 151 270 141 322 q 181 179 162 219 q 226 110 200 139 q 284 62 252 81 q 352 34 316 43 q 426 25 388 25 q 478 30 457 25 q 512 41 499 34 q 532 58 525 48 q 540 80 538 68 q 543 125 543 100 q 544 173 544 149 l 544 203 q 541 243 544 229 q 528 264 537 257 q 502 272 518 271 q 459 274 485 274 l 443 274 q 432 273 438 274 q 418 273 427 273 l 416 307 q 426 306 421 306 q 433 306 430 306 l 448 306 q 495 307 470 306 q 542 307 520 307 q 580 308 564 308 q 600 309 596 309 q 626 299 618 309 q 634 268 634 290 q 634 233 634 254 q 632 186 633 212 q 629 130 631 160 q 627 69 628 100 q 625 49 627 57 q 621 35 624 40 q 612 25 617 29 q 598 16 607 20 q 570 5 588 11 q 528 -6 552 -1 q 476 -15 505 -11 q 417 -18 448 -18 q 331 -11 375 -18 q 245 13 287 -4 q 167 58 204 30 q 103 128 131 86 q 60 227 76 170 q 44 358 44 283 q 55 464 44 411 q 88 566 66 517 q 143 657 110 615 q 220 731 176 700 q 320 780 264 762 q 441 798 375 798 m 436 842 q 415 847 425 842 q 400 858 406 851 q 390 875 394 866 q 387 894 387 884 q 392 918 387 908 q 405 936 397 928 q 422 946 413 943 q 441 950 432 950 q 461 946 452 950 q 477 935 471 942 q 487 920 484 929 q 490 901 490 911 q 486 880 490 891 q 475 861 483 870 q 458 848 468 853 q 436 842 448 842 z "},"Ģ":{"ha":696,"x_min":44,"x_max":651,"o":"m 441 798 q 526 790 487 798 q 592 770 564 782 q 635 745 620 759 q 651 721 651 732 q 649 660 651 697 q 645 570 647 623 l 615 571 q 616 580 615 575 q 616 589 616 584 q 611 634 615 612 q 593 674 606 655 q 560 708 579 693 q 518 733 541 723 q 469 748 495 743 q 415 752 443 752 q 329 738 368 752 q 260 698 290 724 q 207 638 229 672 q 170 562 184 603 q 148 476 155 521 q 141 385 141 431 q 151 270 141 322 q 181 179 162 219 q 226 110 200 139 q 284 62 252 81 q 352 34 316 43 q 426 25 388 25 q 478 30 457 25 q 512 41 499 34 q 532 58 525 48 q 540 80 538 68 q 543 125 543 100 q 544 173 544 149 l 544 203 q 541 243 544 229 q 528 264 537 257 q 502 272 518 271 q 459 274 485 274 l 443 274 q 432 273 438 274 q 418 273 427 273 l 416 307 q 426 306 421 306 q 433 306 430 306 l 448 306 q 495 307 470 306 q 542 307 520 307 q 580 308 564 308 q 600 309 596 309 q 626 299 618 309 q 634 268 634 290 q 634 233 634 254 q 632 186 633 212 q 629 130 631 160 q 627 69 628 100 q 625 49 627 57 q 621 35 624 40 q 612 25 617 29 q 598 16 607 20 q 570 5 588 11 q 528 -6 552 -1 q 476 -15 505 -11 q 417 -18 448 -18 q 331 -11 375 -18 q 245 13 287 -4 q 167 58 204 30 q 103 128 131 86 q 60 227 76 170 q 44 358 44 283 q 55 464 44 411 q 88 566 66 517 q 143 657 110 615 q 220 731 176 700 q 320 780 264 762 q 441 798 375 798 m 354 -130 q 349 -105 349 -118 q 353 -86 349 -95 q 363 -72 356 -78 q 377 -62 369 -66 q 396 -59 386 -59 q 421 -65 410 -59 q 440 -81 432 -71 q 451 -103 447 -90 q 455 -129 455 -115 q 446 -183 455 -157 q 422 -232 437 -209 q 388 -277 408 -256 q 347 -317 368 -299 l 331 -302 q 358 -271 347 -286 q 378 -242 370 -256 q 390 -213 386 -228 q 394 -183 394 -199 q 384 -151 394 -165 q 354 -130 374 -137 z "},"Ĥ":{"ha":769,"x_min":11,"x_max":792,"o":"m 216 689 q 215 652 216 674 q 213 598 214 630 q 211 523 212 566 q 208 425 210 480 q 302 427 257 426 q 391 429 347 429 q 479 431 435 430 q 570 432 523 431 q 572 501 571 466 q 575 574 573 535 q 579 656 577 612 q 586 754 582 700 q 590 766 586 761 q 601 775 594 772 q 616 781 608 779 q 632 782 624 782 q 653 780 642 782 q 675 772 665 777 q 666 666 670 717 q 660 567 663 615 q 655 472 657 519 q 652 377 653 425 q 651 279 651 329 q 650 175 650 230 q 653 114 650 139 q 664 72 656 89 q 684 49 671 56 q 716 41 697 41 q 745 44 730 41 q 782 54 760 46 l 792 26 q 746 8 767 16 q 707 -5 725 0 q 673 -13 689 -10 q 644 -15 658 -15 q 610 -8 624 -15 q 585 16 595 -1 q 571 60 576 33 q 566 127 566 87 l 566 204 q 566 255 566 231 q 567 302 567 279 q 568 346 567 325 q 569 388 568 367 q 478 388 522 388 q 390 387 434 388 q 301 384 346 386 q 207 380 256 382 l 195 0 l 115 -10 l 109 -9 q 116 175 113 88 q 122 346 119 263 q 125 509 124 429 q 126 672 126 589 q 124 699 126 688 q 116 718 122 711 q 99 728 110 725 q 72 731 89 731 q 15 726 50 731 l 11 754 q 95 773 60 767 q 152 780 129 780 q 188 774 175 780 q 207 756 200 768 q 214 727 213 744 q 216 689 216 710 m 240 840 q 311 901 276 869 q 374 963 345 932 q 404 975 386 975 q 417 974 410 975 q 433 970 424 972 q 457 938 443 954 q 487 906 471 922 q 522 874 503 890 q 559 842 540 858 l 544 824 q 501 843 522 832 q 462 865 480 853 q 429 887 444 876 q 402 906 414 898 l 398 906 q 369 886 387 898 q 333 863 352 874 q 292 840 313 851 q 254 822 272 829 l 240 840 z "},"Ħ":{"ha":769,"x_min":11,"x_max":792,"o":"m 216 689 q 215 645 216 672 q 213 577 214 618 q 306 580 261 579 q 395 582 351 581 q 484 583 439 583 q 576 584 528 584 q 580 662 577 621 q 586 754 582 703 q 590 766 586 761 q 601 775 594 772 q 616 781 608 779 q 632 782 624 782 q 653 780 642 782 q 675 772 665 777 q 666 666 670 717 q 660 567 663 615 q 655 472 657 519 q 652 377 653 425 q 651 279 651 329 q 650 175 650 230 q 653 114 650 139 q 664 72 656 89 q 684 49 671 56 q 716 41 697 41 q 745 44 730 41 q 782 54 760 46 l 792 26 q 746 8 767 16 q 707 -5 725 0 q 673 -13 689 -10 q 644 -15 658 -15 q 610 -8 624 -15 q 585 16 595 -1 q 571 60 576 33 q 566 127 566 87 l 566 199 q 566 247 566 224 q 567 291 567 270 q 567 331 567 312 q 568 371 568 351 q 478 371 522 371 q 390 370 434 371 q 301 367 346 369 q 207 363 255 365 q 201 184 204 275 q 195 0 198 94 l 115 -10 l 109 -9 q 116 175 113 88 q 122 346 119 263 q 125 509 124 429 q 126 672 126 589 q 124 699 126 688 q 116 718 122 711 q 99 728 110 725 q 72 731 89 731 q 15 726 50 731 l 11 754 q 95 773 60 767 q 152 780 129 780 q 188 774 175 780 q 207 756 200 768 q 214 727 213 744 q 216 689 216 710 m 208 407 q 302 409 257 408 q 391 411 347 411 q 479 413 435 412 q 570 414 523 413 q 572 477 570 446 q 574 542 573 508 q 482 542 526 542 q 393 540 437 541 q 304 537 349 539 q 211 533 259 536 l 208 407 z "},"Ì":{"ha":304,"x_min":-3,"x_max":250,"o":"m 126 672 q 125 699 126 688 q 118 718 123 711 q 103 728 113 725 q 76 731 93 731 q 48 730 65 731 q 15 726 32 729 l 11 754 q 97 773 61 767 q 156 780 133 780 q 190 774 178 780 q 208 756 202 768 q 215 727 214 744 q 216 689 216 710 q 215 649 216 681 q 212 566 214 616 q 209 449 211 515 q 205 309 207 384 q 200 156 202 235 q 195 0 198 77 l 115 -10 l 109 -9 q 116 175 113 88 q 122 344 119 262 q 125 507 124 426 q 126 672 126 587 m 241 819 q 193 832 218 825 q 142 848 168 840 q 94 865 117 856 q 51 881 70 873 q 19 896 32 889 q 3 907 7 903 q -1 917 0 911 q -3 928 -3 922 q 1 951 -3 939 q 11 973 5 964 l 21 976 q 69 939 44 957 q 122 905 94 922 q 182 873 151 888 q 250 842 214 857 l 241 819 z "},"Í":{"ha":304,"x_min":11,"x_max":267,"o":"m 126 672 q 125 699 126 688 q 118 718 123 711 q 103 728 113 725 q 76 731 93 731 q 48 730 65 731 q 15 726 32 729 l 11 754 q 97 773 61 767 q 156 780 133 780 q 190 774 178 780 q 208 756 202 768 q 215 727 214 744 q 216 689 216 710 q 215 649 216 681 q 212 566 214 616 q 209 449 211 515 q 205 309 207 384 q 200 156 202 235 q 195 0 198 77 l 115 -10 l 109 -9 q 116 175 113 88 q 122 344 119 262 q 125 507 124 426 q 126 672 126 587 m 15 842 q 142 903 84 870 q 245 976 200 937 l 254 973 q 263 954 259 965 q 267 931 267 942 q 264 914 267 922 q 254 901 261 907 q 235 890 248 897 q 203 877 221 884 q 162 861 184 869 q 116 846 140 853 q 69 831 93 838 q 24 819 45 824 l 15 842 z "},"Î":{"ha":304,"x_min":-14,"x_max":306,"o":"m 126 672 q 125 699 126 688 q 118 718 123 711 q 103 728 113 725 q 76 731 93 731 q 48 730 65 731 q 15 726 32 729 l 11 754 q 97 773 61 767 q 156 780 133 780 q 190 774 178 780 q 208 756 202 768 q 215 727 214 744 q 216 689 216 710 q 215 649 216 681 q 212 566 214 616 q 209 449 211 515 q 205 309 207 384 q 200 156 202 235 q 195 0 198 77 l 115 -10 l 109 -9 q 116 175 113 88 q 122 344 119 262 q 125 507 124 426 q 126 672 126 587 m -14 840 q 57 901 23 869 q 121 963 91 932 q 151 975 132 975 q 164 974 157 975 q 179 970 171 972 q 203 938 190 954 q 233 906 217 922 q 268 874 250 890 q 306 842 286 858 l 291 824 q 248 843 268 832 q 209 865 227 853 q 175 887 191 876 q 148 906 160 898 l 145 906 q 116 886 133 898 q 79 863 99 874 q 39 840 59 851 q 0 822 18 829 l -14 840 z "},"Ĩ":{"ha":304,"x_min":-9,"x_max":312,"o":"m 126 672 q 125 699 126 688 q 118 718 123 711 q 103 728 113 725 q 76 731 93 731 q 48 730 65 731 q 15 726 32 729 l 11 754 q 97 773 61 767 q 156 780 133 780 q 190 774 178 780 q 208 756 202 768 q 215 727 214 744 q 216 689 216 710 q 215 649 216 681 q 212 566 214 616 q 209 449 211 515 q 205 309 207 384 q 200 156 202 235 q 195 0 198 77 l 115 -10 l 109 -9 q 116 175 113 88 q 122 344 119 262 q 125 507 124 426 q 126 672 126 587 m 312 961 q 299 920 307 941 q 278 881 290 899 q 248 852 266 863 q 209 840 231 840 q 173 847 192 840 q 137 862 155 854 q 102 876 119 870 q 68 883 84 883 q 47 878 56 883 q 32 865 38 873 q 20 847 25 857 q 13 825 16 837 l -9 829 q 0 870 -6 849 q 18 909 6 891 q 45 937 29 926 q 84 948 62 948 q 117 942 100 948 q 159 926 135 936 q 193 913 177 919 q 224 907 209 907 q 248 912 238 907 q 266 925 258 917 q 280 944 274 933 q 292 966 286 954 l 312 961 z "},"Ï":{"ha":304,"x_min":-4,"x_max":296,"o":"m 126 672 q 125 699 126 688 q 118 718 123 711 q 103 728 113 725 q 76 731 93 731 q 48 730 65 731 q 15 726 32 729 l 11 754 q 97 773 61 767 q 156 780 133 780 q 190 774 178 780 q 208 756 202 768 q 215 727 214 744 q 216 689 216 710 q 215 649 216 681 q 212 566 214 616 q 209 449 211 515 q 205 309 207 384 q 200 156 202 235 q 195 0 198 77 l 115 -10 l 109 -9 q 116 175 113 88 q 122 344 119 262 q 125 507 124 426 q 126 672 126 587 m 44 843 q 24 847 33 843 q 9 859 15 851 q -1 875 2 866 q -4 894 -4 884 q 1 917 -4 907 q 14 935 6 928 q 31 945 21 941 q 49 948 40 948 q 69 945 60 948 q 84 934 78 941 q 94 919 91 928 q 97 901 97 910 q 93 880 97 890 q 82 861 90 870 q 65 848 75 853 q 44 843 56 843 m 242 843 q 222 847 231 843 q 207 859 213 851 q 198 875 201 866 q 194 894 194 884 q 199 917 194 907 q 212 935 204 928 q 229 945 219 941 q 248 948 238 948 q 268 945 259 948 q 283 934 276 941 q 292 919 289 928 q 296 901 296 910 q 292 880 296 890 q 281 861 288 870 q 264 848 274 853 q 242 843 254 843 z "},"Ī":{"ha":304,"x_min":-4,"x_max":295,"o":"m 126 672 q 125 699 126 688 q 118 718 123 711 q 103 728 113 725 q 76 731 93 731 q 48 730 65 731 q 15 726 32 729 l 11 754 q 97 773 61 767 q 156 780 133 780 q 190 774 178 780 q 208 756 202 768 q 215 727 214 744 q 216 689 216 710 q 215 649 216 681 q 212 566 214 616 q 209 449 211 515 q 205 309 207 384 q 200 156 202 235 q 195 0 198 77 l 115 -10 l 109 -9 q 116 175 113 88 q 122 344 119 262 q 125 507 124 426 q 126 672 126 587 m 289 911 q 293 897 292 903 q 295 885 295 891 q 291 870 295 876 q 281 862 288 865 q 263 858 274 859 q 237 857 252 857 q 209 857 225 857 q 173 858 193 858 q 131 858 153 858 q 85 859 109 859 q 40 857 62 859 q -4 849 18 856 q 3 879 -4 868 q 25 897 11 891 q 59 905 39 903 q 102 907 79 907 q 128 907 114 907 q 157 907 142 907 l 188 906 l 216 906 q 255 907 236 906 q 289 911 273 908 z "},"Ĭ":{"ha":304,"x_min":8,"x_max":305,"o":"m 126 672 q 125 699 126 688 q 118 718 123 711 q 103 728 113 725 q 76 731 93 731 q 48 730 65 731 q 15 726 32 729 l 11 754 q 97 773 61 767 q 156 780 133 780 q 190 774 178 780 q 208 756 202 768 q 215 727 214 744 q 216 689 216 710 q 215 649 216 681 q 212 566 214 616 q 209 449 211 515 q 205 309 207 384 q 200 156 202 235 q 195 0 198 77 l 115 -10 l 109 -9 q 116 175 113 88 q 122 344 119 262 q 125 507 124 426 q 126 672 126 587 m 305 966 q 283 910 297 936 q 250 867 270 885 q 206 838 231 848 q 149 828 180 828 q 90 838 116 828 q 46 865 64 849 q 18 901 28 882 q 8 938 8 920 q 18 962 8 952 q 42 971 27 971 q 53 970 48 971 q 66 966 59 969 q 99 900 75 923 q 165 878 123 878 q 207 885 189 878 q 239 905 225 892 q 263 936 253 918 q 281 973 273 953 l 305 966 z "},"İ":{"ha":304,"x_min":11,"x_max":216,"o":"m 126 672 q 125 699 126 688 q 118 718 123 711 q 103 728 113 725 q 76 731 93 731 q 48 730 65 731 q 15 726 32 729 l 11 754 q 97 773 61 767 q 156 780 133 780 q 190 774 178 780 q 208 756 202 768 q 215 727 214 744 q 216 689 216 710 q 215 649 216 681 q 212 566 214 616 q 209 449 211 515 q 205 309 207 384 q 200 156 202 235 q 195 0 198 77 l 115 -10 l 109 -9 q 116 175 113 88 q 122 344 119 262 q 125 507 124 426 q 126 672 126 587 m 161 842 q 140 847 150 842 q 125 858 131 851 q 115 875 119 866 q 112 894 112 884 q 117 918 112 908 q 130 936 122 928 q 147 946 138 943 q 166 950 157 950 q 186 946 177 950 q 202 935 196 942 q 212 920 209 929 q 215 901 215 911 q 211 880 215 891 q 200 861 208 870 q 183 848 193 853 q 161 842 173 842 z "},"Į":{"ha":304,"x_min":11,"x_max":265,"o":"m 126 672 q 125 699 126 688 q 118 718 123 711 q 103 728 113 725 q 76 731 93 731 q 48 730 65 731 q 15 726 32 729 l 11 754 q 97 773 61 767 q 156 780 133 780 q 190 774 178 780 q 208 756 202 768 q 215 727 214 744 q 216 689 216 710 q 215 649 216 681 q 212 566 214 616 q 209 449 211 515 q 205 309 207 384 q 200 156 202 235 q 195 0 198 77 q 156 -34 174 -15 q 125 -74 138 -53 q 105 -117 112 -95 q 98 -159 98 -139 q 101 -185 98 -173 q 111 -206 104 -197 q 129 -220 118 -215 q 154 -225 139 -225 q 202 -210 176 -225 q 249 -165 227 -196 l 265 -179 q 230 -227 249 -207 q 192 -261 211 -248 q 153 -281 172 -275 q 115 -288 133 -288 q 78 -281 95 -288 q 48 -262 61 -274 q 28 -231 35 -249 q 21 -190 21 -213 q 28 -148 21 -170 q 50 -101 35 -125 q 89 -53 65 -77 q 144 -7 112 -30 l 144 -5 l 115 -10 l 109 -9 q 116 175 113 88 q 122 344 119 262 q 125 507 124 426 q 126 672 126 587 z "},"Ĳ":{"ha":609,"x_min":11,"x_max":520,"o":"m 126 672 q 125 699 126 688 q 118 718 123 711 q 103 728 113 725 q 76 731 93 731 q 48 730 65 731 q 15 726 32 729 l 11 754 q 97 773 61 767 q 156 780 133 780 q 190 774 178 780 q 208 756 202 768 q 215 727 214 744 q 216 689 216 710 q 215 649 216 681 q 212 566 214 616 q 209 449 211 515 q 205 309 207 384 q 200 156 202 235 q 195 0 198 77 l 115 -10 l 109 -9 q 116 175 113 88 q 122 344 119 262 q 125 507 124 426 q 126 672 126 587 m 520 689 q 520 660 520 680 q 519 616 519 641 q 517 562 518 591 q 515 503 516 532 q 511 343 513 425 q 502 184 508 262 q 485 32 496 105 q 457 -105 475 -42 q 430 -177 445 -145 q 396 -231 414 -208 q 357 -270 377 -254 q 315 -295 336 -286 q 272 -309 293 -304 q 230 -313 251 -313 q 180 -306 203 -313 q 141 -290 157 -300 q 115 -265 124 -279 q 105 -236 105 -251 q 110 -218 105 -227 q 121 -202 114 -209 q 139 -190 129 -195 q 159 -185 148 -185 q 208 -238 180 -222 q 267 -254 235 -254 q 325 -238 300 -254 q 365 -190 349 -221 q 392 -116 381 -160 q 408 -19 402 -73 q 418 97 415 34 q 424 229 421 159 q 427 342 426 287 q 429 451 429 397 q 431 560 430 506 q 431 672 431 615 q 430 699 431 688 q 423 718 428 711 q 407 728 417 725 q 381 731 397 731 q 367 731 375 731 q 351 730 360 731 q 333 728 342 729 q 315 726 323 727 l 311 754 q 399 773 361 767 q 461 780 437 780 q 495 774 483 780 q 513 756 507 768 q 519 727 518 744 q 520 689 520 710 z "},"Ĵ":{"ha":304,"x_min":-200,"x_max":308,"o":"m 215 689 q 215 660 215 680 q 213 616 214 641 q 212 562 213 591 q 210 503 211 532 q 205 343 208 425 q 197 184 203 262 q 180 32 191 105 q 152 -105 170 -42 q 124 -177 140 -145 q 90 -231 109 -208 q 51 -270 72 -254 q 9 -295 31 -286 q -33 -309 -12 -304 q -75 -313 -55 -313 q -125 -306 -102 -313 q -164 -290 -148 -300 q -190 -265 -181 -279 q -200 -236 -200 -251 q -195 -218 -200 -227 q -184 -202 -191 -209 q -167 -190 -176 -195 q -146 -185 -157 -185 q -97 -238 -125 -222 q -38 -254 -70 -254 q 19 -238 -5 -254 q 60 -190 43 -221 q 87 -116 76 -160 q 103 -19 97 -73 q 113 97 110 34 q 118 229 116 159 q 122 342 120 287 q 124 451 123 397 q 126 560 125 506 q 126 672 126 615 q 125 699 126 688 q 118 718 123 711 q 102 728 112 725 q 76 731 92 731 q 62 731 70 731 q 46 730 55 731 q 28 728 37 729 q 9 726 18 727 l 6 754 q 94 773 56 767 q 156 780 132 780 q 190 774 178 780 q 208 756 202 768 q 214 727 213 744 q 215 689 215 710 m -12 840 q 59 901 25 869 q 123 963 93 932 q 153 975 134 975 q 166 974 159 975 q 181 970 173 972 q 205 938 192 954 q 235 906 219 922 q 270 874 252 890 q 308 842 288 858 l 293 824 q 250 843 270 832 q 211 865 229 853 q 177 887 193 876 q 150 906 162 898 l 147 906 q 118 886 135 898 q 81 863 101 874 q 41 840 61 851 q 2 822 20 829 l -12 840 z "},"Ķ":{"ha":658,"x_min":11,"x_max":694,"o":"m 292 429 q 370 302 335 356 q 433 208 404 248 q 484 140 461 168 q 527 93 507 113 q 554 69 541 79 q 577 53 566 59 q 600 44 589 46 q 622 41 611 41 q 651 44 636 41 q 684 54 666 48 l 694 26 q 649 8 669 16 q 612 -5 629 0 q 582 -13 595 -10 q 556 -15 568 -15 q 534 -13 544 -15 q 514 -5 524 -10 q 493 9 504 1 q 472 27 483 17 q 429 74 453 44 q 373 147 404 103 q 304 252 342 192 q 221 392 266 313 l 221 396 l 246 432 q 349 576 301 511 q 437 687 396 641 q 516 759 479 733 q 590 784 554 784 q 617 780 606 784 q 636 768 629 775 q 647 752 644 761 q 651 732 651 742 q 643 699 651 715 q 621 672 635 683 l 618 672 q 591 691 605 686 q 563 696 577 696 q 505 675 536 696 q 439 617 473 653 q 368 532 405 580 q 292 429 331 483 m 126 672 q 124 699 126 688 q 116 718 122 711 q 99 728 110 725 q 72 731 89 731 q 15 726 50 731 l 11 754 q 95 773 60 767 q 152 780 129 780 q 188 774 175 780 q 207 756 200 768 q 214 727 213 744 q 216 689 216 710 q 215 663 216 683 q 214 612 215 643 q 212 539 213 580 q 209 449 210 497 q 206 346 208 400 q 202 234 204 291 q 199 117 201 176 q 195 0 197 58 l 115 -10 l 109 -9 q 116 176 113 88 q 122 347 119 264 q 125 510 124 430 q 126 672 126 590 m 279 -130 q 274 -105 274 -118 q 278 -86 274 -95 q 288 -72 281 -78 q 302 -62 294 -66 q 321 -59 311 -59 q 346 -65 335 -59 q 365 -81 357 -71 q 376 -103 372 -90 q 380 -129 380 -115 q 371 -183 380 -157 q 348 -232 362 -209 q 313 -277 333 -256 q 272 -317 293 -299 l 256 -302 q 283 -271 272 -286 q 303 -242 295 -256 q 315 -213 311 -228 q 319 -183 319 -199 q 309 -151 319 -165 q 279 -130 299 -137 z "},"Ĺ":{"ha":561,"x_min":11,"x_max":554,"o":"m 126 672 q 125 699 126 688 q 118 718 123 711 q 102 728 112 725 q 76 731 92 731 q 48 730 64 731 q 14 726 32 729 l 11 754 q 96 773 61 767 q 156 780 132 780 q 190 774 178 780 q 208 756 202 768 q 214 727 213 744 q 215 689 215 710 q 215 666 215 687 q 214 611 215 645 q 212 530 213 576 q 209 433 211 484 q 205 327 208 381 q 201 221 203 273 q 195 124 198 170 q 189 44 193 79 q 251 51 222 49 q 304 54 279 54 q 369 52 339 54 q 429 50 400 50 q 466 56 450 50 q 494 77 482 62 q 513 119 505 93 q 525 185 520 145 l 554 183 q 547 85 554 123 q 527 24 540 46 q 496 -7 514 2 q 453 -16 477 -16 q 414 -12 435 -16 q 366 -5 392 -9 q 311 3 341 0 q 247 6 281 6 q 180 3 216 6 q 105 -11 143 -1 l 99 -10 q 109 90 105 37 q 116 201 114 143 q 121 319 119 259 q 124 440 123 379 q 126 559 125 500 q 126 672 126 617 m 17 842 q 143 903 85 870 q 246 976 201 937 l 255 973 q 265 954 261 965 q 269 931 269 942 q 266 914 269 922 q 256 901 263 907 q 236 890 250 897 q 204 877 223 884 q 164 861 186 869 q 118 846 141 853 q 71 831 94 838 q 25 819 47 824 l 17 842 z "},"Ľ":{"ha":561,"x_min":11,"x_max":554,"o":"m 126 672 q 125 699 126 688 q 118 718 123 711 q 102 728 112 725 q 76 731 92 731 q 48 730 64 731 q 14 726 32 729 l 11 754 q 96 773 61 767 q 156 780 132 780 q 190 774 178 780 q 208 756 202 768 q 214 727 213 744 q 215 689 215 710 q 215 666 215 687 q 214 611 215 645 q 212 530 213 576 q 209 433 211 484 q 205 327 208 381 q 201 221 203 273 q 195 124 198 170 q 189 44 193 79 q 251 51 222 49 q 304 54 279 54 q 369 52 339 54 q 429 50 400 50 q 466 56 450 50 q 494 77 482 62 q 513 119 505 93 q 525 185 520 145 l 554 183 q 547 85 554 123 q 527 24 540 46 q 496 -7 514 2 q 453 -16 477 -16 q 414 -12 435 -16 q 366 -5 392 -9 q 311 3 341 0 q 247 6 281 6 q 180 3 216 6 q 105 -11 143 -1 l 99 -10 q 109 90 105 37 q 116 201 114 143 q 121 319 119 259 q 124 440 123 379 q 126 559 125 500 q 126 672 126 617 m 388 502 q 413 576 403 539 q 431 647 424 612 q 442 715 438 683 q 447 778 446 748 l 464 785 q 482 774 474 780 q 497 760 491 767 q 506 745 503 753 q 509 730 509 737 q 505 704 509 720 q 495 669 502 688 q 479 627 488 649 q 460 581 470 604 q 437 535 449 558 q 413 492 425 512 l 388 502 z "},"Ļ":{"ha":561,"x_min":11,"x_max":554,"o":"m 126 672 q 125 699 126 688 q 118 718 123 711 q 102 728 112 725 q 76 731 92 731 q 48 730 64 731 q 14 726 32 729 l 11 754 q 96 773 61 767 q 156 780 132 780 q 190 774 178 780 q 208 756 202 768 q 214 727 213 744 q 215 689 215 710 q 215 666 215 687 q 214 611 215 645 q 212 530 213 576 q 209 433 211 484 q 205 327 208 381 q 201 221 203 273 q 195 124 198 170 q 189 44 193 79 q 251 51 222 49 q 304 54 279 54 q 369 52 339 54 q 429 50 400 50 q 466 56 450 50 q 494 77 482 62 q 513 119 505 93 q 525 185 520 145 l 554 183 q 547 85 554 123 q 527 24 540 46 q 496 -7 514 2 q 453 -16 477 -16 q 414 -12 435 -16 q 366 -5 392 -9 q 311 3 341 0 q 247 6 281 6 q 180 3 216 6 q 105 -11 143 -1 l 99 -10 q 109 90 105 37 q 116 201 114 143 q 121 319 119 259 q 124 440 123 379 q 126 559 125 500 q 126 672 126 617 m 255 -130 q 251 -105 251 -118 q 254 -86 251 -95 q 264 -72 258 -78 q 279 -62 271 -66 q 297 -59 288 -59 q 323 -65 312 -59 q 341 -81 334 -71 q 353 -103 349 -90 q 357 -129 357 -115 q 348 -183 357 -157 q 324 -232 339 -209 q 290 -277 309 -256 q 249 -317 270 -299 l 232 -302 q 260 -271 248 -286 q 280 -242 272 -256 q 291 -213 288 -228 q 295 -183 295 -199 q 286 -151 295 -165 q 255 -130 276 -137 z "},"Ł":{"ha":561,"x_min":2,"x_max":554,"o":"m 126 672 q 125 699 126 688 q 118 718 123 711 q 102 728 112 725 q 76 731 92 731 q 48 730 64 731 q 14 726 32 729 l 11 754 q 96 773 61 767 q 156 780 132 780 q 190 774 178 780 q 208 756 202 768 q 214 727 213 744 q 215 689 215 710 q 215 665 215 687 q 213 607 214 643 q 211 523 212 571 q 208 423 210 476 q 331 463 286 449 q 397 477 377 477 q 413 471 409 477 q 418 455 418 466 q 417 447 418 452 q 416 437 416 442 q 380 430 401 435 q 331 418 358 425 q 272 400 304 410 q 207 379 241 390 q 203 286 205 333 q 200 195 202 239 q 195 113 198 152 q 190 44 193 74 q 251 51 222 49 q 304 54 279 54 q 369 52 339 54 q 429 50 400 50 q 466 56 450 50 q 494 77 482 62 q 513 119 505 93 q 525 185 520 145 l 554 183 q 547 85 554 123 q 527 24 540 46 q 496 -7 514 2 q 453 -16 477 -16 q 414 -12 435 -16 q 366 -5 392 -9 q 311 3 341 0 q 247 6 281 6 q 180 3 216 6 q 105 -11 143 -1 l 99 -10 q 108 71 104 28 q 114 159 111 113 q 119 253 117 205 q 122 351 121 301 q 93 340 108 346 q 62 327 77 334 q 32 314 46 321 q 6 300 18 307 q 2 312 2 306 q 11 332 2 322 q 35 352 19 342 q 73 372 50 362 q 123 393 95 382 q 126 536 125 466 q 126 672 126 607 z "},"Ŀ":{"ha":561,"x_min":11,"x_max":554,"o":"m 126 672 q 125 699 126 688 q 118 718 123 711 q 102 728 112 725 q 76 731 92 731 q 48 730 64 731 q 14 726 32 729 l 11 754 q 96 773 61 767 q 156 780 132 780 q 190 774 178 780 q 208 756 202 768 q 214 727 213 744 q 215 689 215 710 q 215 666 215 687 q 214 611 215 645 q 212 530 213 576 q 209 433 211 484 q 205 327 208 381 q 201 221 203 273 q 195 124 198 170 q 189 44 193 79 q 251 51 222 49 q 304 54 279 54 q 369 52 339 54 q 429 50 400 50 q 466 56 450 50 q 494 77 482 62 q 513 119 505 93 q 525 185 520 145 l 554 183 q 547 85 554 123 q 527 24 540 46 q 496 -7 514 2 q 453 -16 477 -16 q 414 -12 435 -16 q 366 -5 392 -9 q 311 3 341 0 q 247 6 281 6 q 180 3 216 6 q 105 -11 143 -1 l 99 -10 q 109 90 105 37 q 116 201 114 143 q 121 319 119 259 q 124 440 123 379 q 126 559 125 500 q 126 672 126 617 m 446 346 q 425 351 434 346 q 408 364 415 356 q 398 383 402 372 q 395 404 395 393 q 400 432 395 420 q 414 451 405 444 q 432 464 422 459 q 452 468 442 468 q 473 463 464 468 q 490 451 483 459 q 500 434 496 444 q 504 413 504 424 q 500 389 504 401 q 488 368 496 377 q 470 352 480 358 q 446 346 459 346 z "},"Ń":{"ha":734,"x_min":10,"x_max":708,"o":"m 236 722 q 271 660 251 694 q 313 588 291 626 q 360 510 336 550 q 409 429 384 469 q 458 348 434 388 q 506 272 483 309 q 549 204 529 236 q 586 147 570 172 q 587 312 586 238 q 588 447 587 387 q 590 554 589 507 q 594 635 592 600 q 599 695 596 670 q 606 735 602 720 q 614 758 609 749 q 627 772 620 767 q 643 780 634 778 q 661 782 652 782 q 708 772 684 782 l 708 769 q 680 708 692 746 q 659 624 668 670 q 645 528 651 578 q 637 427 640 477 q 633 331 634 377 q 630 248 631 284 q 629 186 629 216 q 627 125 628 156 q 627 64 627 95 q 626 0 626 33 l 585 -5 l 579 -5 q 553 33 569 9 q 517 88 537 57 q 475 156 498 119 q 427 232 452 192 q 377 313 403 272 q 327 395 352 354 q 279 474 302 436 q 234 547 255 513 q 197 609 214 581 q 168 657 180 637 q 166 511 167 582 q 162 375 164 440 q 156 250 159 309 q 150 141 154 192 q 145 80 148 105 q 139 38 143 55 q 130 12 136 22 q 117 -3 125 2 q 99 -9 110 -8 q 73 -11 88 -11 l 64 -11 q 57 -10 61 -11 q 46 -10 53 -10 l 42 -6 q 68 67 56 26 q 87 153 79 108 q 102 248 96 199 q 113 345 109 296 q 119 441 117 394 q 123 531 122 489 q 125 611 124 574 q 125 674 125 647 q 123 699 125 689 q 115 716 121 710 q 99 726 109 723 q 72 729 89 729 q 46 728 61 729 q 14 724 32 726 l 10 753 q 61 765 38 760 q 103 773 84 770 q 137 779 122 777 q 164 781 152 781 q 186 778 177 781 q 203 768 195 774 q 219 750 211 761 q 236 722 227 738 m 287 842 q 413 903 355 870 q 516 976 471 937 l 525 973 q 535 954 531 965 q 538 931 538 942 q 536 914 538 922 q 526 901 533 907 q 506 890 519 897 q 474 877 493 884 q 434 861 456 869 q 388 846 411 853 q 340 831 364 838 q 295 819 317 824 l 287 842 z "},"Ň":{"ha":734,"x_min":10,"x_max":708,"o":"m 236 722 q 271 660 251 694 q 313 588 291 626 q 360 510 336 550 q 409 429 384 469 q 458 348 434 388 q 506 272 483 309 q 549 204 529 236 q 586 147 570 172 q 587 312 586 238 q 588 447 587 387 q 590 554 589 507 q 594 635 592 600 q 599 695 596 670 q 606 735 602 720 q 614 758 609 749 q 627 772 620 767 q 643 780 634 778 q 661 782 652 782 q 708 772 684 782 l 708 769 q 680 708 692 746 q 659 624 668 670 q 645 528 651 578 q 637 427 640 477 q 633 331 634 377 q 630 248 631 284 q 629 186 629 216 q 627 125 628 156 q 627 64 627 95 q 626 0 626 33 l 585 -5 l 579 -5 q 553 33 569 9 q 517 88 537 57 q 475 156 498 119 q 427 232 452 192 q 377 313 403 272 q 327 395 352 354 q 279 474 302 436 q 234 547 255 513 q 197 609 214 581 q 168 657 180 637 q 166 511 167 582 q 162 375 164 440 q 156 250 159 309 q 150 141 154 192 q 145 80 148 105 q 139 38 143 55 q 130 12 136 22 q 117 -3 125 2 q 99 -9 110 -8 q 73 -11 88 -11 l 64 -11 q 57 -10 61 -11 q 46 -10 53 -10 l 42 -6 q 68 67 56 26 q 87 153 79 108 q 102 248 96 199 q 113 345 109 296 q 119 441 117 394 q 123 531 122 489 q 125 611 124 574 q 125 674 125 647 q 123 699 125 689 q 115 716 121 710 q 99 726 109 723 q 72 729 89 729 q 46 728 61 729 q 14 724 32 726 l 10 753 q 61 765 38 760 q 103 773 84 770 q 137 779 122 777 q 164 781 152 781 q 186 778 177 781 q 203 768 195 774 q 219 750 211 761 q 236 722 227 738 m 564 956 q 492 896 527 927 q 428 831 457 864 l 375 826 l 371 826 q 347 858 360 842 q 317 891 333 875 q 282 924 300 908 q 244 956 264 940 l 259 975 q 302 955 282 966 q 341 933 323 944 q 375 911 359 922 q 402 891 390 900 l 406 891 q 433 910 417 900 q 468 932 449 921 q 508 954 487 943 q 550 975 529 965 l 564 956 z "},"Ñ":{"ha":734,"x_min":10,"x_max":708,"o":"m 236 722 q 271 660 251 694 q 313 588 291 626 q 360 510 336 550 q 409 429 384 469 q 458 348 434 388 q 506 272 483 309 q 549 204 529 236 q 586 147 570 172 q 587 312 586 238 q 588 447 587 387 q 590 554 589 507 q 594 635 592 600 q 599 695 596 670 q 606 735 602 720 q 614 758 609 749 q 627 772 620 767 q 643 780 634 778 q 661 782 652 782 q 708 772 684 782 l 708 769 q 680 708 692 746 q 659 624 668 670 q 645 528 651 578 q 637 427 640 477 q 633 331 634 377 q 630 248 631 284 q 629 186 629 216 q 627 125 628 156 q 627 64 627 95 q 626 0 626 33 l 585 -5 l 579 -5 q 553 33 569 9 q 517 88 537 57 q 475 156 498 119 q 427 232 452 192 q 377 313 403 272 q 327 395 352 354 q 279 474 302 436 q 234 547 255 513 q 197 609 214 581 q 168 657 180 637 q 166 511 167 582 q 162 375 164 440 q 156 250 159 309 q 150 141 154 192 q 145 80 148 105 q 139 38 143 55 q 130 12 136 22 q 117 -3 125 2 q 99 -9 110 -8 q 73 -11 88 -11 l 64 -11 q 57 -10 61 -11 q 46 -10 53 -10 l 42 -6 q 68 67 56 26 q 87 153 79 108 q 102 248 96 199 q 113 345 109 296 q 119 441 117 394 q 123 531 122 489 q 125 611 124 574 q 125 674 125 647 q 123 699 125 689 q 115 716 121 710 q 99 726 109 723 q 72 729 89 729 q 46 728 61 729 q 14 724 32 726 l 10 753 q 61 765 38 760 q 103 773 84 770 q 137 779 122 777 q 164 781 152 781 q 186 778 177 781 q 203 768 195 774 q 219 750 211 761 q 236 722 227 738 m 569 961 q 556 920 565 941 q 536 881 548 899 q 506 852 523 863 q 467 840 489 840 q 431 847 449 840 q 395 862 413 854 q 359 876 376 870 q 326 883 342 883 q 305 878 314 883 q 289 865 296 873 q 278 847 282 857 q 271 825 274 837 l 249 829 q 258 870 251 849 q 275 909 264 891 q 303 937 287 926 q 342 948 320 948 q 375 942 357 948 q 417 926 392 936 q 451 913 434 919 q 482 907 467 907 q 506 912 495 907 q 524 925 516 917 q 538 944 531 933 q 549 966 544 954 l 569 961 z "},"Ņ":{"ha":734,"x_min":10,"x_max":708,"o":"m 236 722 q 271 660 251 694 q 313 588 291 626 q 360 510 336 550 q 409 429 384 469 q 458 348 434 388 q 506 272 483 309 q 549 204 529 236 q 586 147 570 172 q 587 312 586 238 q 588 447 587 387 q 590 554 589 507 q 594 635 592 600 q 599 695 596 670 q 606 735 602 720 q 614 758 609 749 q 627 772 620 767 q 643 780 634 778 q 661 782 652 782 q 708 772 684 782 l 708 769 q 680 708 692 746 q 659 624 668 670 q 645 528 651 578 q 637 427 640 477 q 633 331 634 377 q 630 248 631 284 q 629 186 629 216 q 627 125 628 156 q 627 64 627 95 q 626 0 626 33 l 585 -5 l 579 -5 q 553 33 569 9 q 517 88 537 57 q 475 156 498 119 q 427 232 452 192 q 377 313 403 272 q 327 395 352 354 q 279 474 302 436 q 234 547 255 513 q 197 609 214 581 q 168 657 180 637 q 166 511 167 582 q 162 375 164 440 q 156 250 159 309 q 150 141 154 192 q 145 80 148 105 q 139 38 143 55 q 130 12 136 22 q 117 -3 125 2 q 99 -9 110 -8 q 73 -11 88 -11 l 64 -11 q 57 -10 61 -11 q 46 -10 53 -10 l 42 -6 q 68 67 56 26 q 87 153 79 108 q 102 248 96 199 q 113 345 109 296 q 119 441 117 394 q 123 531 122 489 q 125 611 124 574 q 125 674 125 647 q 123 699 125 689 q 115 716 121 710 q 99 726 109 723 q 72 729 89 729 q 46 728 61 729 q 14 724 32 726 l 10 753 q 61 765 38 760 q 103 773 84 770 q 137 779 122 777 q 164 781 152 781 q 186 778 177 781 q 203 768 195 774 q 219 750 211 761 q 236 722 227 738 m 297 -130 q 293 -105 293 -118 q 297 -86 293 -95 q 306 -72 300 -78 q 321 -62 313 -66 q 339 -59 330 -59 q 365 -65 354 -59 q 383 -81 376 -71 q 395 -103 391 -90 q 399 -129 399 -115 q 390 -183 399 -157 q 366 -232 381 -209 q 332 -277 351 -256 q 291 -317 312 -299 l 274 -302 q 302 -271 290 -286 q 322 -242 314 -256 q 333 -213 330 -228 q 337 -183 337 -199 q 328 -151 337 -165 q 297 -130 318 -137 z "},"Ò":{"ha":736,"x_min":44,"x_max":692,"o":"m 354 -19 q 229 5 286 -19 q 131 76 172 29 q 67 192 90 122 q 44 354 44 262 q 54 468 44 412 q 82 573 63 524 q 129 663 101 622 q 195 734 157 705 q 279 781 233 764 q 382 798 326 798 q 507 774 450 798 q 605 703 564 750 q 670 587 647 656 q 692 425 692 517 q 683 311 692 367 q 654 206 673 255 q 607 115 635 157 q 542 44 579 74 q 457 -2 504 15 q 354 -19 410 -19 m 370 25 q 441 38 409 25 q 499 75 473 51 q 543 131 524 98 q 573 205 561 164 q 591 293 585 246 q 597 392 597 340 q 579 553 597 485 q 530 665 561 621 q 457 732 498 710 q 369 753 415 753 q 297 741 329 753 q 240 704 265 728 q 196 648 214 681 q 165 574 177 614 q 147 485 153 533 q 141 387 141 438 q 159 226 141 294 q 209 114 177 158 q 281 47 240 69 q 370 25 323 25 m 501 819 q 453 832 478 825 q 402 848 428 840 q 354 865 377 856 q 311 881 330 873 q 280 896 292 889 q 263 907 267 903 q 259 917 260 911 q 257 928 257 922 q 261 951 257 939 q 271 973 265 964 l 281 976 q 329 939 304 957 q 382 905 354 922 q 442 873 411 888 q 510 842 474 857 l 501 819 z "},"Ó":{"ha":736,"x_min":44,"x_max":692,"o":"m 354 -19 q 229 5 286 -19 q 131 76 172 29 q 67 192 90 122 q 44 354 44 262 q 54 468 44 412 q 82 573 63 524 q 129 663 101 622 q 195 734 157 705 q 279 781 233 764 q 382 798 326 798 q 507 774 450 798 q 605 703 564 750 q 670 587 647 656 q 692 425 692 517 q 683 311 692 367 q 654 206 673 255 q 607 115 635 157 q 542 44 579 74 q 457 -2 504 15 q 354 -19 410 -19 m 370 25 q 441 38 409 25 q 499 75 473 51 q 543 131 524 98 q 573 205 561 164 q 591 293 585 246 q 597 392 597 340 q 579 553 597 485 q 530 665 561 621 q 457 732 498 710 q 369 753 415 753 q 297 741 329 753 q 240 704 265 728 q 196 648 214 681 q 165 574 177 614 q 147 485 153 533 q 141 387 141 438 q 159 226 141 294 q 209 114 177 158 q 281 47 240 69 q 370 25 323 25 m 275 842 q 402 903 344 870 q 505 976 460 937 l 514 973 q 523 954 519 965 q 527 931 527 942 q 524 914 527 922 q 514 901 522 907 q 495 890 508 897 q 463 877 481 884 q 422 861 445 869 q 377 846 400 853 q 329 831 353 838 q 284 819 306 824 l 275 842 z "},"Ô":{"ha":736,"x_min":44,"x_max":692,"o":"m 354 -19 q 229 5 286 -19 q 131 76 172 29 q 67 192 90 122 q 44 354 44 262 q 54 468 44 412 q 82 573 63 524 q 129 663 101 622 q 195 734 157 705 q 279 781 233 764 q 382 798 326 798 q 507 774 450 798 q 605 703 564 750 q 670 587 647 656 q 692 425 692 517 q 683 311 692 367 q 654 206 673 255 q 607 115 635 157 q 542 44 579 74 q 457 -2 504 15 q 354 -19 410 -19 m 370 25 q 441 38 409 25 q 499 75 473 51 q 543 131 524 98 q 573 205 561 164 q 591 293 585 246 q 597 392 597 340 q 579 553 597 485 q 530 665 561 621 q 457 732 498 710 q 369 753 415 753 q 297 741 329 753 q 240 704 265 728 q 196 648 214 681 q 165 574 177 614 q 147 485 153 533 q 141 387 141 438 q 159 226 141 294 q 209 114 177 158 q 281 47 240 69 q 370 25 323 25 m 233 840 q 303 901 269 869 q 367 963 338 932 q 397 975 379 975 q 410 974 403 975 q 426 970 417 972 q 450 938 436 954 q 480 906 464 922 q 514 874 496 890 q 552 842 533 858 l 537 824 q 494 843 515 832 q 455 865 473 853 q 422 887 437 876 q 395 906 407 898 l 391 906 q 362 886 379 898 q 326 863 345 874 q 285 840 306 851 q 247 822 265 829 l 233 840 z "},"Õ":{"ha":736,"x_min":44,"x_max":692,"o":"m 354 -19 q 229 5 286 -19 q 131 76 172 29 q 67 192 90 122 q 44 354 44 262 q 54 468 44 412 q 82 573 63 524 q 129 663 101 622 q 195 734 157 705 q 279 781 233 764 q 382 798 326 798 q 507 774 450 798 q 605 703 564 750 q 670 587 647 656 q 692 425 692 517 q 683 311 692 367 q 654 206 673 255 q 607 115 635 157 q 542 44 579 74 q 457 -2 504 15 q 354 -19 410 -19 m 370 25 q 441 38 409 25 q 499 75 473 51 q 543 131 524 98 q 573 205 561 164 q 591 293 585 246 q 597 392 597 340 q 579 553 597 485 q 530 665 561 621 q 457 732 498 710 q 369 753 415 753 q 297 741 329 753 q 240 704 265 728 q 196 648 214 681 q 165 574 177 614 q 147 485 153 533 q 141 387 141 438 q 159 226 141 294 q 209 114 177 158 q 281 47 240 69 q 370 25 323 25 m 558 961 q 545 920 553 941 q 524 881 537 899 q 495 852 512 863 q 455 840 478 840 q 420 847 438 840 q 384 862 402 854 q 348 876 365 870 q 315 883 331 883 q 294 878 303 883 q 278 865 285 873 q 267 847 271 857 q 260 825 262 837 l 238 829 q 247 870 240 849 q 264 909 253 891 q 292 937 275 926 q 331 948 309 948 q 364 942 346 948 q 406 926 381 936 q 439 913 423 919 q 471 907 456 907 q 494 912 484 907 q 512 925 505 917 q 526 944 520 933 q 538 966 533 954 l 558 961 z "},"Ö":{"ha":736,"x_min":44,"x_max":692,"o":"m 354 -19 q 229 5 286 -19 q 131 76 172 29 q 67 192 90 122 q 44 354 44 262 q 54 468 44 412 q 82 573 63 524 q 129 663 101 622 q 195 734 157 705 q 279 781 233 764 q 382 798 326 798 q 507 774 450 798 q 605 703 564 750 q 670 587 647 656 q 692 425 692 517 q 683 311 692 367 q 654 206 673 255 q 607 115 635 157 q 542 44 579 74 q 457 -2 504 15 q 354 -19 410 -19 m 370 25 q 441 38 409 25 q 499 75 473 51 q 543 131 524 98 q 573 205 561 164 q 591 293 585 246 q 597 392 597 340 q 579 553 597 485 q 530 665 561 621 q 457 732 498 710 q 369 753 415 753 q 297 741 329 753 q 240 704 265 728 q 196 648 214 681 q 165 574 177 614 q 147 485 153 533 q 141 387 141 438 q 159 226 141 294 q 209 114 177 158 q 281 47 240 69 q 370 25 323 25 m 290 843 q 270 847 279 843 q 255 859 261 851 q 246 875 249 866 q 242 894 242 884 q 247 917 242 907 q 260 935 252 928 q 277 945 268 941 q 296 948 287 948 q 316 945 307 948 q 331 934 325 941 q 340 919 337 928 q 344 901 344 910 q 340 880 344 890 q 329 861 336 870 q 312 848 322 853 q 290 843 302 843 m 489 843 q 469 847 477 843 q 454 859 460 851 q 444 875 448 866 q 441 894 441 884 q 446 917 441 907 q 458 935 451 928 q 475 945 466 941 q 494 948 485 948 q 514 945 505 948 q 529 934 523 941 q 539 919 535 928 q 542 901 542 910 q 538 880 542 890 q 527 861 534 870 q 511 848 520 853 q 489 843 501 843 z "},"Ō":{"ha":736,"x_min":44,"x_max":692,"o":"m 354 -19 q 229 5 286 -19 q 131 76 172 29 q 67 192 90 122 q 44 354 44 262 q 54 468 44 412 q 82 573 63 524 q 129 663 101 622 q 195 734 157 705 q 279 781 233 764 q 382 798 326 798 q 507 774 450 798 q 605 703 564 750 q 670 587 647 656 q 692 425 692 517 q 683 311 692 367 q 654 206 673 255 q 607 115 635 157 q 542 44 579 74 q 457 -2 504 15 q 354 -19 410 -19 m 370 25 q 441 38 409 25 q 499 75 473 51 q 543 131 524 98 q 573 205 561 164 q 591 293 585 246 q 597 392 597 340 q 579 553 597 485 q 530 665 561 621 q 457 732 498 710 q 369 753 415 753 q 297 741 329 753 q 240 704 265 728 q 196 648 214 681 q 165 574 177 614 q 147 485 153 533 q 141 387 141 438 q 159 226 141 294 q 209 114 177 158 q 281 47 240 69 q 370 25 323 25 m 535 911 q 540 897 539 903 q 541 885 541 891 q 538 870 541 876 q 528 862 535 865 q 510 858 521 859 q 484 857 499 857 q 456 857 472 857 q 420 858 439 858 q 377 858 400 858 q 332 859 355 859 q 287 857 309 859 q 242 849 264 856 q 250 879 242 868 q 272 897 258 891 q 306 905 286 903 q 349 907 325 907 q 374 907 360 907 q 404 907 388 907 l 434 906 l 463 906 q 501 907 483 906 q 535 911 520 908 z "},"Ŏ":{"ha":736,"x_min":44,"x_max":692,"o":"m 354 -19 q 229 5 286 -19 q 131 76 172 29 q 67 192 90 122 q 44 354 44 262 q 54 468 44 412 q 82 573 63 524 q 129 663 101 622 q 195 734 157 705 q 279 781 233 764 q 382 798 326 798 q 507 774 450 798 q 605 703 564 750 q 670 587 647 656 q 692 425 692 517 q 683 311 692 367 q 654 206 673 255 q 607 115 635 157 q 542 44 579 74 q 457 -2 504 15 q 354 -19 410 -19 m 370 25 q 441 38 409 25 q 499 75 473 51 q 543 131 524 98 q 573 205 561 164 q 591 293 585 246 q 597 392 597 340 q 579 553 597 485 q 530 665 561 621 q 457 732 498 710 q 369 753 415 753 q 297 741 329 753 q 240 704 265 728 q 196 648 214 681 q 165 574 177 614 q 147 485 153 533 q 141 387 141 438 q 159 226 141 294 q 209 114 177 158 q 281 47 240 69 q 370 25 323 25 m 545 966 q 523 910 536 936 q 490 867 509 885 q 445 838 471 848 q 388 828 420 828 q 330 838 356 828 q 286 865 303 849 q 258 901 268 882 q 248 938 248 920 q 258 962 248 952 q 282 971 267 971 q 293 970 288 971 q 306 966 299 969 q 339 900 314 923 q 405 878 363 878 q 447 885 429 878 q 479 905 465 892 q 503 936 493 918 q 521 973 513 953 l 545 966 z "},"Ő":{"ha":736,"x_min":44,"x_max":692,"o":"m 354 -19 q 229 5 286 -19 q 131 76 172 29 q 67 192 90 122 q 44 354 44 262 q 54 468 44 412 q 82 573 63 524 q 129 663 101 622 q 195 734 157 705 q 279 781 233 764 q 382 798 326 798 q 507 774 450 798 q 605 703 564 750 q 670 587 647 656 q 692 425 692 517 q 683 311 692 367 q 654 206 673 255 q 607 115 635 157 q 542 44 579 74 q 457 -2 504 15 q 354 -19 410 -19 m 370 25 q 441 38 409 25 q 499 75 473 51 q 543 131 524 98 q 573 205 561 164 q 591 293 585 246 q 597 392 597 340 q 579 553 597 485 q 530 665 561 621 q 457 732 498 710 q 369 753 415 753 q 297 741 329 753 q 240 704 265 728 q 196 648 214 681 q 165 574 177 614 q 147 485 153 533 q 141 387 141 438 q 159 226 141 294 q 209 114 177 158 q 281 47 240 69 q 370 25 323 25 m 261 840 q 348 901 309 868 q 415 973 388 933 l 425 972 q 435 951 431 963 q 439 928 439 940 q 436 912 439 920 q 427 899 433 905 q 405 882 421 892 q 366 861 388 872 q 320 838 345 849 q 273 819 295 827 l 261 840 m 424 843 q 511 904 472 872 q 578 977 550 937 l 587 975 q 598 955 594 966 q 602 930 602 943 q 599 915 602 923 q 591 901 597 907 q 578 891 587 897 q 557 878 569 885 q 530 864 545 871 q 499 849 515 857 q 467 835 484 842 q 436 822 451 828 l 424 843 z "},"Ø":{"ha":736,"x_min":44,"x_max":692,"o":"m 354 -19 q 246 -2 296 -19 q 157 49 197 15 q 128 1 142 26 q 100 -48 113 -23 q 91 -28 94 -38 q 88 -8 88 -18 q 98 34 88 12 q 124 83 108 57 q 65 198 86 130 q 44 354 44 266 q 54 468 44 412 q 82 573 63 524 q 129 663 101 622 q 195 734 157 705 q 279 781 233 764 q 382 798 326 798 q 493 780 443 798 q 584 725 544 762 q 612 771 599 747 q 634 815 626 795 q 646 811 640 813 q 656 805 652 809 q 664 796 661 801 q 666 783 666 790 q 663 766 666 776 q 653 745 659 757 q 637 718 646 732 q 617 689 628 704 q 673 576 653 642 q 692 425 692 511 q 683 311 692 367 q 654 206 673 255 q 607 115 635 157 q 542 44 579 74 q 457 -2 504 15 q 354 -19 410 -19 m 370 25 q 441 38 409 25 q 499 75 473 51 q 543 131 524 98 q 573 205 561 164 q 591 293 585 246 q 597 392 597 340 q 587 515 597 461 q 559 612 577 569 q 506 541 535 581 q 444 456 476 501 q 379 366 412 412 q 314 275 345 319 q 254 190 282 230 q 205 119 226 150 q 279 48 237 71 q 370 25 321 25 m 535 657 q 460 730 503 706 q 369 753 418 753 q 297 741 329 753 q 240 704 265 728 q 196 648 214 681 q 165 574 177 614 q 147 485 153 533 q 141 387 141 438 q 151 264 141 318 q 179 168 161 210 q 227 235 199 197 q 284 316 254 273 q 349 404 315 358 q 415 494 382 449 q 478 580 448 538 q 535 657 509 622 z "},"Ǿ":{"ha":736,"x_min":44,"x_max":692,"o":"m 354 -19 q 246 -2 296 -19 q 157 49 197 15 q 128 1 142 26 q 100 -48 113 -23 q 91 -28 94 -38 q 88 -8 88 -18 q 98 34 88 12 q 124 83 108 57 q 65 198 86 130 q 44 354 44 266 q 54 468 44 412 q 82 573 63 524 q 129 663 101 622 q 195 734 157 705 q 279 781 233 764 q 382 798 326 798 q 493 780 443 798 q 584 725 544 762 q 612 771 599 747 q 634 815 626 795 q 646 811 640 813 q 656 805 652 809 q 664 796 661 801 q 666 783 666 790 q 663 766 666 776 q 653 745 659 757 q 637 718 646 732 q 617 689 628 704 q 673 576 653 642 q 692 425 692 511 q 683 311 692 367 q 654 206 673 255 q 607 115 635 157 q 542 44 579 74 q 457 -2 504 15 q 354 -19 410 -19 m 370 25 q 441 38 409 25 q 499 75 473 51 q 543 131 524 98 q 573 205 561 164 q 591 293 585 246 q 597 392 597 340 q 587 515 597 461 q 559 612 577 569 q 506 541 535 581 q 444 456 476 501 q 379 366 412 412 q 314 275 345 319 q 254 190 282 230 q 205 119 226 150 q 279 48 237 71 q 370 25 321 25 m 535 657 q 460 730 503 706 q 369 753 418 753 q 297 741 329 753 q 240 704 265 728 q 196 648 214 681 q 165 574 177 614 q 147 485 153 533 q 141 387 141 438 q 151 264 141 318 q 179 168 161 210 q 227 235 199 197 q 284 316 254 273 q 349 404 315 358 q 415 494 382 449 q 478 580 448 538 q 535 657 509 622 m 276 842 q 402 903 345 870 q 505 976 460 937 l 514 973 q 524 954 520 965 q 528 931 528 942 q 525 914 528 922 q 515 901 522 907 q 495 890 509 897 q 463 877 482 884 q 423 861 445 869 q 377 846 400 853 q 330 831 353 838 q 284 819 306 824 l 276 842 z "},"Œ":{"ha":979,"x_min":44,"x_max":955,"o":"m 616 728 q 614 665 615 700 q 612 591 613 631 q 610 507 611 551 q 608 416 609 463 q 684 414 650 414 q 745 413 718 413 q 806 415 780 413 q 856 422 832 417 q 861 395 861 407 q 855 378 861 385 q 839 367 849 372 q 812 361 828 363 q 777 359 796 359 q 699 363 742 359 q 606 373 656 367 q 600 209 603 292 q 589 45 596 126 q 651 52 621 50 q 705 54 680 54 q 770 52 740 54 q 830 50 801 50 q 866 55 851 50 q 893 75 882 61 q 912 114 905 90 q 924 176 920 139 l 955 175 q 947 81 954 118 q 927 22 940 44 q 896 -7 914 1 q 854 -16 878 -16 q 815 -12 837 -16 q 767 -5 793 -9 q 712 3 742 0 q 647 6 682 6 q 581 2 616 6 q 507 -11 545 -2 l 501 -10 q 503 8 502 -1 q 504 26 504 17 q 434 -7 470 5 q 355 -19 397 -19 q 229 5 287 -19 q 131 76 172 29 q 67 192 90 123 q 44 354 44 262 q 54 468 44 413 q 82 573 63 524 q 130 664 101 623 q 196 735 158 705 q 280 781 233 764 q 382 798 327 798 q 460 787 425 798 q 528 755 495 776 l 528 777 q 574 776 552 777 q 617 776 596 776 l 656 776 q 822 778 764 776 q 888 780 879 780 q 912 773 903 780 q 920 750 920 766 q 919 727 920 744 q 916 686 918 709 q 911 638 914 663 q 906 590 909 612 l 874 591 q 875 615 874 604 q 875 636 875 627 q 872 683 875 665 q 859 711 868 701 q 835 725 850 721 q 795 729 819 728 q 738 729 763 729 q 690 729 713 729 l 673 729 q 647 729 661 729 q 616 728 634 729 m 369 753 q 298 741 330 753 q 240 704 266 728 q 196 648 215 681 q 165 574 178 614 q 147 486 153 533 q 141 387 141 438 q 160 226 141 294 q 209 114 178 158 q 282 47 240 69 q 370 25 323 25 q 448 42 413 25 q 510 91 483 59 q 518 247 515 171 q 523 398 521 324 q 525 545 524 472 q 526 689 526 617 q 454 739 494 724 q 369 753 415 753 z "},"Ŕ":{"ha":656,"x_min":11,"x_max":693,"o":"m 126 674 q 124 698 126 688 q 116 715 122 708 q 99 724 110 721 q 73 727 89 727 q 15 722 50 727 l 11 752 q 80 764 43 758 q 157 775 118 770 q 237 784 197 781 q 313 787 276 787 q 404 778 362 787 q 477 750 446 770 q 526 696 508 729 q 543 615 543 664 q 528 532 543 570 q 487 465 514 495 q 421 415 460 436 q 336 381 383 394 q 400 275 371 321 q 453 195 429 230 q 497 136 477 161 q 535 94 517 112 q 561 69 549 79 q 584 53 573 59 q 607 44 596 47 q 631 41 619 41 q 657 44 645 41 q 684 52 669 47 l 693 24 q 617 -5 650 5 q 562 -15 584 -15 q 540 -12 550 -15 q 520 -4 530 -9 q 500 9 510 1 q 479 27 491 17 q 437 74 461 45 q 383 149 413 104 q 315 254 352 193 q 234 395 278 315 l 235 400 q 336 416 295 402 q 403 455 377 431 q 440 513 429 479 q 452 589 452 547 q 410 708 452 669 q 285 748 368 748 q 252 747 268 748 q 216 743 236 745 q 214 673 216 717 q 212 573 213 629 q 208 448 210 516 q 204 307 206 380 q 200 155 202 233 q 195 0 197 77 l 115 -10 l 109 -9 q 116 175 113 88 q 122 345 119 262 q 125 508 124 427 q 126 674 126 589 m 188 842 q 315 903 257 870 q 418 976 373 937 l 427 973 q 436 954 432 965 q 440 931 440 942 q 437 914 440 922 q 427 901 434 907 q 408 890 421 897 q 376 877 394 884 q 335 861 357 869 q 289 846 313 853 q 242 831 266 838 q 197 819 218 824 l 188 842 z "},"Ř":{"ha":656,"x_min":11,"x_max":693,"o":"m 126 674 q 124 698 126 688 q 116 715 122 708 q 99 724 110 721 q 73 727 89 727 q 15 722 50 727 l 11 752 q 80 764 43 758 q 157 775 118 770 q 237 784 197 781 q 313 787 276 787 q 404 778 362 787 q 477 750 446 770 q 526 696 508 729 q 543 615 543 664 q 528 532 543 570 q 487 465 514 495 q 421 415 460 436 q 336 381 383 394 q 400 275 371 321 q 453 195 429 230 q 497 136 477 161 q 535 94 517 112 q 561 69 549 79 q 584 53 573 59 q 607 44 596 47 q 631 41 619 41 q 657 44 645 41 q 684 52 669 47 l 693 24 q 617 -5 650 5 q 562 -15 584 -15 q 540 -12 550 -15 q 520 -4 530 -9 q 500 9 510 1 q 479 27 491 17 q 437 74 461 45 q 383 149 413 104 q 315 254 352 193 q 234 395 278 315 l 235 400 q 336 416 295 402 q 403 455 377 431 q 440 513 429 479 q 452 589 452 547 q 410 708 452 669 q 285 748 368 748 q 252 747 268 748 q 216 743 236 745 q 214 673 216 717 q 212 573 213 629 q 208 448 210 516 q 204 307 206 380 q 200 155 202 233 q 195 0 197 77 l 115 -10 l 109 -9 q 116 175 113 88 q 122 345 119 262 q 125 508 124 427 q 126 674 126 589 m 466 956 q 394 896 429 927 q 330 831 358 864 l 277 826 l 272 826 q 248 858 262 842 q 218 891 235 875 q 184 924 202 908 q 146 956 165 940 l 161 975 q 204 955 183 966 q 243 933 224 944 q 276 911 261 922 q 303 891 292 900 l 307 891 q 335 910 319 900 q 370 932 351 921 q 409 954 389 943 q 452 975 430 965 l 466 956 z "},"Ŗ":{"ha":656,"x_min":11,"x_max":693,"o":"m 126 674 q 124 698 126 688 q 116 715 122 708 q 99 724 110 721 q 73 727 89 727 q 15 722 50 727 l 11 752 q 80 764 43 758 q 157 775 118 770 q 237 784 197 781 q 313 787 276 787 q 404 778 362 787 q 477 750 446 770 q 526 696 508 729 q 543 615 543 664 q 528 532 543 570 q 487 465 514 495 q 421 415 460 436 q 336 381 383 394 q 400 275 371 321 q 453 195 429 230 q 497 136 477 161 q 535 94 517 112 q 561 69 549 79 q 584 53 573 59 q 607 44 596 47 q 631 41 619 41 q 657 44 645 41 q 684 52 669 47 l 693 24 q 617 -5 650 5 q 562 -15 584 -15 q 540 -12 550 -15 q 520 -4 530 -9 q 500 9 510 1 q 479 27 491 17 q 437 74 461 45 q 383 149 413 104 q 315 254 352 193 q 234 395 278 315 l 235 400 q 336 416 295 402 q 403 455 377 431 q 440 513 429 479 q 452 589 452 547 q 410 708 452 669 q 285 748 368 748 q 252 747 268 748 q 216 743 236 745 q 214 673 216 717 q 212 573 213 629 q 208 448 210 516 q 204 307 206 380 q 200 155 202 233 q 195 0 197 77 l 115 -10 l 109 -9 q 116 175 113 88 q 122 345 119 262 q 125 508 124 427 q 126 674 126 589 m 279 -130 q 274 -105 274 -118 q 278 -86 274 -95 q 288 -72 281 -78 q 302 -62 294 -66 q 321 -59 311 -59 q 346 -65 335 -59 q 365 -81 357 -71 q 376 -103 372 -90 q 380 -129 380 -115 q 371 -183 380 -157 q 348 -232 362 -209 q 313 -277 333 -256 q 272 -317 293 -299 l 256 -302 q 283 -271 272 -286 q 303 -242 295 -256 q 315 -213 311 -228 q 319 -183 319 -199 q 309 -151 319 -165 q 279 -130 299 -137 z "},"Ś":{"ha":488,"x_min":29,"x_max":459,"o":"m 70 199 q 68 184 68 191 q 68 169 68 176 q 78 103 68 130 q 108 59 89 76 q 154 35 127 42 q 214 27 181 27 q 278 36 248 27 q 331 64 308 46 q 368 111 354 83 q 381 175 381 138 q 375 217 381 198 q 358 252 369 236 q 331 282 347 268 q 299 307 316 295 q 261 330 281 319 q 221 353 241 341 q 179 376 200 364 q 138 402 157 389 q 102 433 119 416 q 73 468 85 449 q 54 512 61 488 q 47 564 47 535 q 57 631 47 600 q 82 688 66 662 q 122 734 99 714 q 172 769 144 755 q 230 790 199 783 q 294 798 261 798 q 326 796 309 798 q 359 790 342 794 q 392 781 376 786 q 419 769 407 776 q 438 754 431 762 q 445 737 445 746 q 445 712 445 727 q 444 679 445 697 q 443 638 444 660 q 440 591 441 615 l 406 592 q 407 616 407 605 q 397 675 407 649 q 369 718 387 701 q 325 743 351 735 q 268 752 299 752 q 210 742 237 752 q 163 713 183 731 q 133 669 144 694 q 121 613 121 644 q 128 568 121 588 q 146 531 134 548 q 173 500 157 514 q 207 474 188 486 q 245 450 225 461 q 286 428 266 439 q 329 405 308 417 q 369 380 350 393 q 405 350 389 366 q 434 316 421 335 q 453 273 446 296 q 459 222 459 250 q 447 140 459 176 q 413 77 434 104 q 364 32 391 51 q 306 3 336 14 q 247 -13 276 -8 q 191 -18 217 -18 q 128 -14 158 -18 q 76 -2 99 -9 q 42 15 54 6 q 29 35 29 25 q 30 100 29 58 q 35 201 32 143 l 70 199 m 175 842 q 302 903 244 870 q 405 976 360 937 l 414 973 q 423 954 419 965 q 427 931 427 942 q 424 914 427 922 q 414 901 421 907 q 395 890 408 897 q 363 877 381 884 q 322 861 344 869 q 276 846 300 853 q 229 831 253 838 q 184 819 205 824 l 175 842 z "},"Ŝ":{"ha":488,"x_min":29,"x_max":459,"o":"m 70 199 q 68 184 68 191 q 68 169 68 176 q 78 103 68 130 q 108 59 89 76 q 154 35 127 42 q 214 27 181 27 q 278 36 248 27 q 331 64 308 46 q 368 111 354 83 q 381 175 381 138 q 375 217 381 198 q 358 252 369 236 q 331 282 347 268 q 299 307 316 295 q 261 330 281 319 q 221 353 241 341 q 179 376 200 364 q 138 402 157 389 q 102 433 119 416 q 73 468 85 449 q 54 512 61 488 q 47 564 47 535 q 57 631 47 600 q 82 688 66 662 q 122 734 99 714 q 172 769 144 755 q 230 790 199 783 q 294 798 261 798 q 326 796 309 798 q 359 790 342 794 q 392 781 376 786 q 419 769 407 776 q 438 754 431 762 q 445 737 445 746 q 445 712 445 727 q 444 679 445 697 q 443 638 444 660 q 440 591 441 615 l 406 592 q 407 616 407 605 q 397 675 407 649 q 369 718 387 701 q 325 743 351 735 q 268 752 299 752 q 210 742 237 752 q 163 713 183 731 q 133 669 144 694 q 121 613 121 644 q 128 568 121 588 q 146 531 134 548 q 173 500 157 514 q 207 474 188 486 q 245 450 225 461 q 286 428 266 439 q 329 405 308 417 q 369 380 350 393 q 405 350 389 366 q 434 316 421 335 q 453 273 446 296 q 459 222 459 250 q 447 140 459 176 q 413 77 434 104 q 364 32 391 51 q 306 3 336 14 q 247 -13 276 -8 q 191 -18 217 -18 q 128 -14 158 -18 q 76 -2 99 -9 q 42 15 54 6 q 29 35 29 25 q 30 100 29 58 q 35 201 32 143 l 70 199 m 132 840 q 203 901 169 869 q 267 963 237 932 q 297 975 278 975 q 310 974 303 975 q 326 970 317 972 q 349 938 336 954 q 379 906 363 922 q 414 874 396 890 q 452 842 432 858 l 437 824 q 394 843 414 832 q 355 865 373 853 q 321 887 337 876 q 294 906 306 898 l 291 906 q 262 886 279 898 q 225 863 245 874 q 185 840 205 851 q 146 822 164 829 l 132 840 z "},"Š":{"ha":488,"x_min":29,"x_max":459,"o":"m 70 199 q 68 184 68 191 q 68 169 68 176 q 78 103 68 130 q 108 59 89 76 q 154 35 127 42 q 214 27 181 27 q 278 36 248 27 q 331 64 308 46 q 368 111 354 83 q 381 175 381 138 q 375 217 381 198 q 358 252 369 236 q 331 282 347 268 q 299 307 316 295 q 261 330 281 319 q 221 353 241 341 q 179 376 200 364 q 138 402 157 389 q 102 433 119 416 q 73 468 85 449 q 54 512 61 488 q 47 564 47 535 q 57 631 47 600 q 82 688 66 662 q 122 734 99 714 q 172 769 144 755 q 230 790 199 783 q 294 798 261 798 q 326 796 309 798 q 359 790 342 794 q 392 781 376 786 q 419 769 407 776 q 438 754 431 762 q 445 737 445 746 q 445 712 445 727 q 444 679 445 697 q 443 638 444 660 q 440 591 441 615 l 406 592 q 407 616 407 605 q 397 675 407 649 q 369 718 387 701 q 325 743 351 735 q 268 752 299 752 q 210 742 237 752 q 163 713 183 731 q 133 669 144 694 q 121 613 121 644 q 128 568 121 588 q 146 531 134 548 q 173 500 157 514 q 207 474 188 486 q 245 450 225 461 q 286 428 266 439 q 329 405 308 417 q 369 380 350 393 q 405 350 389 366 q 434 316 421 335 q 453 273 446 296 q 459 222 459 250 q 447 140 459 176 q 413 77 434 104 q 364 32 391 51 q 306 3 336 14 q 247 -13 276 -8 q 191 -18 217 -18 q 128 -14 158 -18 q 76 -2 99 -9 q 42 15 54 6 q 29 35 29 25 q 30 100 29 58 q 35 201 32 143 l 70 199 m 452 956 q 380 896 415 927 q 316 831 345 864 l 264 826 l 259 826 q 235 858 249 842 q 205 891 221 875 q 171 924 189 908 q 133 956 152 940 l 148 975 q 191 955 170 966 q 229 933 211 944 q 263 911 248 922 q 290 891 278 900 l 294 891 q 322 910 306 900 q 357 932 338 921 q 396 954 375 943 q 438 975 417 965 l 452 956 z "},"Ş":{"ha":488,"x_min":29,"x_max":459,"o":"m 70 199 q 68 184 68 191 q 68 169 68 176 q 78 103 68 130 q 108 59 89 76 q 154 35 127 42 q 214 27 181 27 q 278 36 248 27 q 331 64 308 46 q 368 111 354 83 q 381 175 381 138 q 375 217 381 198 q 358 252 369 236 q 331 282 347 268 q 299 307 316 295 q 261 330 281 319 q 221 353 241 341 q 179 376 200 364 q 138 402 157 389 q 102 433 119 416 q 73 468 85 449 q 54 512 61 488 q 47 564 47 535 q 57 631 47 600 q 82 688 66 662 q 122 734 99 714 q 172 769 144 755 q 230 790 199 783 q 294 798 261 798 q 326 796 309 798 q 359 790 342 794 q 392 781 376 786 q 419 769 407 776 q 438 754 431 762 q 445 737 445 746 q 445 712 445 727 q 444 679 445 697 q 443 638 444 660 q 440 591 441 615 l 406 592 q 407 616 407 605 q 397 675 407 649 q 369 718 387 701 q 325 743 351 735 q 268 752 299 752 q 210 742 237 752 q 163 713 183 731 q 133 669 144 694 q 121 613 121 644 q 128 568 121 588 q 146 531 134 548 q 173 500 157 514 q 207 474 188 486 q 245 450 225 461 q 286 428 266 439 q 329 405 308 417 q 369 380 350 393 q 405 350 389 366 q 434 316 421 335 q 453 273 446 296 q 459 222 459 250 q 450 150 459 182 q 423 92 440 117 q 384 48 407 67 q 337 17 362 30 q 286 -4 312 4 q 234 -15 259 -12 q 214 -43 220 -33 q 209 -61 209 -54 q 215 -74 209 -68 q 230 -88 221 -81 q 249 -102 239 -95 q 269 -117 260 -109 q 284 -135 278 -125 q 290 -156 290 -144 q 285 -180 290 -166 q 267 -213 280 -194 q 230 -257 254 -232 q 171 -315 207 -282 l 155 -300 q 188 -262 175 -278 q 208 -232 201 -245 q 217 -210 215 -219 q 220 -193 220 -200 q 214 -176 220 -184 q 201 -162 209 -169 q 183 -149 192 -155 q 165 -136 173 -142 q 151 -122 156 -129 q 145 -105 145 -114 q 148 -90 145 -98 q 157 -72 151 -82 q 173 -48 163 -62 q 199 -18 184 -35 l 191 -18 q 128 -13 158 -18 q 76 -2 99 -9 q 42 15 54 6 q 29 35 29 25 q 30 100 29 58 q 35 201 32 143 l 70 199 z "},"Ș":{"ha":488,"x_min":29,"x_max":459,"o":"m 70 199 q 68 184 68 191 q 68 169 68 176 q 78 103 68 130 q 108 59 89 76 q 154 35 127 42 q 214 27 181 27 q 278 36 248 27 q 331 64 308 46 q 368 111 354 83 q 381 175 381 138 q 375 217 381 198 q 358 252 369 236 q 331 282 347 268 q 299 307 316 295 q 261 330 281 319 q 221 353 241 341 q 179 376 200 364 q 138 402 157 389 q 102 433 119 416 q 73 468 85 449 q 54 512 61 488 q 47 564 47 535 q 57 631 47 600 q 82 688 66 662 q 122 734 99 714 q 172 769 144 755 q 230 790 199 783 q 294 798 261 798 q 326 796 309 798 q 359 790 342 794 q 392 781 376 786 q 419 769 407 776 q 438 754 431 762 q 445 737 445 746 q 445 712 445 727 q 444 679 445 697 q 443 638 444 660 q 440 591 441 615 l 406 592 q 407 616 407 605 q 397 675 407 649 q 369 718 387 701 q 325 743 351 735 q 268 752 299 752 q 210 742 237 752 q 163 713 183 731 q 133 669 144 694 q 121 613 121 644 q 128 568 121 588 q 146 531 134 548 q 173 500 157 514 q 207 474 188 486 q 245 450 225 461 q 286 428 266 439 q 329 405 308 417 q 369 380 350 393 q 405 350 389 366 q 434 316 421 335 q 453 273 446 296 q 459 222 459 250 q 447 140 459 176 q 413 77 434 104 q 364 32 391 51 q 306 3 336 14 q 247 -13 276 -8 q 191 -18 217 -18 q 128 -14 158 -18 q 76 -2 99 -9 q 42 15 54 6 q 29 35 29 25 q 30 100 29 58 q 35 201 32 143 l 70 199 m 174 -130 q 170 -105 170 -118 q 173 -86 170 -95 q 183 -72 177 -78 q 198 -62 190 -66 q 216 -59 207 -59 q 242 -65 231 -59 q 260 -81 253 -71 q 272 -103 268 -90 q 276 -129 276 -115 q 267 -183 276 -157 q 243 -232 258 -209 q 209 -277 228 -256 q 168 -317 189 -299 l 151 -302 q 179 -271 167 -286 q 199 -242 191 -256 q 210 -213 207 -228 q 214 -183 214 -199 q 204 -151 214 -165 q 174 -130 195 -137 z "},"Ť":{"ha":570,"x_min":4,"x_max":606,"o":"m 39 579 l 5 581 q 4 653 4 622 q 7 710 4 686 q 20 749 10 733 q 48 771 30 764 q 97 778 66 778 q 141 777 116 778 q 194 775 166 776 q 251 773 222 774 q 308 772 281 772 q 390 772 354 772 q 452 773 425 772 q 500 774 480 773 q 538 776 521 774 q 570 779 555 777 q 600 784 585 781 q 606 757 606 767 q 587 723 606 734 q 531 711 568 711 q 449 715 496 711 q 342 723 402 719 q 340 616 341 673 q 337 498 338 559 q 333 374 335 437 q 329 247 331 310 q 325 121 327 183 q 322 0 323 58 l 241 -10 l 235 -9 q 240 115 238 55 q 245 232 243 174 q 249 346 247 289 q 251 464 250 403 q 253 589 252 524 q 254 728 254 654 q 214 729 234 729 q 174 730 194 730 q 135 729 153 730 q 102 724 117 728 q 75 712 87 720 q 55 687 63 703 q 43 647 47 671 q 39 587 39 623 l 39 579 m 468 956 q 396 896 431 927 q 332 831 360 864 l 279 826 l 274 826 q 250 858 264 842 q 220 891 237 875 q 186 924 204 908 q 148 956 168 940 l 163 975 q 206 955 185 966 q 245 933 227 944 q 278 911 263 922 q 306 891 294 900 l 309 891 q 337 910 321 900 q 372 932 353 921 q 411 954 391 943 q 454 975 432 965 l 468 956 z "},"Ţ":{"ha":570,"x_min":4,"x_max":606,"o":"m 322 0 q 289 -40 298 -25 q 279 -64 279 -55 q 285 -78 279 -71 q 299 -90 291 -84 q 318 -103 308 -97 q 336 -118 328 -110 q 350 -135 345 -125 q 356 -156 356 -144 q 351 -180 356 -166 q 333 -213 346 -194 q 297 -257 320 -232 q 237 -315 273 -282 l 221 -300 q 254 -262 241 -278 q 274 -232 267 -245 q 283 -210 281 -219 q 286 -193 286 -200 q 281 -176 286 -184 q 268 -163 275 -169 q 251 -151 260 -156 q 234 -139 242 -145 q 221 -125 226 -132 q 216 -108 216 -118 q 232 -69 216 -93 q 284 -6 248 -44 l 283 -4 l 241 -9 l 235 -9 q 240 115 238 56 q 245 232 243 175 q 249 346 247 289 q 251 464 250 404 q 253 589 252 524 q 254 728 254 654 q 214 729 234 729 q 174 730 194 730 q 135 729 153 730 q 102 724 117 728 q 75 712 87 720 q 55 687 63 703 q 43 647 47 671 q 39 587 39 623 l 39 579 l 5 581 q 4 653 4 622 q 7 710 4 686 q 20 749 10 733 q 48 771 30 764 q 97 778 66 778 q 141 777 116 778 q 194 775 166 776 q 251 773 222 774 q 308 772 281 772 q 390 772 354 772 q 452 773 425 772 q 500 774 480 773 q 538 776 521 774 q 570 779 555 777 q 600 784 585 781 q 606 757 606 767 q 587 723 606 734 q 531 711 568 711 q 449 715 496 711 q 342 723 402 719 q 340 616 341 673 q 337 498 338 559 q 333 374 335 437 q 329 247 331 310 q 325 121 327 183 q 322 0 323 58 z "},"Ț":{"ha":570,"x_min":4,"x_max":606,"o":"m 39 579 l 5 581 q 4 653 4 622 q 7 710 4 686 q 20 749 10 733 q 48 771 30 764 q 97 778 66 778 q 141 777 116 778 q 194 775 166 776 q 251 773 222 774 q 308 772 281 772 q 390 772 354 772 q 452 773 425 772 q 500 774 480 773 q 538 776 521 774 q 570 779 555 777 q 600 784 585 781 q 606 757 606 767 q 587 723 606 734 q 531 711 568 711 q 449 715 496 711 q 342 723 402 719 q 340 616 341 673 q 337 498 338 559 q 333 374 335 437 q 329 247 331 310 q 325 121 327 183 q 322 0 323 58 l 241 -10 l 235 -9 q 240 115 238 55 q 245 232 243 174 q 249 346 247 289 q 251 464 250 403 q 253 589 252 524 q 254 728 254 654 q 214 729 234 729 q 174 730 194 730 q 135 729 153 730 q 102 724 117 728 q 75 712 87 720 q 55 687 63 703 q 43 647 47 671 q 39 587 39 623 l 39 579 m 228 -130 q 224 -105 224 -118 q 227 -86 224 -95 q 237 -72 231 -78 q 252 -62 243 -66 q 270 -59 260 -59 q 296 -65 284 -59 q 314 -81 307 -71 q 326 -103 322 -90 q 330 -129 330 -115 q 321 -183 330 -157 q 297 -232 312 -209 q 262 -277 282 -256 q 221 -317 243 -299 l 205 -302 q 233 -271 221 -286 q 253 -242 245 -256 q 264 -213 260 -228 q 268 -183 268 -199 q 258 -151 268 -165 q 228 -130 249 -137 z "},"Ŧ":{"ha":570,"x_min":4,"x_max":606,"o":"m 39 579 l 5 581 q 4 653 4 622 q 7 710 4 686 q 20 749 10 733 q 48 771 30 764 q 97 778 66 778 q 141 777 116 778 q 194 775 166 776 q 251 773 222 774 q 308 772 281 772 q 390 772 354 772 q 452 773 425 772 q 500 774 480 773 q 538 776 521 774 q 570 779 555 777 q 600 784 585 781 q 606 757 606 767 q 587 723 606 734 q 531 711 568 711 q 449 715 496 711 q 342 723 402 719 q 339 573 341 653 q 334 405 337 493 q 389 403 364 404 q 430 402 414 402 q 466 404 449 402 q 495 408 484 406 q 499 395 498 401 q 500 385 500 389 q 483 360 500 366 q 430 354 466 354 q 388 356 414 354 q 333 360 362 358 q 327 176 330 267 q 322 0 324 86 l 241 -10 l 235 -9 q 239 89 237 42 q 243 183 241 137 q 246 273 244 229 q 249 364 248 318 q 244 364 246 364 q 239 364 241 364 l 231 364 q 193 363 213 364 q 154 361 173 363 q 119 357 136 360 q 91 350 102 354 q 89 358 89 354 q 96 377 89 369 q 115 390 103 385 q 142 399 126 396 q 175 404 158 402 q 211 407 193 406 q 247 407 229 407 l 250 407 q 253 558 252 480 q 254 728 254 637 q 214 729 234 729 q 174 730 194 730 q 135 729 153 730 q 102 724 117 728 q 75 712 87 720 q 55 687 63 703 q 43 647 47 671 q 39 587 39 623 l 39 579 z "},"Ù":{"ha":779,"x_min":26,"x_max":803,"o":"m 686 772 q 674 629 679 697 q 666 496 669 561 q 661 367 663 431 q 660 238 660 303 q 661 150 660 187 q 669 88 662 113 q 687 52 675 64 q 723 40 700 40 q 753 43 736 40 q 794 55 770 45 l 803 28 q 765 11 784 18 q 727 -3 746 3 q 692 -12 709 -9 q 661 -15 675 -15 q 620 -5 636 -15 q 595 23 604 5 q 583 67 586 42 q 579 123 579 93 q 581 194 579 157 q 586 271 583 231 l 582 272 q 556 205 571 239 q 521 138 541 170 q 478 77 502 106 q 425 28 454 49 q 364 -6 397 6 q 294 -18 332 -18 q 226 -7 255 -18 q 176 23 197 4 q 141 68 155 42 q 120 126 127 95 q 109 193 112 158 q 106 264 106 228 q 109 346 106 303 q 115 433 111 389 q 124 517 119 476 q 132 591 129 557 q 139 650 136 625 q 142 685 142 674 q 140 705 142 696 q 132 720 138 714 q 116 729 126 726 q 89 731 105 731 q 63 730 78 731 q 30 726 48 729 l 26 755 q 113 773 78 767 q 172 780 149 780 q 200 776 189 780 q 218 765 211 773 q 227 746 224 758 q 230 720 230 735 q 227 686 230 710 q 220 627 224 662 q 211 550 216 592 q 202 461 207 507 q 196 369 198 415 q 193 279 193 322 q 194 224 193 252 q 201 172 196 197 q 214 125 205 147 q 237 86 223 103 q 272 61 252 70 q 322 52 293 52 q 388 67 356 52 q 448 110 420 82 q 500 176 476 138 q 541 260 523 214 q 568 358 558 306 q 582 464 579 409 q 583 504 583 484 q 585 544 584 524 q 587 587 586 565 q 589 634 588 609 q 593 688 591 659 q 597 752 594 718 q 601 765 597 760 q 612 775 605 771 q 626 780 618 779 q 642 782 633 782 q 663 780 651 782 q 686 772 675 777 m 535 819 q 487 832 512 825 q 436 848 461 840 q 387 865 411 856 q 345 881 364 873 q 313 896 326 889 q 297 907 300 903 q 292 917 294 911 q 291 928 291 922 q 295 951 291 939 q 304 973 298 964 l 314 976 q 363 939 338 957 q 416 905 388 922 q 476 873 444 888 q 544 842 508 857 l 535 819 z "},"Ú":{"ha":779,"x_min":26,"x_max":803,"o":"m 686 772 q 674 629 679 697 q 666 496 669 561 q 661 367 663 431 q 660 238 660 303 q 661 150 660 187 q 669 88 662 113 q 687 52 675 64 q 723 40 700 40 q 753 43 736 40 q 794 55 770 45 l 803 28 q 765 11 784 18 q 727 -3 746 3 q 692 -12 709 -9 q 661 -15 675 -15 q 620 -5 636 -15 q 595 23 604 5 q 583 67 586 42 q 579 123 579 93 q 581 194 579 157 q 586 271 583 231 l 582 272 q 556 205 571 239 q 521 138 541 170 q 478 77 502 106 q 425 28 454 49 q 364 -6 397 6 q 294 -18 332 -18 q 226 -7 255 -18 q 176 23 197 4 q 141 68 155 42 q 120 126 127 95 q 109 193 112 158 q 106 264 106 228 q 109 346 106 303 q 115 433 111 389 q 124 517 119 476 q 132 591 129 557 q 139 650 136 625 q 142 685 142 674 q 140 705 142 696 q 132 720 138 714 q 116 729 126 726 q 89 731 105 731 q 63 730 78 731 q 30 726 48 729 l 26 755 q 113 773 78 767 q 172 780 149 780 q 200 776 189 780 q 218 765 211 773 q 227 746 224 758 q 230 720 230 735 q 227 686 230 710 q 220 627 224 662 q 211 550 216 592 q 202 461 207 507 q 196 369 198 415 q 193 279 193 322 q 194 224 193 252 q 201 172 196 197 q 214 125 205 147 q 237 86 223 103 q 272 61 252 70 q 322 52 293 52 q 388 67 356 52 q 448 110 420 82 q 500 176 476 138 q 541 260 523 214 q 568 358 558 306 q 582 464 579 409 q 583 504 583 484 q 585 544 584 524 q 587 587 586 565 q 589 634 588 609 q 593 688 591 659 q 597 752 594 718 q 601 765 597 760 q 612 775 605 771 q 626 780 618 779 q 642 782 633 782 q 663 780 651 782 q 686 772 675 777 m 309 842 q 436 903 378 870 q 538 976 494 937 l 548 973 q 557 954 553 965 q 561 931 561 942 q 558 914 561 922 q 548 901 555 907 q 528 890 542 897 q 497 877 515 884 q 456 861 478 869 q 410 846 434 853 q 363 831 387 838 q 318 819 339 824 l 309 842 z "},"Û":{"ha":779,"x_min":26,"x_max":803,"o":"m 686 772 q 674 629 679 697 q 666 496 669 561 q 661 367 663 431 q 660 238 660 303 q 661 150 660 187 q 669 88 662 113 q 687 52 675 64 q 723 40 700 40 q 753 43 736 40 q 794 55 770 45 l 803 28 q 765 11 784 18 q 727 -3 746 3 q 692 -12 709 -9 q 661 -15 675 -15 q 620 -5 636 -15 q 595 23 604 5 q 583 67 586 42 q 579 123 579 93 q 581 194 579 157 q 586 271 583 231 l 582 272 q 556 205 571 239 q 521 138 541 170 q 478 77 502 106 q 425 28 454 49 q 364 -6 397 6 q 294 -18 332 -18 q 226 -7 255 -18 q 176 23 197 4 q 141 68 155 42 q 120 126 127 95 q 109 193 112 158 q 106 264 106 228 q 109 346 106 303 q 115 433 111 389 q 124 517 119 476 q 132 591 129 557 q 139 650 136 625 q 142 685 142 674 q 140 705 142 696 q 132 720 138 714 q 116 729 126 726 q 89 731 105 731 q 63 730 78 731 q 30 726 48 729 l 26 755 q 113 773 78 767 q 172 780 149 780 q 200 776 189 780 q 218 765 211 773 q 227 746 224 758 q 230 720 230 735 q 227 686 230 710 q 220 627 224 662 q 211 550 216 592 q 202 461 207 507 q 196 369 198 415 q 193 279 193 322 q 194 224 193 252 q 201 172 196 197 q 214 125 205 147 q 237 86 223 103 q 272 61 252 70 q 322 52 293 52 q 388 67 356 52 q 448 110 420 82 q 500 176 476 138 q 541 260 523 214 q 568 358 558 306 q 582 464 579 409 q 583 504 583 484 q 585 544 584 524 q 587 587 586 565 q 589 634 588 609 q 593 688 591 659 q 597 752 594 718 q 601 765 597 760 q 612 775 605 771 q 626 780 618 779 q 642 782 633 782 q 663 780 651 782 q 686 772 675 777 m 266 840 q 337 901 303 869 q 401 963 371 932 q 431 975 412 975 q 444 974 437 975 q 459 970 451 972 q 483 938 470 954 q 513 906 497 922 q 548 874 530 890 q 586 842 566 858 l 571 824 q 528 843 548 832 q 489 865 507 853 q 455 887 471 876 q 428 906 440 898 l 425 906 q 396 886 413 898 q 359 863 379 874 q 319 840 339 851 q 280 822 298 829 l 266 840 z "},"Ũ":{"ha":779,"x_min":26,"x_max":803,"o":"m 686 772 q 674 629 679 697 q 666 496 669 561 q 661 367 663 431 q 660 238 660 303 q 661 150 660 187 q 669 88 662 113 q 687 52 675 64 q 723 40 700 40 q 753 43 736 40 q 794 55 770 45 l 803 28 q 765 11 784 18 q 727 -3 746 3 q 692 -12 709 -9 q 661 -15 675 -15 q 620 -5 636 -15 q 595 23 604 5 q 583 67 586 42 q 579 123 579 93 q 581 194 579 157 q 586 271 583 231 l 582 272 q 556 205 571 239 q 521 138 541 170 q 478 77 502 106 q 425 28 454 49 q 364 -6 397 6 q 294 -18 332 -18 q 226 -7 255 -18 q 176 23 197 4 q 141 68 155 42 q 120 126 127 95 q 109 193 112 158 q 106 264 106 228 q 109 346 106 303 q 115 433 111 389 q 124 517 119 476 q 132 591 129 557 q 139 650 136 625 q 142 685 142 674 q 140 705 142 696 q 132 720 138 714 q 116 729 126 726 q 89 731 105 731 q 63 730 78 731 q 30 726 48 729 l 26 755 q 113 773 78 767 q 172 780 149 780 q 200 776 189 780 q 218 765 211 773 q 227 746 224 758 q 230 720 230 735 q 227 686 230 710 q 220 627 224 662 q 211 550 216 592 q 202 461 207 507 q 196 369 198 415 q 193 279 193 322 q 194 224 193 252 q 201 172 196 197 q 214 125 205 147 q 237 86 223 103 q 272 61 252 70 q 322 52 293 52 q 388 67 356 52 q 448 110 420 82 q 500 176 476 138 q 541 260 523 214 q 568 358 558 306 q 582 464 579 409 q 583 504 583 484 q 585 544 584 524 q 587 587 586 565 q 589 634 588 609 q 593 688 591 659 q 597 752 594 718 q 601 765 597 760 q 612 775 605 771 q 626 780 618 779 q 642 782 633 782 q 663 780 651 782 q 686 772 675 777 m 592 961 q 579 920 587 941 q 558 881 570 899 q 528 852 546 863 q 489 840 511 840 q 454 847 472 840 q 417 862 435 854 q 382 876 399 870 q 348 883 365 883 q 327 878 336 883 q 312 865 318 873 q 300 847 305 857 q 293 825 296 837 l 271 829 q 280 870 274 849 q 298 909 287 891 q 326 937 309 926 q 365 948 342 948 q 397 942 380 948 q 439 926 415 936 q 473 913 457 919 q 505 907 489 907 q 528 912 518 907 q 546 925 538 917 q 560 944 554 933 q 572 966 566 954 l 592 961 z "},"Ü":{"ha":779,"x_min":26,"x_max":803,"o":"m 686 772 q 674 629 679 697 q 666 496 669 561 q 661 367 663 431 q 660 238 660 303 q 661 150 660 187 q 669 88 662 113 q 687 52 675 64 q 723 40 700 40 q 753 43 736 40 q 794 55 770 45 l 803 28 q 765 11 784 18 q 727 -3 746 3 q 692 -12 709 -9 q 661 -15 675 -15 q 620 -5 636 -15 q 595 23 604 5 q 583 67 586 42 q 579 123 579 93 q 581 194 579 157 q 586 271 583 231 l 582 272 q 556 205 571 239 q 521 138 541 170 q 478 77 502 106 q 425 28 454 49 q 364 -6 397 6 q 294 -18 332 -18 q 226 -7 255 -18 q 176 23 197 4 q 141 68 155 42 q 120 126 127 95 q 109 193 112 158 q 106 264 106 228 q 109 346 106 303 q 115 433 111 389 q 124 517 119 476 q 132 591 129 557 q 139 650 136 625 q 142 685 142 674 q 140 705 142 696 q 132 720 138 714 q 116 729 126 726 q 89 731 105 731 q 63 730 78 731 q 30 726 48 729 l 26 755 q 113 773 78 767 q 172 780 149 780 q 200 776 189 780 q 218 765 211 773 q 227 746 224 758 q 230 720 230 735 q 227 686 230 710 q 220 627 224 662 q 211 550 216 592 q 202 461 207 507 q 196 369 198 415 q 193 279 193 322 q 194 224 193 252 q 201 172 196 197 q 214 125 205 147 q 237 86 223 103 q 272 61 252 70 q 322 52 293 52 q 388 67 356 52 q 448 110 420 82 q 500 176 476 138 q 541 260 523 214 q 568 358 558 306 q 582 464 579 409 q 583 504 583 484 q 585 544 584 524 q 587 587 586 565 q 589 634 588 609 q 593 688 591 659 q 597 752 594 718 q 601 765 597 760 q 612 775 605 771 q 626 780 618 779 q 642 782 633 782 q 663 780 651 782 q 686 772 675 777 m 324 843 q 304 847 313 843 q 289 859 295 851 q 279 875 282 866 q 276 894 276 884 q 281 917 276 907 q 294 935 286 928 q 311 945 301 941 q 329 948 320 948 q 349 945 340 948 q 364 934 358 941 q 374 919 371 928 q 377 901 377 910 q 374 880 377 890 q 362 861 370 870 q 346 848 355 853 q 324 843 336 843 m 522 843 q 502 847 511 843 q 487 859 493 851 q 478 875 481 866 q 474 894 474 884 q 479 917 474 907 q 492 935 484 928 q 509 945 499 941 q 528 948 518 948 q 548 945 539 948 q 563 934 556 941 q 572 919 569 928 q 576 901 576 910 q 572 880 576 890 q 561 861 568 870 q 544 848 554 853 q 522 843 534 843 z "},"Ū":{"ha":779,"x_min":26,"x_max":803,"o":"m 686 772 q 674 629 679 697 q 666 496 669 561 q 661 367 663 431 q 660 238 660 303 q 661 150 660 187 q 669 88 662 113 q 687 52 675 64 q 723 40 700 40 q 753 43 736 40 q 794 55 770 45 l 803 28 q 765 11 784 18 q 727 -3 746 3 q 692 -12 709 -9 q 661 -15 675 -15 q 620 -5 636 -15 q 595 23 604 5 q 583 67 586 42 q 579 123 579 93 q 581 194 579 157 q 586 271 583 231 l 582 272 q 556 205 571 239 q 521 138 541 170 q 478 77 502 106 q 425 28 454 49 q 364 -6 397 6 q 294 -18 332 -18 q 226 -7 255 -18 q 176 23 197 4 q 141 68 155 42 q 120 126 127 95 q 109 193 112 158 q 106 264 106 228 q 109 346 106 303 q 115 433 111 389 q 124 517 119 476 q 132 591 129 557 q 139 650 136 625 q 142 685 142 674 q 140 705 142 696 q 132 720 138 714 q 116 729 126 726 q 89 731 105 731 q 63 730 78 731 q 30 726 48 729 l 26 755 q 113 773 78 767 q 172 780 149 780 q 200 776 189 780 q 218 765 211 773 q 227 746 224 758 q 230 720 230 735 q 227 686 230 710 q 220 627 224 662 q 211 550 216 592 q 202 461 207 507 q 196 369 198 415 q 193 279 193 322 q 194 224 193 252 q 201 172 196 197 q 214 125 205 147 q 237 86 223 103 q 272 61 252 70 q 322 52 293 52 q 388 67 356 52 q 448 110 420 82 q 500 176 476 138 q 541 260 523 214 q 568 358 558 306 q 582 464 579 409 q 583 504 583 484 q 585 544 584 524 q 587 587 586 565 q 589 634 588 609 q 593 688 591 659 q 597 752 594 718 q 601 765 597 760 q 612 775 605 771 q 626 780 618 779 q 642 782 633 782 q 663 780 651 782 q 686 772 675 777 m 569 911 q 574 897 572 903 q 575 885 575 891 q 572 870 575 876 q 561 862 568 865 q 543 858 554 859 q 517 857 532 857 q 489 857 506 857 q 453 858 473 858 q 411 858 433 858 q 365 859 389 859 q 320 857 342 859 q 276 849 298 856 q 283 879 276 868 q 305 897 291 891 q 339 905 319 903 q 382 907 359 907 q 408 907 394 907 q 437 907 422 907 l 468 906 l 496 906 q 535 907 516 906 q 569 911 553 908 z "},"Ŭ":{"ha":779,"x_min":26,"x_max":803,"o":"m 686 772 q 674 629 679 697 q 666 496 669 561 q 661 367 663 431 q 660 238 660 303 q 661 150 660 187 q 669 88 662 113 q 687 52 675 64 q 723 40 700 40 q 753 43 736 40 q 794 55 770 45 l 803 28 q 765 11 784 18 q 727 -3 746 3 q 692 -12 709 -9 q 661 -15 675 -15 q 620 -5 636 -15 q 595 23 604 5 q 583 67 586 42 q 579 123 579 93 q 581 194 579 157 q 586 271 583 231 l 582 272 q 556 205 571 239 q 521 138 541 170 q 478 77 502 106 q 425 28 454 49 q 364 -6 397 6 q 294 -18 332 -18 q 226 -7 255 -18 q 176 23 197 4 q 141 68 155 42 q 120 126 127 95 q 109 193 112 158 q 106 264 106 228 q 109 346 106 303 q 115 433 111 389 q 124 517 119 476 q 132 591 129 557 q 139 650 136 625 q 142 685 142 674 q 140 705 142 696 q 132 720 138 714 q 116 729 126 726 q 89 731 105 731 q 63 730 78 731 q 30 726 48 729 l 26 755 q 113 773 78 767 q 172 780 149 780 q 200 776 189 780 q 218 765 211 773 q 227 746 224 758 q 230 720 230 735 q 227 686 230 710 q 220 627 224 662 q 211 550 216 592 q 202 461 207 507 q 196 369 198 415 q 193 279 193 322 q 194 224 193 252 q 201 172 196 197 q 214 125 205 147 q 237 86 223 103 q 272 61 252 70 q 322 52 293 52 q 388 67 356 52 q 448 110 420 82 q 500 176 476 138 q 541 260 523 214 q 568 358 558 306 q 582 464 579 409 q 583 504 583 484 q 585 544 584 524 q 587 587 586 565 q 589 634 588 609 q 593 688 591 659 q 597 752 594 718 q 601 765 597 760 q 612 775 605 771 q 626 780 618 779 q 642 782 633 782 q 663 780 651 782 q 686 772 675 777 m 578 966 q 556 910 570 936 q 524 867 543 885 q 479 838 504 848 q 422 828 454 828 q 363 838 389 828 q 319 865 337 849 q 291 901 301 882 q 282 938 282 920 q 291 962 282 952 q 316 971 300 971 q 327 970 321 971 q 339 966 332 969 q 372 900 348 923 q 438 878 397 878 q 480 885 462 878 q 512 905 498 892 q 536 936 526 918 q 555 973 547 953 l 578 966 z "},"Ů":{"ha":779,"x_min":26,"x_max":803,"o":"m 686 772 q 674 629 679 697 q 666 496 669 561 q 661 367 663 431 q 660 238 660 303 q 661 150 660 187 q 669 88 662 113 q 687 52 675 64 q 723 40 700 40 q 753 43 736 40 q 794 55 770 45 l 803 28 q 765 11 784 18 q 727 -3 746 3 q 692 -12 709 -9 q 661 -15 675 -15 q 620 -5 636 -15 q 595 23 604 5 q 583 67 586 42 q 579 123 579 93 q 581 194 579 157 q 586 271 583 231 l 582 272 q 556 205 571 239 q 521 138 541 170 q 478 77 502 106 q 425 28 454 49 q 364 -6 397 6 q 294 -18 332 -18 q 226 -7 255 -18 q 176 23 197 4 q 141 68 155 42 q 120 126 127 95 q 109 193 112 158 q 106 264 106 228 q 109 346 106 303 q 115 433 111 389 q 124 517 119 476 q 132 591 129 557 q 139 650 136 625 q 142 685 142 674 q 140 705 142 696 q 132 720 138 714 q 116 729 126 726 q 89 731 105 731 q 63 730 78 731 q 30 726 48 729 l 26 755 q 113 773 78 767 q 172 780 149 780 q 200 776 189 780 q 218 765 211 773 q 227 746 224 758 q 230 720 230 735 q 227 686 230 710 q 220 627 224 662 q 211 550 216 592 q 202 461 207 507 q 196 369 198 415 q 193 279 193 322 q 194 224 193 252 q 201 172 196 197 q 214 125 205 147 q 237 86 223 103 q 272 61 252 70 q 322 52 293 52 q 388 67 356 52 q 448 110 420 82 q 500 176 476 138 q 541 260 523 214 q 568 358 558 306 q 582 464 579 409 q 583 504 583 484 q 585 544 584 524 q 587 587 586 565 q 589 634 588 609 q 593 688 591 659 q 597 752 594 718 q 601 765 597 760 q 612 775 605 771 q 626 780 618 779 q 642 782 633 782 q 663 780 651 782 q 686 772 675 777 m 431 983 q 473 977 456 983 q 503 960 491 970 q 520 936 514 949 q 525 908 525 923 q 518 876 525 892 q 498 846 511 859 q 465 825 484 833 q 420 817 445 817 q 381 824 398 817 q 355 841 365 830 q 339 865 344 851 q 333 893 333 879 q 340 926 333 910 q 358 955 346 942 q 389 975 371 967 q 431 983 407 983 m 424 964 q 399 958 410 964 q 380 942 388 952 q 369 920 373 933 q 365 896 365 908 q 368 874 365 884 q 378 855 371 863 q 395 842 385 847 q 419 837 405 837 q 443 843 433 837 q 461 858 454 848 q 471 879 468 867 q 475 904 475 891 q 471 926 475 915 q 462 945 468 937 q 446 959 456 954 q 424 964 436 964 z "},"Ű":{"ha":779,"x_min":26,"x_max":803,"o":"m 686 772 q 674 629 679 697 q 666 496 669 561 q 661 367 663 431 q 660 238 660 303 q 661 150 660 187 q 669 88 662 113 q 687 52 675 64 q 723 40 700 40 q 753 43 736 40 q 794 55 770 45 l 803 28 q 765 11 784 18 q 727 -3 746 3 q 692 -12 709 -9 q 661 -15 675 -15 q 620 -5 636 -15 q 595 23 604 5 q 583 67 586 42 q 579 123 579 93 q 581 194 579 157 q 586 271 583 231 l 582 272 q 556 205 571 239 q 521 138 541 170 q 478 77 502 106 q 425 28 454 49 q 364 -6 397 6 q 294 -18 332 -18 q 226 -7 255 -18 q 176 23 197 4 q 141 68 155 42 q 120 126 127 95 q 109 193 112 158 q 106 264 106 228 q 109 346 106 303 q 115 433 111 389 q 124 517 119 476 q 132 591 129 557 q 139 650 136 625 q 142 685 142 674 q 140 705 142 696 q 132 720 138 714 q 116 729 126 726 q 89 731 105 731 q 63 730 78 731 q 30 726 48 729 l 26 755 q 113 773 78 767 q 172 780 149 780 q 200 776 189 780 q 218 765 211 773 q 227 746 224 758 q 230 720 230 735 q 227 686 230 710 q 220 627 224 662 q 211 550 216 592 q 202 461 207 507 q 196 369 198 415 q 193 279 193 322 q 194 224 193 252 q 201 172 196 197 q 214 125 205 147 q 237 86 223 103 q 272 61 252 70 q 322 52 293 52 q 388 67 356 52 q 448 110 420 82 q 500 176 476 138 q 541 260 523 214 q 568 358 558 306 q 582 464 579 409 q 583 504 583 484 q 585 544 584 524 q 587 587 586 565 q 589 634 588 609 q 593 688 591 659 q 597 752 594 718 q 601 765 597 760 q 612 775 605 771 q 626 780 618 779 q 642 782 633 782 q 663 780 651 782 q 686 772 675 777 m 295 840 q 382 901 342 868 q 449 973 421 933 l 458 972 q 468 951 464 963 q 472 928 472 940 q 470 912 472 920 q 461 899 467 905 q 438 882 455 892 q 400 861 422 872 q 353 838 378 849 q 306 819 329 827 l 295 840 m 458 843 q 545 904 506 872 q 612 977 584 937 l 621 975 q 631 955 627 966 q 635 930 635 943 q 633 915 635 923 q 625 901 630 907 q 612 891 621 897 q 591 878 603 885 q 564 864 578 871 q 533 849 549 857 q 501 835 517 842 q 469 822 485 828 l 458 843 z "},"Ų":{"ha":779,"x_min":26,"x_max":803,"o":"m 294 -18 q 226 -7 255 -18 q 176 23 197 4 q 141 68 155 42 q 120 126 127 95 q 109 193 112 158 q 106 264 106 228 q 109 346 106 303 q 115 433 111 389 q 124 517 119 476 q 132 591 129 557 q 139 650 136 625 q 142 685 142 674 q 140 705 142 696 q 132 720 138 714 q 116 729 126 726 q 89 731 105 731 q 63 730 78 731 q 30 726 48 729 l 26 755 q 113 773 78 767 q 172 780 149 780 q 200 776 189 780 q 218 765 211 773 q 227 746 224 758 q 230 720 230 735 q 227 686 230 710 q 220 627 224 662 q 211 550 216 592 q 202 461 207 507 q 196 369 198 415 q 193 279 193 322 q 194 224 193 252 q 201 172 196 197 q 214 125 205 147 q 237 86 223 103 q 272 61 252 70 q 322 52 293 52 q 388 67 356 52 q 448 110 420 82 q 500 176 476 138 q 541 260 523 214 q 568 358 558 306 q 582 464 579 409 q 583 504 583 484 q 585 544 584 524 q 587 587 586 565 q 589 634 588 609 q 593 688 591 659 q 597 752 594 718 q 601 765 597 760 q 612 775 605 771 q 626 780 618 779 q 642 782 633 782 q 663 780 651 782 q 686 772 675 777 q 674 629 679 697 q 666 496 669 561 q 661 367 663 431 q 660 238 660 303 q 661 150 660 187 q 668 88 662 113 q 687 52 674 64 q 723 40 700 40 q 753 43 736 40 q 794 55 770 45 l 803 28 q 740 1 770 12 q 685 -28 709 -9 q 645 -69 661 -46 q 620 -114 629 -91 q 612 -158 612 -138 q 616 -185 612 -173 q 626 -206 619 -197 q 645 -220 634 -215 q 670 -225 655 -225 q 720 -210 693 -225 q 768 -165 746 -195 l 784 -179 q 749 -227 768 -207 q 710 -261 730 -247 q 670 -280 690 -274 q 632 -287 650 -287 q 594 -280 611 -287 q 563 -261 576 -273 q 543 -230 550 -248 q 535 -189 535 -212 q 542 -149 535 -171 q 565 -104 549 -126 q 604 -58 580 -81 q 661 -16 628 -36 l 661 -14 q 620 -4 636 -14 q 595 24 604 6 q 583 67 586 42 q 579 123 579 93 q 581 194 579 157 q 586 271 583 231 l 582 272 q 556 205 571 239 q 521 138 541 170 q 478 77 502 106 q 425 28 454 49 q 364 -6 397 6 q 294 -18 332 -18 z "},"Ẁ":{"ha":987,"x_min":-41,"x_max":980,"o":"m 644 -13 l 637 -12 q 618 104 627 51 q 598 206 608 158 q 579 297 589 254 q 561 380 570 340 q 539 484 549 437 q 518 576 529 532 l 516 576 q 488 481 502 527 q 460 391 474 435 q 429 301 445 346 q 396 207 413 256 q 358 105 378 159 q 316 -8 338 52 l 258 -13 l 251 -12 q 159 428 197 259 q 97 664 120 596 q 84 695 91 682 q 68 715 78 707 q 47 727 59 724 q 17 731 35 731 q -7 730 6 731 q -37 725 -21 728 l -41 755 q 47 775 12 768 q 104 782 81 782 q 134 777 122 782 q 154 762 145 772 q 168 733 162 751 q 181 691 174 716 q 204 602 191 656 q 235 474 218 548 q 271 308 251 401 q 311 100 290 214 l 313 100 q 348 198 330 146 q 385 304 367 250 q 422 415 404 359 q 459 528 441 472 q 494 640 477 585 q 526 747 511 695 q 534 756 527 753 q 548 759 540 759 q 561 757 555 759 q 581 676 570 723 q 605 575 592 630 q 630 461 617 521 q 656 339 643 400 q 680 216 668 277 q 702 99 692 155 l 704 99 q 753 205 728 150 q 799 314 777 260 q 840 422 821 369 q 874 522 860 475 q 896 609 888 569 q 904 677 904 648 q 901 710 904 693 q 892 742 898 727 q 877 769 886 757 q 856 789 868 782 l 858 795 q 871 797 864 796 q 885 798 878 798 q 921 793 904 798 q 951 778 938 788 q 972 751 965 768 q 980 712 980 735 q 974 667 980 695 q 957 602 968 638 q 929 520 945 565 q 894 427 913 476 q 852 323 874 377 q 805 214 829 270 q 754 103 780 159 q 702 -8 728 46 l 644 -13 m 659 819 q 610 832 636 825 q 560 848 585 840 q 511 865 534 856 q 469 881 488 873 q 437 896 450 889 q 420 907 424 903 q 416 917 417 911 q 415 928 415 922 q 418 951 415 939 q 428 973 422 964 l 438 976 q 487 939 461 957 q 540 905 512 922 q 600 873 568 888 q 668 842 631 857 l 659 819 z "},"Ẃ":{"ha":987,"x_min":-41,"x_max":980,"o":"m 644 -13 l 637 -12 q 618 104 627 51 q 598 206 608 158 q 579 297 589 254 q 561 380 570 340 q 539 484 549 437 q 518 576 529 532 l 516 576 q 488 481 502 527 q 460 391 474 435 q 429 301 445 346 q 396 207 413 256 q 358 105 378 159 q 316 -8 338 52 l 258 -13 l 251 -12 q 159 428 197 259 q 97 664 120 596 q 84 695 91 682 q 68 715 78 707 q 47 727 59 724 q 17 731 35 731 q -7 730 6 731 q -37 725 -21 728 l -41 755 q 47 775 12 768 q 104 782 81 782 q 134 777 122 782 q 154 762 145 772 q 168 733 162 751 q 181 691 174 716 q 204 602 191 656 q 235 474 218 548 q 271 308 251 401 q 311 100 290 214 l 313 100 q 348 198 330 146 q 385 304 367 250 q 422 415 404 359 q 459 528 441 472 q 494 640 477 585 q 526 747 511 695 q 534 756 527 753 q 548 759 540 759 q 561 757 555 759 q 581 676 570 723 q 605 575 592 630 q 630 461 617 521 q 656 339 643 400 q 680 216 668 277 q 702 99 692 155 l 704 99 q 753 205 728 150 q 799 314 777 260 q 840 422 821 369 q 874 522 860 475 q 896 609 888 569 q 904 677 904 648 q 901 710 904 693 q 892 742 898 727 q 877 769 886 757 q 856 789 868 782 l 858 795 q 871 797 864 796 q 885 798 878 798 q 921 793 904 798 q 951 778 938 788 q 972 751 965 768 q 980 712 980 735 q 974 667 980 695 q 957 602 968 638 q 929 520 945 565 q 894 427 913 476 q 852 323 874 377 q 805 214 829 270 q 754 103 780 159 q 702 -8 728 46 l 644 -13 m 433 842 q 559 903 502 870 q 662 976 617 937 l 671 973 q 681 954 677 965 q 685 931 685 942 q 682 914 685 922 q 672 901 679 907 q 652 890 666 897 q 620 877 639 884 q 580 861 602 869 q 534 846 557 853 q 487 831 510 838 q 441 819 463 824 l 433 842 z "},"Ŵ":{"ha":987,"x_min":-41,"x_max":980,"o":"m 644 -13 l 637 -12 q 618 104 627 51 q 598 206 608 158 q 579 297 589 254 q 561 380 570 340 q 539 484 549 437 q 518 576 529 532 l 516 576 q 488 481 502 527 q 460 391 474 435 q 429 301 445 346 q 396 207 413 256 q 358 105 378 159 q 316 -8 338 52 l 258 -13 l 251 -12 q 159 428 197 259 q 97 664 120 596 q 84 695 91 682 q 68 715 78 707 q 47 727 59 724 q 17 731 35 731 q -7 730 6 731 q -37 725 -21 728 l -41 755 q 47 775 12 768 q 104 782 81 782 q 134 777 122 782 q 154 762 145 772 q 168 733 162 751 q 181 691 174 716 q 204 602 191 656 q 235 474 218 548 q 271 308 251 401 q 311 100 290 214 l 313 100 q 348 198 330 146 q 385 304 367 250 q 422 415 404 359 q 459 528 441 472 q 494 640 477 585 q 526 747 511 695 q 534 756 527 753 q 548 759 540 759 q 561 757 555 759 q 581 676 570 723 q 605 575 592 630 q 630 461 617 521 q 656 339 643 400 q 680 216 668 277 q 702 99 692 155 l 704 99 q 753 205 728 150 q 799 314 777 260 q 840 422 821 369 q 874 522 860 475 q 896 609 888 569 q 904 677 904 648 q 901 710 904 693 q 892 742 898 727 q 877 769 886 757 q 856 789 868 782 l 858 795 q 871 797 864 796 q 885 798 878 798 q 921 793 904 798 q 951 778 938 788 q 972 751 965 768 q 980 712 980 735 q 974 667 980 695 q 957 602 968 638 q 929 520 945 565 q 894 427 913 476 q 852 323 874 377 q 805 214 829 270 q 754 103 780 159 q 702 -8 728 46 l 644 -13 m 390 840 q 461 901 427 869 q 525 963 495 932 q 554 975 536 975 q 567 974 561 975 q 583 970 574 972 q 607 938 593 954 q 637 906 621 922 q 672 874 653 890 q 709 842 690 858 l 694 824 q 651 843 672 832 q 613 865 631 853 q 579 887 594 876 q 552 906 564 898 l 549 906 q 520 886 537 898 q 483 863 503 874 q 443 840 463 851 q 404 822 422 829 l 390 840 z "},"Ẅ":{"ha":987,"x_min":-41,"x_max":980,"o":"m 644 -13 l 637 -12 q 618 104 627 51 q 598 206 608 158 q 579 297 589 254 q 561 380 570 340 q 539 484 549 437 q 518 576 529 532 l 516 576 q 488 481 502 527 q 460 391 474 435 q 429 301 445 346 q 396 207 413 256 q 358 105 378 159 q 316 -8 338 52 l 258 -13 l 251 -12 q 159 428 197 259 q 97 664 120 596 q 84 695 91 682 q 68 715 78 707 q 47 727 59 724 q 17 731 35 731 q -7 730 6 731 q -37 725 -21 728 l -41 755 q 47 775 12 768 q 104 782 81 782 q 134 777 122 782 q 154 762 145 772 q 168 733 162 751 q 181 691 174 716 q 204 602 191 656 q 235 474 218 548 q 271 308 251 401 q 311 100 290 214 l 313 100 q 348 198 330 146 q 385 304 367 250 q 422 415 404 359 q 459 528 441 472 q 494 640 477 585 q 526 747 511 695 q 534 756 527 753 q 548 759 540 759 q 561 757 555 759 q 581 676 570 723 q 605 575 592 630 q 630 461 617 521 q 656 339 643 400 q 680 216 668 277 q 702 99 692 155 l 704 99 q 753 205 728 150 q 799 314 777 260 q 840 422 821 369 q 874 522 860 475 q 896 609 888 569 q 904 677 904 648 q 901 710 904 693 q 892 742 898 727 q 877 769 886 757 q 856 789 868 782 l 858 795 q 871 797 864 796 q 885 798 878 798 q 921 793 904 798 q 951 778 938 788 q 972 751 965 768 q 980 712 980 735 q 974 667 980 695 q 957 602 968 638 q 929 520 945 565 q 894 427 913 476 q 852 323 874 377 q 805 214 829 270 q 754 103 780 159 q 702 -8 728 46 l 644 -13 m 448 843 q 428 847 436 843 q 412 859 419 851 q 403 875 406 866 q 400 894 400 884 q 405 917 400 907 q 417 935 410 928 q 435 945 425 941 q 453 948 444 948 q 473 945 464 948 q 488 934 482 941 q 498 919 494 928 q 501 901 501 910 q 497 880 501 890 q 486 861 493 870 q 469 848 479 853 q 448 843 459 843 m 646 843 q 626 847 635 843 q 611 859 617 851 q 602 875 605 866 q 598 894 598 884 q 603 917 598 907 q 616 935 608 928 q 633 945 623 941 q 651 948 642 948 q 671 945 663 948 q 686 934 680 941 q 696 919 693 928 q 700 901 700 910 q 696 880 700 890 q 685 861 692 870 q 668 848 678 853 q 646 843 658 843 z "},"Ỳ":{"ha":569,"x_min":-40,"x_max":589,"o":"m 156 747 q 171 717 162 736 q 189 674 179 698 q 211 622 199 650 q 234 565 222 594 q 256 506 245 536 q 277 449 268 476 q 292 404 286 424 q 304 363 299 384 l 306 363 q 338 439 322 401 q 371 515 355 478 q 403 587 388 552 q 433 652 419 621 q 459 707 447 682 q 481 749 472 732 q 494 767 487 761 q 507 777 500 774 q 523 781 515 781 q 540 782 531 782 q 552 781 545 782 q 565 778 558 780 q 578 774 571 777 q 589 767 584 771 q 501 641 539 701 q 434 530 463 581 q 387 440 406 480 q 355 374 367 401 q 341 340 347 356 q 332 304 336 323 q 325 261 328 285 q 321 204 323 237 q 320 161 320 183 q 318 113 319 138 q 316 61 317 89 q 314 0 315 33 l 234 -10 l 228 -9 q 232 79 230 36 q 235 159 234 123 q 237 223 236 196 q 237 262 237 250 q 234 307 237 284 q 223 356 231 330 q 204 415 215 384 q 180 479 193 447 q 155 542 168 511 q 129 600 141 573 q 106 650 117 628 q 89 686 96 672 q 76 707 83 699 q 61 721 69 715 q 42 728 52 726 q 18 730 32 730 q -7 729 6 730 q -36 725 -21 727 l -40 755 q 45 775 12 768 q 100 782 79 782 q 134 774 122 782 q 156 747 147 765 m 425 819 q 376 832 402 825 q 326 848 351 840 q 277 865 300 856 q 235 881 254 873 q 203 896 216 889 q 186 907 190 903 q 182 917 183 911 q 181 928 181 922 q 184 951 181 939 q 194 973 188 964 l 204 976 q 253 939 228 957 q 306 905 278 922 q 366 873 334 888 q 434 842 397 857 l 425 819 z "},"Ý":{"ha":569,"x_min":-40,"x_max":589,"o":"m 156 747 q 171 717 162 736 q 189 674 179 698 q 211 622 199 650 q 234 565 222 594 q 256 506 245 536 q 277 449 268 476 q 292 404 286 424 q 304 363 299 384 l 306 363 q 338 439 322 401 q 371 515 355 478 q 403 587 388 552 q 433 652 419 621 q 459 707 447 682 q 481 749 472 732 q 494 767 487 761 q 507 777 500 774 q 523 781 515 781 q 540 782 531 782 q 552 781 545 782 q 565 778 558 780 q 578 774 571 777 q 589 767 584 771 q 501 641 539 701 q 434 530 463 581 q 387 440 406 480 q 355 374 367 401 q 341 340 347 356 q 332 304 336 323 q 325 261 328 285 q 321 204 323 237 q 320 161 320 183 q 318 113 319 138 q 316 61 317 89 q 314 0 315 33 l 234 -10 l 228 -9 q 232 79 230 36 q 235 159 234 123 q 237 223 236 196 q 237 262 237 250 q 234 307 237 284 q 223 356 231 330 q 204 415 215 384 q 180 479 193 447 q 155 542 168 511 q 129 600 141 573 q 106 650 117 628 q 89 686 96 672 q 76 707 83 699 q 61 721 69 715 q 42 728 52 726 q 18 730 32 730 q -7 729 6 730 q -36 725 -21 727 l -40 755 q 45 775 12 768 q 100 782 79 782 q 134 774 122 782 q 156 747 147 765 m 199 842 q 326 903 268 870 q 428 976 384 937 l 437 973 q 447 954 443 965 q 451 931 451 942 q 448 914 451 922 q 438 901 445 907 q 418 890 432 897 q 386 877 405 884 q 346 861 368 869 q 300 846 323 853 q 253 831 276 838 q 208 819 229 824 l 199 842 z "},"Ŷ":{"ha":569,"x_min":-40,"x_max":589,"o":"m 156 747 q 171 717 162 736 q 189 674 179 698 q 211 622 199 650 q 234 565 222 594 q 256 506 245 536 q 277 449 268 476 q 292 404 286 424 q 304 363 299 384 l 306 363 q 338 439 322 401 q 371 515 355 478 q 403 587 388 552 q 433 652 419 621 q 459 707 447 682 q 481 749 472 732 q 494 767 487 761 q 507 777 500 774 q 523 781 515 781 q 540 782 531 782 q 552 781 545 782 q 565 778 558 780 q 578 774 571 777 q 589 767 584 771 q 501 641 539 701 q 434 530 463 581 q 387 440 406 480 q 355 374 367 401 q 341 340 347 356 q 332 304 336 323 q 325 261 328 285 q 321 204 323 237 q 320 161 320 183 q 318 113 319 138 q 316 61 317 89 q 314 0 315 33 l 234 -10 l 228 -9 q 232 79 230 36 q 235 159 234 123 q 237 223 236 196 q 237 262 237 250 q 234 307 237 284 q 223 356 231 330 q 204 415 215 384 q 180 479 193 447 q 155 542 168 511 q 129 600 141 573 q 106 650 117 628 q 89 686 96 672 q 76 707 83 699 q 61 721 69 715 q 42 728 52 726 q 18 730 32 730 q -7 729 6 730 q -36 725 -21 727 l -40 755 q 45 775 12 768 q 100 782 79 782 q 134 774 122 782 q 156 747 147 765 m 156 840 q 227 901 193 869 q 291 963 261 932 q 320 975 302 975 q 333 974 327 975 q 349 970 340 972 q 373 938 359 954 q 403 906 387 922 q 438 874 419 890 q 475 842 456 858 l 460 824 q 417 843 438 832 q 379 865 397 853 q 345 887 360 876 q 318 906 330 898 l 315 906 q 286 886 303 898 q 249 863 269 874 q 209 840 229 851 q 170 822 188 829 l 156 840 z "},"Ÿ":{"ha":569,"x_min":-40,"x_max":589,"o":"m 156 747 q 171 717 162 736 q 189 674 179 698 q 211 622 199 650 q 234 565 222 594 q 256 506 245 536 q 277 449 268 476 q 292 404 286 424 q 304 363 299 384 l 306 363 q 338 439 322 401 q 371 515 355 478 q 403 587 388 552 q 433 652 419 621 q 459 707 447 682 q 481 749 472 732 q 494 767 487 761 q 507 777 500 774 q 523 781 515 781 q 540 782 531 782 q 552 781 545 782 q 565 778 558 780 q 578 774 571 777 q 589 767 584 771 q 501 641 539 701 q 434 530 463 581 q 387 440 406 480 q 355 374 367 401 q 341 340 347 356 q 332 304 336 323 q 325 261 328 285 q 321 204 323 237 q 320 161 320 183 q 318 113 319 138 q 316 61 317 89 q 314 0 315 33 l 234 -10 l 228 -9 q 232 79 230 36 q 235 159 234 123 q 237 223 236 196 q 237 262 237 250 q 234 307 237 284 q 223 356 231 330 q 204 415 215 384 q 180 479 193 447 q 155 542 168 511 q 129 600 141 573 q 106 650 117 628 q 89 686 96 672 q 76 707 83 699 q 61 721 69 715 q 42 728 52 726 q 18 730 32 730 q -7 729 6 730 q -36 725 -21 727 l -40 755 q 45 775 12 768 q 100 782 79 782 q 134 774 122 782 q 156 747 147 765 m 214 843 q 194 847 202 843 q 179 859 185 851 q 169 875 172 866 q 166 894 166 884 q 171 917 166 907 q 183 935 176 928 q 201 945 191 941 q 219 948 210 948 q 239 945 230 948 q 254 934 248 941 q 264 919 260 928 q 267 901 267 910 q 263 880 267 890 q 252 861 259 870 q 235 848 245 853 q 214 843 225 843 m 412 843 q 392 847 401 843 q 377 859 383 851 q 368 875 371 866 q 364 894 364 884 q 369 917 364 907 q 382 935 374 928 q 399 945 389 941 q 417 948 408 948 q 437 945 429 948 q 453 934 446 941 q 462 919 459 928 q 466 901 466 910 q 462 880 466 890 q 451 861 458 870 q 434 848 444 853 q 412 843 424 843 z "},"Ź":{"ha":613,"x_min":12,"x_max":592,"o":"m 68 597 q 71 663 70 634 q 75 711 72 691 q 82 745 77 732 q 94 767 86 759 q 113 779 101 775 q 142 782 125 782 q 171 781 153 782 q 218 779 190 780 q 283 776 246 778 q 369 775 321 775 q 418 775 395 775 q 467 776 442 775 q 519 778 491 777 q 582 783 547 780 l 591 768 q 543 695 569 735 q 488 610 517 655 q 428 515 459 565 q 367 416 398 466 q 305 315 336 365 q 246 216 274 264 q 191 123 217 168 q 142 41 164 79 q 261 52 211 50 q 347 54 311 54 q 385 53 368 54 q 417 52 402 53 q 443 50 431 51 q 468 50 456 50 q 504 56 488 50 q 532 77 520 62 q 551 119 544 93 q 563 185 559 145 l 592 183 q 585 85 592 123 q 565 24 578 46 q 534 -7 552 2 q 492 -16 515 -16 q 464 -14 478 -16 q 435 -10 450 -12 q 402 -4 420 -7 q 363 1 385 -1 q 314 5 341 3 q 253 7 287 7 q 206 6 231 7 q 153 3 181 5 q 92 -2 125 1 q 21 -10 59 -5 l 12 3 q 62 79 35 37 q 119 167 90 121 q 179 263 149 214 q 241 363 210 313 q 302 464 272 414 q 361 561 333 514 q 414 650 389 607 q 459 728 439 692 q 408 729 432 728 q 362 729 384 729 q 321 730 341 729 q 283 730 302 730 l 235 730 q 189 728 209 730 q 156 722 170 727 q 132 709 142 718 q 117 685 123 700 q 107 648 111 670 q 101 596 104 627 l 68 597 m 219 842 q 346 903 288 870 q 449 976 404 937 l 458 973 q 467 954 463 965 q 471 931 471 942 q 468 914 471 922 q 458 901 465 907 q 439 890 452 897 q 407 877 425 884 q 366 861 388 869 q 320 846 344 853 q 273 831 297 838 q 228 819 249 824 l 219 842 z "},"Ž":{"ha":613,"x_min":12,"x_max":592,"o":"m 68 597 q 71 663 70 634 q 75 711 72 691 q 82 745 77 732 q 94 767 86 759 q 113 779 101 775 q 142 782 125 782 q 171 781 153 782 q 218 779 190 780 q 283 776 246 778 q 369 775 321 775 q 418 775 395 775 q 467 776 442 775 q 519 778 491 777 q 582 783 547 780 l 591 768 q 543 695 569 735 q 488 610 517 655 q 428 515 459 565 q 367 416 398 466 q 305 315 336 365 q 246 216 274 264 q 191 123 217 168 q 142 41 164 79 q 261 52 211 50 q 347 54 311 54 q 385 53 368 54 q 417 52 402 53 q 443 50 431 51 q 468 50 456 50 q 504 56 488 50 q 532 77 520 62 q 551 119 544 93 q 563 185 559 145 l 592 183 q 585 85 592 123 q 565 24 578 46 q 534 -7 552 2 q 492 -16 515 -16 q 464 -14 478 -16 q 435 -10 450 -12 q 402 -4 420 -7 q 363 1 385 -1 q 314 5 341 3 q 253 7 287 7 q 206 6 231 7 q 153 3 181 5 q 92 -2 125 1 q 21 -10 59 -5 l 12 3 q 62 79 35 37 q 119 167 90 121 q 179 263 149 214 q 241 363 210 313 q 302 464 272 414 q 361 561 333 514 q 414 650 389 607 q 459 728 439 692 q 408 729 432 728 q 362 729 384 729 q 321 730 341 729 q 283 730 302 730 l 235 730 q 189 728 209 730 q 156 722 170 727 q 132 709 142 718 q 117 685 123 700 q 107 648 111 670 q 101 596 104 627 l 68 597 m 496 956 q 424 896 459 927 q 360 831 389 864 l 308 826 l 303 826 q 279 858 293 842 q 249 891 266 875 q 215 924 233 908 q 177 956 196 940 l 192 975 q 235 955 214 966 q 273 933 255 944 q 307 911 292 922 q 334 891 322 900 l 338 891 q 366 910 350 900 q 401 932 382 921 q 440 954 419 943 q 483 975 461 965 l 496 956 z "},"Ż":{"ha":613,"x_min":12,"x_max":592,"o":"m 68 597 q 71 663 70 634 q 75 711 72 691 q 82 745 77 732 q 94 767 86 759 q 113 779 101 775 q 142 782 125 782 q 171 781 153 782 q 218 779 190 780 q 283 776 246 778 q 369 775 321 775 q 418 775 395 775 q 467 776 442 775 q 519 778 491 777 q 582 783 547 780 l 591 768 q 543 695 569 735 q 488 610 517 655 q 428 515 459 565 q 367 416 398 466 q 305 315 336 365 q 246 216 274 264 q 191 123 217 168 q 142 41 164 79 q 261 52 211 50 q 347 54 311 54 q 385 53 368 54 q 417 52 402 53 q 443 50 431 51 q 468 50 456 50 q 504 56 488 50 q 532 77 520 62 q 551 119 544 93 q 563 185 559 145 l 592 183 q 585 85 592 123 q 565 24 578 46 q 534 -7 552 2 q 492 -16 515 -16 q 464 -14 478 -16 q 435 -10 450 -12 q 402 -4 420 -7 q 363 1 385 -1 q 314 5 341 3 q 253 7 287 7 q 206 6 231 7 q 153 3 181 5 q 92 -2 125 1 q 21 -10 59 -5 l 12 3 q 62 79 35 37 q 119 167 90 121 q 179 263 149 214 q 241 363 210 313 q 302 464 272 414 q 361 561 333 514 q 414 650 389 607 q 459 728 439 692 q 408 729 432 728 q 362 729 384 729 q 321 730 341 729 q 283 730 302 730 l 235 730 q 189 728 209 730 q 156 722 170 727 q 132 709 142 718 q 117 685 123 700 q 107 648 111 670 q 101 596 104 627 l 68 597 m 334 842 q 314 847 323 842 q 298 858 304 851 q 289 875 292 866 q 285 894 285 884 q 290 918 285 908 q 303 936 295 928 q 321 946 311 943 q 339 950 330 950 q 360 946 351 950 q 375 935 369 942 q 385 920 382 929 q 389 901 389 911 q 385 880 389 891 q 374 861 381 870 q 356 848 367 853 q 334 842 346 842 z "},"Ŋ":{"ha":740,"x_min":10,"x_max":708,"o":"m 585 149 q 586 188 586 169 q 586 229 586 208 q 587 423 586 338 q 591 570 589 508 q 597 673 593 632 q 606 735 601 713 q 614 758 609 749 q 627 772 620 767 q 643 780 634 778 q 661 782 652 782 q 708 772 684 782 l 708 769 q 681 709 692 745 q 662 627 670 673 q 650 526 654 581 q 642 409 645 471 q 637 278 638 347 q 633 137 635 210 q 631 75 632 110 q 626 5 630 41 q 616 -70 623 -32 q 598 -143 609 -108 q 569 -209 586 -178 q 527 -263 551 -240 q 469 -299 502 -286 q 392 -313 435 -313 q 339 -306 362 -313 q 300 -288 315 -299 q 276 -264 284 -277 q 268 -238 268 -251 q 282 -202 268 -218 q 321 -183 295 -187 q 344 -215 332 -202 q 371 -236 357 -228 q 400 -248 385 -244 q 431 -252 415 -252 q 491 -233 466 -252 q 533 -180 516 -214 q 559 -99 549 -146 q 573 3 569 -52 q 537 57 559 23 q 489 133 516 91 q 432 224 462 176 q 371 323 402 273 q 310 423 340 373 q 253 516 280 472 q 204 597 226 561 q 168 657 182 633 q 166 511 167 582 q 162 375 164 440 q 156 250 159 309 q 150 141 154 192 q 145 80 148 105 q 139 38 143 55 q 130 12 136 22 q 117 -3 125 2 q 99 -9 110 -8 q 73 -11 88 -11 l 64 -11 q 57 -10 61 -11 q 46 -10 53 -10 l 42 -6 q 68 67 56 26 q 87 153 79 108 q 102 248 96 199 q 113 345 109 296 q 119 441 117 394 q 123 531 122 489 q 125 611 124 574 q 125 674 125 647 q 123 699 125 689 q 115 716 121 710 q 99 726 109 723 q 72 729 89 729 q 46 728 61 729 q 14 724 32 726 l 10 753 q 61 765 38 760 q 103 773 84 770 q 137 779 122 777 q 164 781 152 781 q 186 778 177 781 q 203 768 195 774 q 219 750 211 761 q 236 722 227 738 q 271 660 251 694 q 312 589 290 626 q 358 511 334 551 q 407 430 382 471 q 456 350 432 390 q 503 274 480 311 q 547 206 526 238 q 585 149 568 174 z "},"Ð":{"ha":754,"x_min":7,"x_max":710,"o":"m 11 752 q 84 765 46 759 q 161 777 122 772 q 239 784 200 781 q 315 787 277 787 q 418 780 368 787 q 512 758 468 774 q 592 716 555 742 q 655 651 629 690 q 696 558 681 611 q 710 434 710 504 q 698 313 710 371 q 661 205 685 255 q 602 115 637 156 q 523 45 568 74 q 425 1 478 16 q 309 -15 371 -15 q 244 -11 277 -15 q 176 3 212 -6 l 109 -5 l 103 -5 q 108 53 105 17 q 113 138 111 90 q 118 245 116 186 q 122 372 121 304 q 57 369 87 372 q 8 359 28 366 q 7 367 7 363 q 35 398 7 385 q 123 415 63 410 q 125 534 125 473 q 126 662 126 596 q 125 691 126 679 q 118 711 123 703 q 101 723 112 719 q 71 727 90 727 q 14 722 49 727 l 11 752 m 215 741 q 214 692 215 725 q 212 616 213 659 q 210 521 211 572 q 207 416 209 470 q 250 415 227 415 q 293 413 272 414 q 330 412 314 413 q 355 412 347 412 q 392 413 375 412 q 421 417 409 415 q 425 404 424 410 q 426 394 426 398 q 409 370 426 375 q 355 364 391 364 q 328 365 345 364 q 291 368 312 366 q 249 370 271 369 q 205 372 226 372 q 202 272 203 321 q 198 180 200 223 q 194 101 196 136 q 190 42 192 65 q 252 31 224 34 q 308 28 280 28 q 410 42 365 28 q 489 82 455 56 q 547 143 523 107 q 586 220 571 178 q 608 310 601 262 q 615 407 615 357 q 598 544 615 481 q 545 650 582 606 q 448 720 508 695 q 302 745 388 745 q 259 744 281 745 q 215 741 237 743 z "},"Þ":{"ha":572,"x_min":11,"x_max":548,"o":"m 126 672 q 125 699 126 688 q 118 718 123 711 q 103 728 113 725 q 76 731 93 731 q 48 730 65 731 q 15 726 32 729 l 11 754 q 97 773 61 767 q 156 780 133 780 q 190 774 178 780 q 208 757 202 768 q 215 730 214 746 q 216 695 216 715 l 216 683 q 215 659 216 673 q 214 621 215 645 q 265 627 238 624 q 318 630 291 630 q 375 626 347 630 q 429 614 404 623 q 477 592 455 606 q 514 557 498 577 q 539 508 530 536 q 548 443 548 480 q 527 333 548 381 q 469 251 506 284 q 378 201 431 218 q 262 183 326 183 q 248 184 254 183 q 240 189 243 186 q 236 199 237 193 q 236 216 235 206 q 322 226 286 216 q 382 252 358 236 q 421 290 407 269 q 444 334 436 312 q 454 379 451 357 q 456 419 456 401 q 443 502 456 469 q 406 554 429 535 q 352 582 383 574 q 288 590 322 590 q 251 588 269 590 q 213 583 232 586 l 195 0 l 115 -10 l 109 -9 q 116 175 113 88 q 122 346 119 263 q 125 509 124 429 q 126 672 126 589 z "},"a":{"ha":497,"x_min":33,"x_max":523,"o":"m 325 349 q 316 395 325 375 q 293 427 308 415 q 261 446 279 440 q 225 452 243 452 q 184 447 201 452 q 158 433 168 442 q 143 412 147 424 q 138 386 138 400 q 144 353 138 370 q 161 321 150 337 l 160 318 q 121 308 141 308 q 100 312 110 308 q 82 322 90 315 q 71 339 75 329 q 66 361 66 349 q 76 398 66 381 q 102 431 86 416 q 139 457 118 445 q 182 476 160 468 q 227 488 204 484 q 269 493 250 493 q 330 483 304 493 q 371 456 355 474 q 394 412 387 437 q 401 353 401 386 q 399 304 401 331 q 395 248 397 277 q 391 188 393 219 q 389 125 389 156 q 407 52 389 77 q 455 27 425 27 q 513 47 481 27 l 523 32 q 473 -2 500 9 q 417 -14 447 -14 q 376 -7 395 -14 q 344 15 358 1 q 323 53 331 30 q 316 104 316 75 q 316 122 316 113 q 318 141 317 131 l 316 141 q 283 83 302 112 q 241 33 263 55 q 192 -3 218 11 q 137 -17 166 -17 q 95 -9 114 -17 q 62 14 75 -1 q 40 47 48 28 q 33 90 33 67 q 44 144 33 120 q 74 188 55 169 q 121 221 94 207 q 180 245 148 235 q 247 259 212 254 q 320 263 283 263 q 324 304 322 284 q 325 349 325 325 m 117 116 q 120 90 117 102 q 129 69 123 78 q 145 55 135 60 q 168 50 155 50 q 200 57 183 50 q 232 76 216 64 q 262 106 248 89 q 288 144 276 124 q 307 188 299 165 q 317 235 315 211 q 267 232 292 234 q 220 224 242 229 q 179 210 198 218 q 146 188 160 201 q 125 157 133 175 q 117 116 117 139 z "},"b":{"ha":555,"x_min":42,"x_max":514,"o":"m 210 910 q 197 798 203 856 q 184 682 190 741 q 173 563 178 623 q 163 445 167 503 q 155 331 158 387 q 149 224 151 275 l 153 224 q 211 340 180 290 q 273 424 241 390 q 337 475 305 458 q 396 492 368 492 q 437 484 419 492 q 468 461 455 475 q 490 427 481 446 q 505 388 499 409 q 512 347 510 368 q 514 307 514 326 q 504 213 514 257 q 477 133 494 169 q 435 68 459 97 q 383 21 411 40 q 323 -8 355 2 q 261 -18 292 -18 q 219 -14 240 -18 q 177 1 197 -9 q 139 26 157 11 q 107 63 121 42 q 83 14 95 33 q 60 -17 71 -5 l 42 -12 q 70 112 61 40 q 83 277 79 185 q 88 367 85 316 q 93 472 90 417 q 99 586 96 528 q 105 699 102 644 q 111 803 108 754 q 116 890 113 852 q 121 905 116 899 q 133 914 125 910 q 149 919 140 918 q 166 921 158 921 q 210 910 187 921 m 432 274 q 428 322 432 297 q 417 366 425 346 q 397 399 409 386 q 367 411 385 411 q 326 401 346 411 q 287 373 306 391 q 251 333 268 356 q 219 285 234 310 q 191 234 203 260 q 171 185 179 209 q 157 144 162 162 q 153 114 153 125 q 168 75 158 93 q 194 46 179 58 q 228 28 209 34 q 267 21 246 21 q 331 38 301 21 q 383 88 361 56 q 419 168 406 121 q 432 274 432 215 z "},"c":{"ha":425,"x_min":35,"x_max":413,"o":"m 323 348 q 333 386 333 367 q 328 411 333 399 q 315 432 324 423 q 292 446 306 441 q 260 451 278 451 q 212 442 233 451 q 175 416 191 433 q 148 379 159 400 q 129 333 136 357 q 118 283 122 309 q 115 233 115 257 q 126 153 115 189 q 157 92 138 118 q 202 53 176 67 q 257 39 228 39 q 320 55 288 39 q 381 107 351 72 q 386 105 383 106 q 392 100 390 103 q 397 96 395 98 q 399 91 399 93 q 399 90 399 90 l 398 88 q 319 8 365 35 q 218 -18 273 -18 q 163 -10 188 -18 q 118 13 138 -1 q 82 48 97 28 q 56 92 66 68 q 41 142 46 116 q 35 194 35 168 q 43 265 35 230 q 66 334 51 301 q 103 396 81 367 q 151 446 124 425 q 212 479 179 467 q 282 491 244 491 q 334 484 310 491 q 375 465 358 477 q 403 435 393 453 q 413 396 413 418 q 408 372 413 382 q 397 353 404 361 q 379 342 389 346 q 356 338 368 338 q 341 340 349 338 q 325 345 333 341 l 323 348 z "},"d":{"ha":587,"x_min":41,"x_max":595,"o":"m 534 910 q 510 734 522 824 q 491 554 499 644 q 477 378 482 465 q 472 211 472 291 q 473 145 472 173 q 476 99 474 118 q 481 69 477 80 q 489 52 484 58 q 500 44 494 45 q 515 42 507 42 q 551 47 532 42 q 589 60 569 52 l 595 43 q 564 23 583 33 q 526 4 546 13 q 486 -10 505 -4 q 452 -15 466 -15 q 434 -13 441 -15 q 420 -4 426 -10 q 411 12 415 2 q 405 37 407 21 q 400 84 401 57 q 398 143 398 111 q 400 212 398 177 q 409 282 403 247 l 406 283 q 349 158 379 214 q 286 63 318 103 q 220 3 253 24 q 157 -18 187 -18 q 104 -3 126 -18 q 68 38 82 13 q 47 96 54 63 q 41 163 41 129 q 50 245 41 205 q 76 322 59 286 q 117 389 93 358 q 171 443 141 420 q 236 478 201 465 q 309 491 271 491 q 362 484 336 491 q 415 461 389 477 q 420 579 417 519 q 426 694 422 638 q 433 801 429 751 q 442 890 437 851 q 447 905 443 899 q 458 914 452 910 q 474 919 465 918 q 491 921 482 921 q 534 910 511 921 m 412 432 q 321 454 366 454 q 261 444 288 454 q 211 415 233 433 q 172 371 189 396 q 145 318 156 346 q 128 258 134 289 q 123 197 123 227 q 124 172 123 186 q 128 143 125 158 q 135 113 131 127 q 147 87 140 99 q 164 69 154 76 q 188 62 174 62 q 238 80 212 62 q 287 129 263 98 q 333 198 312 159 q 371 278 355 237 q 399 359 388 319 q 412 432 410 399 z "},"e":{"ha":428,"x_min":35,"x_max":409,"o":"m 386 105 q 391 102 388 104 q 397 98 394 100 q 401 93 399 96 q 404 89 404 91 q 402 86 404 87 q 362 40 384 59 q 316 7 340 20 q 268 -12 293 -6 q 220 -18 244 -18 q 145 -2 179 -18 q 87 44 112 15 q 49 111 63 73 q 35 195 35 150 q 43 267 35 231 q 66 336 51 303 q 103 398 81 369 q 152 447 125 426 q 213 479 180 468 q 284 491 246 491 q 332 485 309 491 q 372 465 355 478 q 399 434 389 452 q 409 391 409 415 q 387 331 409 357 q 325 287 364 305 q 231 258 285 269 q 115 242 177 247 l 115 236 q 126 157 115 193 q 156 95 137 121 q 202 55 176 70 q 258 41 228 41 q 321 56 289 41 q 386 105 353 71 m 322 377 q 317 407 322 393 q 302 430 311 420 q 280 446 293 440 q 252 452 267 452 q 212 444 230 452 q 180 423 194 436 q 155 391 165 409 q 136 354 144 374 q 124 313 129 334 q 117 272 119 292 q 203 283 165 275 q 268 305 241 292 q 308 336 294 318 q 322 377 322 354 z "},"f":{"ha":321,"x_min":-217,"x_max":505,"o":"m 190 465 q 223 464 207 465 q 252 464 238 464 q 277 463 266 464 q 296 463 288 463 q 325 464 311 463 q 349 466 339 465 q 353 446 353 453 q 340 426 353 431 q 304 421 328 421 q 252 424 281 421 q 189 429 223 427 q 185 341 188 389 q 180 243 183 294 q 172 140 177 192 q 161 37 168 87 q 144 -58 154 -13 q 122 -140 135 -103 q 77 -237 102 -198 q 24 -299 52 -276 q -35 -333 -5 -323 q -96 -343 -65 -343 q -144 -337 -122 -343 q -182 -321 -166 -331 q -208 -299 -199 -312 q -217 -271 -217 -286 q -214 -255 -217 -263 q -203 -241 -210 -247 q -188 -231 -197 -235 q -168 -227 -179 -227 q -146 -257 -158 -244 q -121 -277 -135 -269 q -93 -289 -107 -285 q -63 -293 -78 -293 q 3 -267 -24 -293 q 49 -196 30 -242 q 78 -84 67 -150 q 94 62 88 -19 q 101 235 99 142 q 104 430 103 328 q 45 428 72 430 q -1 419 18 426 q -2 425 -2 422 q 6 440 -2 433 q 28 453 14 447 q 62 461 42 458 q 105 466 81 465 q 109 527 107 498 q 114 584 111 556 q 122 641 117 612 q 134 700 127 669 q 158 771 143 740 q 191 828 172 803 q 231 870 209 852 q 275 899 252 887 q 321 915 298 910 q 367 921 345 921 q 425 912 400 921 q 469 889 451 903 q 496 858 487 875 q 505 822 505 840 q 501 796 505 807 q 488 777 496 785 q 470 766 480 770 q 447 762 459 762 q 414 769 432 762 l 413 773 q 423 799 419 788 q 426 822 426 810 q 419 850 426 839 q 402 869 413 862 q 378 880 391 877 q 352 884 365 884 q 288 867 314 884 q 244 820 262 850 q 217 750 227 790 q 201 664 207 710 q 194 566 196 617 q 190 465 192 516 z "},"g":{"ha":522,"x_min":-16,"x_max":530,"o":"m 407 423 q 431 373 424 398 q 438 322 438 348 q 430 270 438 295 q 410 221 423 244 q 378 179 396 198 q 336 146 359 160 q 286 124 313 132 q 231 116 260 116 q 216 117 223 116 q 201 119 209 118 q 179 112 189 116 q 162 100 170 107 q 151 87 155 94 q 146 72 146 79 q 158 46 146 57 q 190 28 170 36 q 235 14 209 20 q 289 2 261 8 q 339 -9 315 -3 q 387 -22 364 -15 q 428 -40 409 -30 q 461 -63 447 -50 q 483 -94 475 -76 q 490 -135 490 -112 q 480 -192 490 -165 q 450 -243 469 -219 q 404 -287 430 -267 q 345 -320 377 -306 q 276 -342 312 -334 q 201 -350 239 -350 q 154 -346 178 -350 q 105 -336 129 -343 q 59 -318 81 -329 q 20 -292 37 -307 q -6 -256 3 -276 q -16 -209 -16 -235 q -9 -168 -16 -188 q 10 -130 -2 -148 q 38 -98 22 -113 q 72 -71 54 -83 q 108 -51 90 -59 q 144 -37 126 -42 l 144 -35 q 120 -23 132 -30 q 98 -6 108 -16 q 83 15 89 3 q 77 42 77 27 q 85 73 77 60 q 105 98 93 87 q 132 116 117 109 q 160 130 146 124 q 113 156 134 140 q 78 192 93 172 q 57 237 64 213 q 50 287 50 260 q 67 369 50 331 q 113 434 84 407 q 181 477 143 461 q 263 493 220 493 q 293 490 279 493 q 318 484 306 488 q 339 477 329 481 q 357 468 349 472 q 382 457 370 462 q 411 452 395 452 q 437 456 425 452 q 459 469 450 461 q 474 489 469 477 q 480 517 480 502 q 480 521 480 519 q 479 526 479 523 l 484 529 q 518 502 507 518 q 530 470 530 486 q 525 447 530 457 q 510 430 519 437 q 488 419 501 422 q 459 415 475 415 q 408 425 436 415 l 407 423 m 184 -51 q 138 -70 160 -58 q 100 -100 117 -82 q 74 -139 83 -117 q 64 -188 64 -162 q 78 -244 64 -221 q 116 -283 93 -268 q 167 -307 139 -299 q 222 -314 195 -314 q 294 -303 260 -314 q 353 -271 328 -291 q 394 -223 379 -251 q 409 -163 409 -196 q 401 -132 409 -145 q 381 -109 394 -119 q 350 -93 368 -100 q 311 -80 332 -86 q 250 -66 282 -73 q 184 -51 218 -60 m 254 154 q 287 160 272 154 q 313 177 301 166 q 333 202 325 188 q 346 231 341 216 q 354 263 351 247 q 356 294 356 279 q 353 331 356 312 q 343 369 350 351 q 327 402 337 387 q 304 429 317 418 q 274 448 291 441 q 236 455 257 455 q 201 449 217 455 q 174 432 186 443 q 154 408 162 421 q 140 379 145 394 q 132 347 135 363 q 130 317 130 331 q 133 279 130 298 q 143 241 137 259 q 161 207 150 223 q 185 179 171 191 q 216 161 198 168 q 254 154 233 154 z "},"h":{"ha":576,"x_min":66,"x_max":585,"o":"m 145 180 q 200 326 171 266 q 260 422 230 385 q 320 476 290 459 q 378 493 351 493 q 415 485 397 493 q 446 463 432 478 q 468 424 460 448 q 476 366 476 399 q 475 338 476 356 q 472 299 474 321 q 468 254 470 278 q 464 207 466 230 q 461 163 463 184 q 460 128 460 143 q 462 85 460 101 q 470 58 465 68 q 483 45 475 49 q 504 42 492 42 q 541 47 522 42 q 579 60 559 52 l 585 43 q 554 23 573 33 q 515 4 536 13 q 474 -10 495 -4 q 438 -15 454 -15 q 410 -5 420 -15 q 394 22 399 5 q 387 61 389 39 q 386 110 386 84 q 388 175 386 142 q 392 240 390 209 q 397 296 395 271 q 399 337 399 322 q 385 394 399 375 q 346 413 370 413 q 304 396 326 413 q 261 350 282 379 q 219 282 239 321 q 183 196 199 242 q 157 100 168 151 q 144 0 146 50 l 72 -9 l 66 -8 q 71 80 68 32 q 76 182 73 128 q 82 296 79 237 q 89 415 85 354 q 95 538 92 476 q 102 661 99 601 q 108 780 105 722 q 114 890 111 838 q 119 905 114 899 q 130 914 123 910 q 146 919 137 918 q 164 921 155 921 q 207 910 184 921 q 193 783 199 841 q 182 676 187 725 q 173 584 177 627 q 166 502 169 541 q 160 426 163 463 q 155 350 157 388 q 149 270 152 311 q 143 180 146 228 l 145 180 z "},"i":{"ha":267,"x_min":80,"x_max":281,"o":"m 146 630 q 125 635 134 630 q 109 648 116 640 q 99 666 103 656 q 96 688 96 677 q 101 715 96 703 q 114 734 106 726 q 132 746 122 742 q 152 750 142 750 q 172 746 163 750 q 188 734 181 742 q 198 717 195 727 q 202 696 202 707 q 198 673 202 684 q 186 651 194 661 q 169 636 179 642 q 146 630 158 630 m 175 477 q 165 400 170 438 q 159 325 161 361 q 155 256 156 288 q 154 197 154 223 q 155 137 154 162 q 158 94 156 112 q 164 67 161 77 q 173 51 168 56 q 185 43 178 45 q 201 42 192 42 q 236 47 217 42 q 274 60 255 52 l 281 43 q 250 23 269 33 q 211 4 232 13 q 171 -10 191 -4 q 138 -15 152 -15 q 120 -13 128 -15 q 106 -6 113 -12 q 95 12 100 0 q 87 44 90 24 q 82 95 84 65 q 80 169 80 126 q 81 227 80 195 q 82 296 81 259 q 85 373 83 332 q 90 457 87 414 q 95 473 90 467 q 105 482 99 479 q 119 486 112 485 q 133 488 126 488 q 175 477 155 488 z "},"j":{"ha":247,"x_min":-221,"x_max":191,"o":"m 135 629 q 115 634 124 629 q 99 647 105 639 q 89 666 93 655 q 86 687 86 676 q 91 714 86 703 q 104 734 96 726 q 122 746 112 742 q 141 750 131 750 q 161 746 152 750 q 177 734 171 741 q 187 717 183 727 q 191 696 191 707 q 187 672 191 684 q 175 651 183 660 q 158 635 168 641 q 135 629 148 629 m 172 477 q 170 373 171 427 q 166 266 169 320 q 160 157 164 211 q 151 51 157 103 q 136 -49 144 0 q 115 -140 127 -97 q 74 -237 99 -198 q 19 -299 48 -276 q -42 -333 -10 -323 q -102 -343 -73 -343 q -150 -337 -128 -343 q -187 -321 -172 -331 q -212 -297 -203 -311 q -221 -270 -221 -284 q -217 -253 -221 -261 q -206 -238 -213 -244 q -189 -226 -199 -231 q -170 -222 -180 -222 q -123 -272 -150 -257 q -66 -287 -97 -287 q -26 -279 -45 -287 q 10 -252 -6 -272 q 50 -163 35 -223 q 73 -15 65 -104 q 84 192 81 74 q 86 457 86 310 q 91 473 86 467 q 102 482 95 479 q 116 486 108 485 q 130 488 123 488 q 172 477 152 488 z "}}}
